<svg width="102" height="102" viewBox="0 0 102 102" fill="none" xmlns="http://www.w3.org/2000/svg">
<path d="M88.8769 44.8052H57.1946V13.1229C57.1946 9.6252 54.3559 6.78647 50.8581 6.78647C47.3604 6.78647 44.5217 9.6252 44.5217 13.1229V44.8052H12.8394C9.34166 44.8052 6.50293 47.644 6.50293 51.1417C6.50293 54.6394 9.34166 57.4781 12.8394 57.4781H44.5217V89.1604C44.5217 92.6582 47.3604 95.4969 50.8581 95.4969C54.3559 95.4969 57.1946 92.6582 57.1946 89.1604V57.4781H88.8769C92.3746 57.4781 95.2134 54.6394 95.2134 51.1417C95.2134 47.644 92.3746 44.8052 88.8769 44.8052Z" fill="#087E63"/>
</svg>
