<svg width="24" height="25" viewBox="0 0 24 25" fill="none" xmlns="http://www.w3.org/2000/svg">
<circle cx="12" cy="5" r="5" fill="#8CE9B5"/>
<path d="M8.5 15.25C8.5 17.17 10.08 18.75 12 18.75C13.92 18.75 15.5 17.17 15.5 15.25" stroke="#292D32" stroke-width="1.5" stroke-miterlimit="10" stroke-linecap="round" stroke-linejoin="round"/>
<path d="M8.80994 3L5.18994 6.63" stroke="#292D32" stroke-width="1.5" stroke-miterlimit="10" stroke-linecap="round" stroke-linejoin="round"/>
<path d="M15.1899 3L18.8099 6.63" stroke="#292D32" stroke-width="1.5" stroke-miterlimit="10" stroke-linecap="round" stroke-linejoin="round"/>
<path d="M2 8.85001C2 7.00001 2.99 6.85001 4.22 6.85001H19.78C21.01 6.85001 22 7.00001 22 8.85001C22 11 21.01 10.85 19.78 10.85H4.22C2.99 10.85 2 11 2 8.85001Z" stroke="#292D32" stroke-width="1.5"/>
<path d="M3.5 11L4.91 19.64C5.23 21.58 6 23 8.86 23H14.89C18 23 18.46 21.64 18.82 19.76L20.5 11" stroke="#292D32" stroke-width="1.5" stroke-linecap="round"/>
</svg>
