<svg width="28" height="28" viewBox="0 0 28 28" fill="none" xmlns="http://www.w3.org/2000/svg">
<path d="M0 8C0 5.19974 0 3.79961 0.544967 2.73005C1.02433 1.78924 1.78924 1.02433 2.73005 0.544967C3.79961 0 5.19974 0 8 0H20C22.8003 0 24.2004 0 25.27 0.544967C26.2108 1.02433 26.9757 1.78924 27.455 2.73005C28 3.79961 28 5.19974 28 8V20C28 22.8003 28 24.2004 27.455 25.27C26.9757 26.2108 26.2108 26.9757 25.27 27.455C24.2004 28 22.8003 28 20 28H8C5.19974 28 3.79961 28 2.73005 27.455C1.78924 26.9757 1.02433 26.2108 0.544967 25.27C0 24.2004 0 22.8003 0 20V8Z" fill="white"/>
<path d="M20.9088 9.53031C18.3861 9.28031 15.8482 9.15152 13.3179 9.15152C11.8179 9.15152 10.3179 9.22728 8.81792 9.37879L7.27246 9.53031" stroke="#292D32" stroke-width="1.5" stroke-linecap="round" stroke-linejoin="round"/>
<path d="M11.4404 8.76515L11.6071 7.77273C11.7283 7.05303 11.8192 6.51515 13.0995 6.51515H15.0844C16.3647 6.51515 16.4632 7.08333 16.5768 7.7803L16.7435 8.76515" stroke="#292D32" stroke-width="1.5" stroke-linecap="round" stroke-linejoin="round"/>
<path d="M19.2802 11.9242L18.7877 19.553C18.7044 20.7424 18.6362 21.6667 16.5226 21.6667H11.6589C9.54531 21.6667 9.47712 20.7424 9.39379 19.553L8.90137 11.9242" stroke="#292D32" stroke-width="1.5" stroke-linecap="round" stroke-linejoin="round"/>
<path d="M12.8262 17.5H15.3489" stroke="#292D32" stroke-width="1.5" stroke-linecap="round" stroke-linejoin="round"/>
<path d="M12.1963 14.4697H15.9842" stroke="#292D32" stroke-width="1.5" stroke-linecap="round" stroke-linejoin="round"/>
</svg>
