<svg width="28" height="16" viewBox="0 0 28 16" fill="none" xmlns="http://www.w3.org/2000/svg">
<path d="M20.0725 0.875V12.775H11.62C11.5854 12.2381 11.3478 11.7344 10.9553 11.3664C10.5628 10.9984 10.0449 10.7935 9.50687 10.7935C8.96883 10.7935 8.45096 10.9984 8.05847 11.3664C7.66599 11.7344 7.42832 12.2381 7.39375 12.775H5.25V0.875H20.0725Z" stroke="#018489" stroke-linecap="round" stroke-linejoin="round"/>
<path d="M27.1248 8.575V12.775H25.716C25.6814 12.2381 25.4438 11.7344 25.0513 11.3664C24.6588 10.9984 24.1409 10.7935 23.6029 10.7935C23.0648 10.7935 22.547 10.9984 22.1545 11.3664C21.762 11.7344 21.5243 12.2381 21.4898 12.775H20.0723V4.375H23.021L27.1248 8.575Z" stroke="#018489" stroke-linecap="round" stroke-linejoin="round"/>
<path d="M27.1248 8.57495V12.775H25.716C25.6814 12.238 25.4438 11.7344 25.0513 11.3663C24.6588 10.9983 24.1409 10.7935 23.6029 10.7935C23.0648 10.7935 22.547 10.9983 22.1545 11.3663C21.762 11.7344 21.5243 12.238 21.4898 12.775H20.0723V8.57495H27.1248Z" stroke="#018489" stroke-linecap="round" stroke-linejoin="round"/>
<path d="M9.50227 14.875C10.6717 14.875 11.6198 13.9348 11.6198 12.775C11.6198 11.6153 10.6717 10.675 9.50227 10.675C8.3328 10.675 7.38477 11.6153 7.38477 12.775C7.38477 13.9348 8.3328 14.875 9.50227 14.875Z" stroke="#018489" stroke-linecap="round" stroke-linejoin="round"/>
<path d="M23.5989 14.875C24.7684 14.875 25.7164 13.9348 25.7164 12.775C25.7164 11.6153 24.7684 10.675 23.5989 10.675C22.4295 10.675 21.4814 11.6153 21.4814 12.775C21.4814 13.9348 22.4295 14.875 23.5989 14.875Z" stroke="#018489" stroke-linecap="round" stroke-linejoin="round"/>
<path d="M0.875 2.2749H3.15875" stroke="#018489" stroke-linecap="round" stroke-linejoin="round"/>
<path d="M0.875 5.07495H3.15875" stroke="#018489" stroke-linecap="round" stroke-linejoin="round"/>
<path d="M0.875 7.875H3.15875" stroke="#018489" stroke-linecap="round" stroke-linejoin="round"/>
</svg>
