<svg xmlns="http://www.w3.org/2000/svg" width="20.404" height="20.306" viewBox="0 0 20.404 20.306">
  <g id="Group_21" data-name="Group 21" transform="translate(0.2 0.169)">
    <path id="Path_36" data-name="Path 36" d="M20,9.094a.264.264,0,0,0-.062-.219l-.562-.469V7.094h.25c.156,0,.375-.156.375-.312V3.656a.35.35,0,0,0-.375-.312H13.156c1.563-.937,2.469-1.969,2.063-2.719a1.3,1.3,0,0,0-1.25-.594,5.494,5.494,0,0,0-2.25.594,5.526,5.526,0,0,0-1.75,1.281,1.122,1.122,0,0,0-.219.313,5.16,5.16,0,0,0-2-1.594A5.494,5.494,0,0,0,5.5.031,1.3,1.3,0,0,0,4.25.625a1.442,1.442,0,0,0,.406,1.5,4.924,4.924,0,0,0,1.656,1.25h-6A.336.336,0,0,0,0,3.688V6.813a.313.313,0,0,0,.313.313H.625V19.656a.28.28,0,0,0,.281.281H18.969c.156,0,.375-.094.375-.281V10.094l.594-.75C20.031,9.281,20,9.188,20,9.094Zm-9.562-6.75A4.8,4.8,0,0,1,12,1.219,4.66,4.66,0,0,1,13.969.688c.375,0,.625.094.687.25.156.344-.469,1.25-1.875,1.938a3.441,3.441,0,0,1-1.531.313,7.132,7.132,0,0,1-1.156-.125A1.171,1.171,0,0,1,10.438,2.344ZM5.125,1.688c-.281-.344-.406-.625-.312-.812.063-.156.344-.25.688-.25a4.66,4.66,0,0,1,1.969.531c1.25.625,1.906,1.406,1.906,1.813a4.748,4.748,0,0,1-1.156.125,3.352,3.352,0,0,1-1.531-.312A4.63,4.63,0,0,1,5.125,1.688ZM.625,6.469v-2.5H7.5v2.5ZM7.813,19.281H1.25V7.094H7.813Zm3.125,0h-2.5V7.094h2.5ZM11.25,6.469H8.125v-2.5H9.938L11.25,5.031Zm0-1.844-.812-.656h.813Zm7.5,14.656H11.563V7.094l.156,1a.356.356,0,0,0,.094.188l5,4.219h.031a.237.237,0,0,0,.125.063h.062a.339.339,0,0,0,.156-.031.031.031,0,0,0,.031-.031c.031,0,.062-.031.094-.062l1.406-1.625v8.469Zm0-9.5-1.719,2.063-.156-.156-.031-.031L12.313,7.875l-.344-2.281.875.688a.977.977,0,0,0-.125.594,1.118,1.118,0,0,0,.344.688A1.026,1.026,0,0,0,14.5,7.469a.966.966,0,0,0-.125-1.406,1.036,1.036,0,0,0-1.312.031l-.969-.781,2.469-.062,2.313,1.938L18.75,8.75l.5.406ZM13.813,6.688l-.281-.219a.4.4,0,0,1,.188-.031.315.315,0,0,1,.25.094A.36.36,0,0,1,14,7.063a.339.339,0,0,1-.281.125.315.315,0,0,1-.25-.094.385.385,0,0,1-.125-.25V6.719l.281.219a.115.115,0,0,0,.094.031.163.163,0,0,0,.125-.062A.146.146,0,0,0,13.813,6.688Zm3.938.406h1v.781ZM17,6.469,14.844,4.688a.264.264,0,0,0-.219-.062l-2.75.031V3.969h7.5v2.5Z" fill="#018489" stroke="#018489" stroke-width="0.4"/>
    <path id="Path_37" data-name="Path 37" d="M17.344,8.344a.964.964,0,0,0-.469-.719.883.883,0,0,0-.562-.125c-.406.031-.656.375-.687.875-.5.125-.781.438-.75.844a.957.957,0,0,0,.969.875h.063l.969-.062L17.188,10a.236.236,0,0,0,.219-.125.207.207,0,0,0,.063-.219Zm-1.5,1.25a.375.375,0,0,1-.344-.375c0-.062.188-.187.469-.25a.366.366,0,0,0,.281-.344c0-.312.063-.5.156-.531a.366.366,0,0,1,.344.281l.094,1.031Z" fill="#018489"/>
    <g id="Group_19" data-name="Group 19" opacity="0.25">
      <path id="Path_43" data-name="Path 43" d="M17.031,11.813,18.75,9.75v1.063l-1.406,1.625c-.031.031-.062.063-.094.063a.031.031,0,0,0-.031.031.281.281,0,0,1-.156.031H17a.109.109,0,0,1-.062-.031c-.031,0-.031-.031-.062-.031v-.781Z" fill="#018489"/>
    </g>
  </g>
</svg>
