<svg xmlns="http://www.w3.org/2000/svg" xmlns:xlink="http://www.w3.org/1999/xlink" width="20" height="20" viewBox="0 0 20 20">
  <defs>
    <clipPath id="clip-path">
      <rect id="Rectangle_7" data-name="Rectangle 7" width="20" height="20" fill="#fff"/>
    </clipPath>
  </defs>
  <g id="Group_16" data-name="Group 16" clip-path="url(#clip-path)">
    <path id="Path_34" data-name="Path 34" d="M5.653,11.7.138,5.921,5.653.145l.779.818L2.413,5.172l-.161.169H15.2A4.555,4.555,0,0,1,19.642,9.9h-1.1A3.425,3.425,0,0,0,15.2,6.5H2.251l.161.169,4.02,4.209Z" fill="#018489" stroke="#fff" stroke-width="0.2"/>
    <path id="Path_35" data-name="Path 35" d="M4.813,14.659A4.555,4.555,0,0,1,.37,10.1h1.1a3.425,3.425,0,0,0,3.344,3.4H17.751l-.161-.169L13.579,9.12,14.36,8.3l5.5,5.775-5.5,5.775-.781-.816,4.011-4.21.161-.169H4.813Z" fill="#018489" stroke="#fff" stroke-width="0.2"/>
  </g>
</svg>
