<svg width="23" height="15" viewBox="0 0 23 15" fill="none" xmlns="http://www.w3.org/2000/svg">
<path d="M19.6955 11.299C19.6927 11.2986 19.69 11.2982 19.6872 11.2979C19.5951 11.5523 19.503 11.8066 19.4092 12.0653C19.5604 12.0653 19.7035 12.0653 19.8553 12.0653C19.8013 11.8064 19.7484 11.5526 19.6955 11.299Z" fill="#FF007C"/>
<path d="M22.5404 4.67285H0.459961V6.32309H22.5404V4.67285Z" fill="#FF007C"/>
<path d="M22.5404 2.25491C22.5404 1.2872 21.7532 0.5 20.7855 0.5H2.21452C1.24716 0.5 0.459961 1.2872 0.459961 2.25491V4.1259H22.5404V2.25491Z" fill="#FF007C"/>
<path d="M0.459961 13.2453C0.459961 14.2131 1.24716 15.0003 2.21452 15.0003H20.7855C21.7532 15.0003 22.5404 14.2131 22.5404 13.2453V6.87012H0.459961V13.2453ZM19.6224 10.7275C19.7698 10.7273 19.9171 10.7274 20.0699 10.7274C20.2139 11.4163 20.3577 12.1045 20.5023 12.7967C20.3345 12.7967 20.1737 12.7967 20.0086 12.7967C19.993 12.723 19.9768 12.6492 19.9618 12.5752C19.9442 12.4883 19.9447 12.4882 19.8546 12.4882C19.6666 12.4882 19.4787 12.4887 19.2906 12.4877C19.2644 12.4876 19.2517 12.4951 19.243 12.5206C19.2148 12.6042 19.1845 12.6872 19.153 12.7697C19.1486 12.7813 19.1329 12.7967 19.1222 12.7969C18.9441 12.7986 18.7661 12.798 18.5841 12.798C18.5887 12.785 18.5916 12.7747 18.5958 12.765C18.8576 12.1394 19.1196 11.5139 19.3818 10.8883C19.4261 10.7823 19.5083 10.7276 19.6224 10.7275ZM17.2321 12.2945C17.3856 12.3673 17.5474 12.4022 17.7171 12.4002C17.7948 12.3993 17.8711 12.3873 17.9414 12.3502C18.0696 12.2824 18.0866 12.151 17.9736 12.0615C17.9183 12.0177 17.8548 11.9833 17.7919 11.9505C17.6871 11.896 17.5835 11.8407 17.4924 11.7641C17.2325 11.5458 17.2657 11.2407 17.4064 11.0353C17.5221 10.8665 17.6922 10.7772 17.8855 10.7284C17.9472 10.7128 18.0112 10.707 18.074 10.6964C18.0833 10.6948 18.0924 10.6916 18.1015 10.6891C18.1704 10.6891 18.2392 10.6891 18.308 10.6891C18.3682 10.6991 18.4288 10.7068 18.4883 10.7196C18.5469 10.7323 18.6046 10.7497 18.6625 10.7658C18.6765 10.7696 18.6897 10.776 18.7062 10.7823C18.6751 10.9271 18.6444 11.0706 18.6137 11.2141C18.5432 11.1919 18.4757 11.1666 18.4062 11.1497C18.2811 11.1193 18.1533 11.1062 18.0272 11.1401C17.9817 11.1525 17.9358 11.1781 17.9001 11.2093C17.8397 11.262 17.8396 11.339 17.898 11.3941C17.9377 11.4316 17.9843 11.4629 18.0315 11.4908C18.1255 11.5464 18.2243 11.5941 18.3169 11.6516C18.4416 11.729 18.5454 11.8277 18.5869 11.975C18.6473 12.1888 18.5813 12.4738 18.3433 12.6456C18.2062 12.7445 18.0512 12.7963 17.8862 12.8174C17.6266 12.8508 17.3719 12.8253 17.1237 12.7401C17.11 12.7354 17.0966 12.7292 17.0791 12.7221C17.1112 12.5717 17.143 12.4225 17.1756 12.2699C17.1966 12.2789 17.2146 12.2862 17.2321 12.2945ZM17.152 10.7289C17.1377 10.7973 17.1242 10.8632 17.1102 10.9289C16.9805 11.5358 16.8503 12.1427 16.7219 12.75C16.7137 12.7889 16.6998 12.8003 16.6601 12.7995C16.5139 12.7969 16.3677 12.7986 16.2214 12.7986C16.208 12.7986 16.1946 12.7986 16.1744 12.7986C16.3229 12.1048 16.4703 11.4166 16.6175 10.7289C16.7967 10.7289 16.9721 10.7289 17.152 10.7289ZM13.8678 10.7702C13.8727 10.7295 13.8984 10.7258 13.9341 10.726C14.2156 10.7275 14.497 10.7268 14.7785 10.7269C14.9183 10.7269 15.0142 10.8048 15.0402 10.9422C15.1122 11.3219 15.1834 11.7018 15.255 12.0817C15.2575 12.0949 15.2607 12.1079 15.2713 12.1238C15.4555 11.6586 15.6397 11.1934 15.8235 10.7289C16.0105 10.7289 16.1955 10.7289 16.385 10.7289C16.3749 10.7546 16.3664 10.7772 16.3571 10.7995C16.0826 11.4546 15.8079 12.1097 15.534 12.7651C15.5235 12.7901 15.511 12.7995 15.483 12.7994C15.3171 12.7979 15.1512 12.7982 14.9853 12.7992C14.9603 12.7994 14.9497 12.7932 14.943 12.7672C14.8045 12.2277 14.6635 11.6889 14.5262 11.1492C14.5016 11.0523 14.4529 10.9854 14.3605 10.9443C14.2084 10.8766 14.0502 10.8294 13.8886 10.7917C13.8815 10.7901 13.8747 10.7873 13.8678 10.785C13.8678 10.78 13.8678 10.7752 13.8678 10.7702ZM2.71083 10.1553H5.00087C5.15183 10.1553 5.27431 10.2778 5.27431 10.4287C5.27431 10.5797 5.15183 10.7022 5.00087 10.7022H2.71083C2.55987 10.7022 2.4374 10.5797 2.4374 10.4287C2.4374 10.2778 2.55987 10.1553 2.71083 10.1553ZM2.71083 11.8714H8.03931C8.19027 11.8714 8.31274 11.9939 8.31274 12.1448C8.31274 12.2958 8.19027 12.4183 8.03931 12.4183H2.71083C2.55987 12.4183 2.4374 12.2958 2.4374 12.1448C2.4374 11.9939 2.55987 11.8714 2.71083 11.8714Z" fill="#FF007C"/>
</svg>
