<svg xmlns="http://www.w3.org/2000/svg" xmlns:xlink="http://www.w3.org/1999/xlink" width="40.5" height="40" viewBox="0 0 40.5 40">
  <defs>
    <clipPath id="clip-path">
      <rect id="Rectangle_6" data-name="Rectangle 6" width="36.62" height="40" transform="translate(4.38)" fill="#fff"/>
    </clipPath>
    <clipPath id="clip-path-2">
      <rect id="Rectangle_5" data-name="Rectangle 5" width="30.423" height="33.231" transform="translate(3.817 7.385)" fill="#fff"/>
    </clipPath>
    <clipPath id="clip-path-3">
      <rect id="Rectangle_4" data-name="Rectangle 4" width="13.521" height="14.769" transform="translate(11.141 16.615)" fill="#fff"/>
    </clipPath>
  </defs>
  <g id="Group_9" data-name="Group 9" transform="translate(-0.5)">
    <g id="Group_8" data-name="Group 8" clip-path="url(#clip-path)">
      <ellipse id="Ellipse_3" data-name="Ellipse 3" cx="15.106" cy="2.681" rx="15.106" ry="2.681" transform="matrix(0.999, 0.053, -0.053, 0.999, 4.662, 29.539)" fill="#f8c0d7"/>
      <g id="Group_7" data-name="Group 7" clip-path="url(#clip-path-2)">
        <line id="Line_4" data-name="Line 4" x2="3.944" transform="translate(2.69 25.962)" fill="none" stroke="#f8c0d7" stroke-width="1"/>
        <path id="Path_13" data-name="Path 13" d="M24.126,16.731a1.5,1.5,0,0,1,1.5,1.5V29.354a1.5,1.5,0,0,1-1.5,1.5h-6.27A2.479,2.479,0,0,1,16,29.528a2.456,2.456,0,0,0-.281-.346,2.161,2.161,0,0,0-3.147,0,2.493,2.493,0,0,0-.426.59,1.754,1.754,0,0,1-1.427,1.082h0a1.2,1.2,0,0,1-1.2-1.2V18.231a1.5,1.5,0,0,1,1.5-1.5Z" fill="none" stroke="#0a0a0a" stroke-linecap="round" stroke-linejoin="round" stroke-width="1"/>
        <path id="Path_14" data-name="Path 14" d="M32.779,25.3a2,2,0,0,1,.509,1.333v3.433a.788.788,0,0,1-.788.788h0a1,1,0,0,1-.886-.727,2.541,2.541,0,0,0-.579-.945,2.161,2.161,0,0,0-3.147,0,2.539,2.539,0,0,0-.577.941,1,1,0,0,1-.893.731h0a.793.793,0,0,1-.793-.793V22.885a2,2,0,0,1,2-2h.309a2,2,0,0,1,1.491.667Z" fill="none" stroke="#0a0a0a" stroke-linecap="round" stroke-linejoin="round" stroke-width="1"/>
        <path id="Path_15" data-name="Path 15" d="M32.289,25.869a1,1,0,0,1,1,1v3.2a.788.788,0,0,1-.788.788h0a1,1,0,0,1-.886-.726,2.541,2.541,0,0,0-.579-.945,2.161,2.161,0,0,0-3.147,0,2.539,2.539,0,0,0-.577.941,1,1,0,0,1-.893.731h0a.793.793,0,0,1-.793-.793V26.869a1,1,0,0,1,1-1Z" fill="none" stroke="#0a0a0a" stroke-linecap="round" stroke-linejoin="round" stroke-width="1"/>
        <path id="Path_16" data-name="Path 16" d="M14.142,33.346a2.5,2.5,0,0,0,0-4.985,2.5,2.5,0,0,0,0,4.985Z" fill="none" stroke="#0a0a0a" stroke-linecap="round" stroke-linejoin="round" stroke-width="1"/>
        <path id="Path_17" data-name="Path 17" d="M29.457,33.346a2.5,2.5,0,1,0-2.3-2.492A2.4,2.4,0,0,0,29.457,33.346Z" fill="none" stroke="#0a0a0a" stroke-linecap="round" stroke-linejoin="round" stroke-width="1"/>
        <path id="Path_18" data-name="Path 18" d="M4.768,25.038H7.249" fill="none" stroke="#0a0a0a" stroke-linecap="round" stroke-linejoin="round" stroke-width="1"/>
        <line id="Line_5" data-name="Line 5" x2="3.944" transform="translate(3.253 19.808)" fill="none" stroke="#f8c0d7" stroke-width="1"/>
        <path id="Path_19" data-name="Path 19" d="M4.944,19.077H7.2" fill="none" stroke="#000" stroke-linecap="round" stroke-linejoin="round" stroke-width="1"/>
        <path id="Path_20" data-name="Path 20" d="M25.789,22.154h3.944" fill="none" stroke="#0a0a0a" stroke-linecap="round" stroke-linejoin="round" stroke-width="1.2"/>
        <path id="Path_21" data-name="Path 21" d="M20.343,20.923l-4.131,4.513-1.878-2.051" fill="none" stroke="#f8c0d7" stroke-linecap="round" stroke-linejoin="round" stroke-width="1"/>
        <g id="Group_6" data-name="Group 6" clip-path="url(#clip-path-3)">
          <path id="Path_22" data-name="Path 22" d="M21.282,20.923l-4.261,4.308-1.937-1.958" fill="none" stroke="#1bbe00" stroke-linecap="round" stroke-linejoin="round" stroke-width="1"/>
          <path id="Path_23" data-name="Path 23" d="M17.9,28.923h6.2" fill="none" stroke="#0a0a0a" stroke-linecap="round" stroke-linejoin="round" stroke-width="1"/>
        </g>
        <circle id="Ellipse_4" data-name="Ellipse 4" cx="0.8" cy="0.8" r="0.8" transform="translate(13 30)" fill="#0a0a0a"/>
        <circle id="Ellipse_5" data-name="Ellipse 5" cx="0.75" cy="0.75" r="0.75" transform="translate(28 30)" fill="#0a0a0a"/>
      </g>
    </g>
    <path id="Path_24" data-name="Path 24" d="M1,22.171H7.2" fill="none" stroke="#0a0a0a" stroke-linecap="round" stroke-linejoin="round" stroke-width="1"/>
  </g>
</svg>
