<svg width="27" height="27" viewBox="0 0 27 27" fill="none" xmlns="http://www.w3.org/2000/svg">
<path d="M10.125 24.75H16.875C22.5 24.75 24.75 22.5 24.75 16.875V10.125C24.75 4.5 22.5 2.25 16.875 2.25H10.125C4.5 2.25 2.25 4.5 2.25 10.125V16.875C2.25 22.5 4.5 24.75 10.125 24.75Z" stroke="#FF1F84" stroke-width="1.5" stroke-linecap="round" stroke-linejoin="round"/>
<path d="M13.5 17.4375C15.6746 17.4375 17.4375 15.6746 17.4375 13.5C17.4375 11.3254 15.6746 9.5625 13.5 9.5625C11.3254 9.5625 9.5625 11.3254 9.5625 13.5C9.5625 15.6746 11.3254 17.4375 13.5 17.4375Z" stroke="#FF1F84" stroke-width="1.5" stroke-linecap="round" stroke-linejoin="round"/>
<path d="M19.8406 7.875H19.8536" stroke="#FF1F84" stroke-width="2" stroke-linecap="round" stroke-linejoin="round"/>
</svg>
