<svg width="27" height="27" viewBox="0 0 27 27" fill="none" xmlns="http://www.w3.org/2000/svg">
<path d="M22.275 0H4.725C2.11545 0 0 2.11545 0 4.725V22.275C0 24.8845 2.11545 27 4.725 27H22.275C24.8845 27 27 24.8845 27 22.275V4.725C27 2.11545 24.8845 0 22.275 0Z" fill="#385997"/>
<path d="M22.95 12.4875H18.7313V9.2813C18.7313 8.49661 19.6341 8.43755 19.9125 8.43755H22.7813V4.05005H19.9125C16.7358 4.05005 14.3438 6.29864 14.3438 9.2813V12.4875H10.8V16.875H14.3438V27H18.7313V16.875H22.275L22.95 12.4875Z" fill="white"/>
</svg>
