<svg width="27" height="27" viewBox="0 0 27 27" fill="none" xmlns="http://www.w3.org/2000/svg">
<path d="M10.125 11.25C11.3676 11.25 12.375 10.2426 12.375 9C12.375 7.75736 11.3676 6.75 10.125 6.75C8.88236 6.75 7.875 7.75736 7.875 9C7.875 10.2426 8.88236 11.25 10.125 11.25Z" stroke="#087E63" stroke-width="1.5" stroke-linecap="round" stroke-linejoin="round"/>
<path d="M14.625 2.25H10.125C4.5 2.25 2.25 4.5 2.25 10.125V16.875C2.25 22.5 4.5 24.75 10.125 24.75H16.875C22.5 24.75 24.75 22.5 24.75 16.875V11.25" stroke="#087E63" stroke-width="1.5" stroke-linecap="round" stroke-linejoin="round"/>
<path d="M20.25 9V2.25L22.5 4.5" stroke="#087E63" stroke-width="1.5" stroke-linecap="round" stroke-linejoin="round"/>
<path d="M20.25 2.25L18 4.5" stroke="#087E63" stroke-width="1.5" stroke-linecap="round" stroke-linejoin="round"/>
<path d="M3.00391 21.3188L8.55016 17.595C9.43891 16.9988 10.7214 17.0663 11.5202 17.7525L11.8914 18.0788C12.7689 18.8325 14.1864 18.8325 15.0639 18.0788L19.7439 14.0625C20.6214 13.3088 22.0389 13.3088 22.9164 14.0625L24.7502 15.6375" stroke="#087E63" stroke-width="1.5" stroke-linecap="round" stroke-linejoin="round"/>
</svg>
