<svg width="27" height="27" viewBox="0 0 27 27" fill="none" xmlns="http://www.w3.org/2000/svg">
<path d="M15.75 10.4625V13.725H18.675C18.9 13.725 19.0125 13.95 19.0125 14.175L18.5625 16.3125C18.5625 16.425 18.3375 16.5375 18.225 16.5375H15.75V24.75H12.375V16.65H10.4625C10.2375 16.65 10.125 16.5375 10.125 16.3125V14.175C10.125 13.95 10.2375 13.8375 10.4625 13.8375H12.375V10.125C12.375 8.2125 13.8375 6.75 15.75 6.75H18.7875C19.0125 6.75 19.125 6.8625 19.125 7.0875V9.7875C19.125 10.0125 19.0125 10.125 18.7875 10.125H16.0875C15.8625 10.125 15.75 10.2375 15.75 10.4625Z" stroke="#2B5686" stroke-width="1.5" stroke-miterlimit="10" stroke-linecap="round"/>
<path d="M16.875 24.75H10.125C4.5 24.75 2.25 22.5 2.25 16.875V10.125C2.25 4.5 4.5 2.25 10.125 2.25H16.875C22.5 2.25 24.75 4.5 24.75 10.125V16.875C24.75 22.5 22.5 24.75 16.875 24.75Z" stroke="#2B5686" stroke-width="1.5" stroke-linecap="round" stroke-linejoin="round"/>
</svg>
