<svg width="94" height="23" viewBox="0 0 94 23" fill="none" xmlns="http://www.w3.org/2000/svg">
<path d="M7.52 0.419998C9.1 0.479999 10.34 0.909999 11.24 1.71C12.14 2.51 12.55 3.67 12.47 5.19C12.43 6.15 11.96 6.83 11.06 7.23C10.3 7.57 9.68 7.54 9.2 7.14C8.9 6.9 8.78 6.53 8.84 6.03C9.04 4.51 8.71 3.53 7.85 3.09C7.21 2.77 6.6 2.86 6.02 3.36C5.26 4 5.08 4.9 5.48 6.06C5.76 6.82 6.28 7.59 7.04 8.37C7.64 8.97 8.42 9.66 9.38 10.44C10.34 11.22 11.07 11.84 11.57 12.3C12.09 12.74 12.52 13.33 12.86 14.07C13.22 14.81 13.34 15.62 13.22 16.5C13.02 17.92 12.44 19.1 11.48 20.04C10.54 20.98 9.47 21.58 8.27 21.84C7.09 22.1 5.87 22.05 4.61 21.69C3.37 21.31 2.38 20.61 1.64 19.59C0.62 18.21 0.21 16.51 0.41 14.49C0.45 13.99 0.83 13.69 1.55 13.59C2.29 13.47 3.01 13.58 3.71 13.92C4.41 14.26 4.76 14.73 4.76 15.33C4.72 17.53 5.21 18.73 6.23 18.93C6.95 19.09 7.66 18.75 8.36 17.91C9.14 16.99 9.4 16.07 9.14 15.15C9.02 14.75 8.8 14.4 8.48 14.1C8.14 13.8 7.34 13.06 6.08 11.88C4.82 10.68 3.94 9.85 3.44 9.39C2.64 8.65 2.08 7.85 1.76 6.99C1.44 6.11 1.37 5.29 1.55 4.53C1.73 3.75 2.07 3.04 2.57 2.4C3.09 1.76 3.78 1.26 4.64 0.899999C5.52 0.539999 6.48 0.379999 7.52 0.419998ZM17.5133 6C18.1533 6 18.6433 6.07 18.9833 6.21C18.9833 6.21 18.9833 7.24 18.9833 9.3H20.3933C20.8933 9.36 21.0633 9.66 20.9033 10.2C20.7633 10.68 20.4933 10.98 20.0933 11.1L19.8833 11.13H18.9533C18.9133 15.07 18.9433 17.18 19.0433 17.46C19.1833 17.8 19.4433 17.91 19.8233 17.79C20.2233 17.67 20.6033 17.36 20.9633 16.86C21.2433 16.5 21.9033 15.18 22.9433 12.9C23.0633 12.72 23.2133 12.64 23.3933 12.66C23.5933 12.68 23.7733 12.78 23.9333 12.96C24.0933 13.12 24.1433 13.29 24.0833 13.47C23.9633 13.77 23.7533 14.29 23.4533 15.03C23.1733 15.75 22.9733 16.26 22.8533 16.56C22.0733 18.46 21.1033 19.92 19.9433 20.94C19.6033 21.26 19.1733 21.49 18.6533 21.63C18.1533 21.75 17.6733 21.73 17.2133 21.57C16.4333 21.29 15.8433 20.59 15.4433 19.47C15.3033 19.05 15.2133 18.62 15.1733 18.18C15.1333 17.74 15.1233 17.2 15.1433 16.56C15.1633 15.9 15.1733 15.46 15.1733 15.24C15.1933 14.96 15.1833 13.59 15.1433 11.13H13.7333C13.2333 11.07 13.0633 10.77 13.2233 10.23C13.3433 9.75 13.6033 9.45 14.0033 9.33C14.0833 9.31 14.1533 9.3 14.2133 9.3H15.1433C15.1433 8.78 15.1433 8.25 15.1433 7.71C15.1633 7.17 15.1733 6.89 15.1733 6.87C15.1933 6.29 15.9733 6 17.5133 6ZM23.5721 6C23.7721 6 24.0521 6.02 24.4121 6.06C24.5521 6.08 24.6721 6.11 24.7721 6.15C24.8721 6.17 24.9521 6.2 25.0121 6.24C25.0921 6.28 25.1521 6.35 25.1921 6.45C25.2521 6.53 25.2921 6.6 25.3121 6.66C25.3321 6.72 25.3421 6.83 25.3421 6.99C25.3621 7.13 25.3721 7.24 25.3721 7.32C25.3721 7.38 25.3721 7.51 25.3721 7.71C25.3721 7.89 25.3721 8.02 25.3721 8.1C25.3721 8.16 25.3721 8.27 25.3721 8.43C25.3721 8.59 25.3721 8.7 25.3721 8.76C25.3721 8.8 25.3621 8.88 25.3421 9C25.3221 9.1 25.2921 9.17 25.2521 9.21C25.2121 9.25 25.1521 9.3 25.0721 9.36C25.0121 9.42 24.9221 9.47 24.8021 9.51C24.6821 9.53 24.5421 9.54 24.3821 9.54C24.1821 9.56 23.8521 9.57 23.3921 9.57C22.9321 9.55 22.6221 9.54 22.4621 9.54C22.2821 9.54 22.1221 9.53 21.9821 9.51C21.8621 9.47 21.7621 9.43 21.6821 9.39C21.6221 9.35 21.5721 9.27 21.5321 9.15C21.4921 9.03 21.4621 8.94 21.4421 8.88C21.4421 8.82 21.4421 8.69 21.4421 8.49C21.4421 8.29 21.4421 8.16 21.4421 8.1C21.4421 7.74 21.4321 7.42 21.4121 7.14C21.4121 6.84 21.4921 6.59 21.6521 6.39C21.8121 6.19 22.0621 6.08 22.4021 6.06C22.9221 6.02 23.3121 6 23.5721 6ZM23.6921 10.74C23.9321 10.74 24.1721 10.74 24.4121 10.74C24.6521 10.74 24.8321 10.74 24.9521 10.74C25.0721 10.74 25.2021 10.74 25.3421 10.74C25.3421 11.32 25.3421 12.4 25.3421 13.98C25.3421 15.56 25.3521 16.52 25.3721 16.86C25.3921 17.1 25.4221 17.31 25.4621 17.49C25.5021 17.65 25.5921 17.8 25.7321 17.94C25.8921 18.08 26.1021 18.12 26.3621 18.06C26.9421 17.9 27.5221 17.31 28.1021 16.29C28.3421 15.85 28.9121 14.77 29.8121 13.05C30.0521 12.57 30.3821 12.4 30.8021 12.54C31.1021 12.64 31.1921 12.83 31.0721 13.11C30.9921 13.31 30.8221 13.75 30.5621 14.43C30.3221 15.11 30.1321 15.61 29.9921 15.93C29.8721 16.23 29.6921 16.65 29.4521 17.19C29.2321 17.71 28.9921 18.17 28.7321 18.57C28.4721 18.97 28.1921 19.35 27.8921 19.71C26.8121 21.01 25.6221 21.67 24.3221 21.69C23.8821 21.71 23.4321 21.6 22.9721 21.36C22.5121 21.12 22.1921 20.81 22.0121 20.43C21.8121 20.05 21.6621 19.59 21.5621 19.05C21.4821 18.51 21.4321 18.09 21.4121 17.79C21.4121 17.47 21.4121 16.93 21.4121 16.17C21.4321 15.39 21.4421 14.93 21.4421 14.79C21.4421 12.79 21.4921 11.68 21.5921 11.46C21.8121 10.98 22.5121 10.74 23.6921 10.74ZM31.8577 10.77C32.8777 10.77 33.6977 11.15 34.3177 11.91C34.7577 12.49 34.9777 13.2 34.9777 14.04C34.6977 14.48 34.3977 14.68 34.0777 14.64C33.8577 14.6 33.7577 14.4 33.7777 14.04C33.8177 13.58 33.6977 13.18 33.4177 12.84C33.1377 12.48 32.8077 12.36 32.4277 12.48C31.6677 12.72 31.2877 13.81 31.2877 15.75C31.2877 16.71 31.4477 17.5 31.7677 18.12C32.0877 18.74 32.4977 19.05 32.9977 19.05C33.4577 19.05 34.0177 18.79 34.6777 18.27C35.3377 17.75 35.9977 17.01 36.6577 16.05L38.8477 12.54C38.9477 12.56 39.0677 12.6 39.2077 12.66C39.3477 12.72 39.5177 12.84 39.7177 13.02C39.9177 13.18 39.9777 13.34 39.8977 13.5C39.8177 13.68 39.6277 14.02 39.3277 14.52C39.0477 15.02 38.7277 15.56 38.3677 16.14C38.0277 16.7 37.8377 17.01 37.7977 17.07C36.8977 18.59 35.8077 19.8 34.5277 20.7C33.2677 21.58 32.0277 21.86 30.8077 21.54C30.1277 21.36 29.5677 21.04 29.1277 20.58C28.6877 20.12 28.3877 19.54 28.2277 18.84C28.0477 18.12 27.9377 17.48 27.8977 16.92C27.8577 16.36 27.8377 15.66 27.8377 14.82C27.8377 13.48 28.2377 12.48 29.0377 11.82C29.8577 11.14 30.7977 10.79 31.8577 10.77ZM42.6973 1.38C43.1973 1.38 43.6773 1.51 44.1373 1.77C45.1973 2.41 45.5873 3.4 45.3073 4.74C45.0473 6.08 44.4673 7.42 43.5673 8.76C42.6873 10.1 41.7873 11.14 40.8673 11.88C40.8673 11.98 40.8673 12.21 40.8673 12.57C40.8673 12.91 40.8773 13.13 40.8973 13.23C40.9973 13.09 41.1373 12.92 41.3173 12.72C41.4973 12.52 41.8573 12.22 42.3973 11.82C42.9573 11.42 43.5173 11.17 44.0773 11.07C45.5173 10.79 46.4473 11.16 46.8673 12.18C47.2473 13.1 47.0873 14.11 46.3873 15.21C45.8273 16.05 45.0673 16.67 44.1073 17.07C44.2073 17.13 44.3973 17.27 44.6773 17.49C44.9773 17.69 45.2273 17.85 45.4273 17.97C45.6273 18.07 45.8573 18.17 46.1173 18.27C46.3973 18.35 46.6673 18.35 46.9273 18.27C47.1873 18.17 47.4273 17.99 47.6473 17.73C48.9873 16.17 50.1573 14.55 51.1573 12.87C51.3373 12.67 51.5573 12.57 51.8173 12.57C52.0973 12.57 52.3173 12.65 52.4773 12.81C52.6573 12.97 52.6973 13.16 52.5973 13.38C51.9373 14.94 50.7473 17.04 49.0273 19.68C48.4073 20.62 47.7173 21.23 46.9573 21.51C46.2173 21.79 45.4673 21.77 44.7073 21.45C43.9673 21.11 43.2873 20.69 42.6673 20.19C42.0673 19.67 41.4673 19.05 40.8673 18.33C40.8673 19.87 40.8773 20.9 40.8973 21.42C40.8973 21.6 40.5773 21.74 39.9373 21.84C39.2973 21.92 38.6573 21.89 38.0173 21.75C37.3773 21.59 37.0573 21.3 37.0573 20.88C37.0373 20.14 37.0273 19.02 37.0273 17.52C37.0473 16 37.0573 14.95 37.0573 14.37C37.0373 12.95 37.0273 11.71 37.0273 10.65C37.0473 9.57 37.1173 8.61 37.2373 7.77C37.3573 6.93 37.5773 6.15 37.8973 5.43C38.2173 4.71 38.6673 3.99 39.2473 3.27C40.2873 2.01 41.4373 1.38 42.6973 1.38ZM42.7873 2.97C42.4873 2.97 42.2273 3.06 42.0073 3.24C41.8273 3.42 41.6673 3.64 41.5273 3.9C41.3873 4.16 41.2773 4.41 41.1973 4.65C41.1373 4.87 41.0773 5.17 41.0173 5.55C40.9773 5.93 40.9473 6.22 40.9273 6.42C40.9073 6.62 40.8873 6.93 40.8673 7.35C40.8473 7.77 40.8373 8.03 40.8373 8.13C40.8373 8.23 40.8373 8.46 40.8373 8.82C40.8573 9.16 40.8673 9.38 40.8673 9.48C41.3673 9.12 41.9673 8.23 42.6673 6.81C43.6673 4.81 43.8673 3.58 43.2673 3.12C43.1473 3.02 42.9873 2.97 42.7873 2.97ZM40.8673 16.23C42.4073 15.99 43.6273 15.36 44.5273 14.34C45.1273 13.68 45.2773 13.21 44.9773 12.93C44.8373 12.79 44.5873 12.74 44.2273 12.78C43.8473 12.84 43.3773 13.08 42.8173 13.5C42.2573 13.92 41.7873 14.33 41.4073 14.73C41.0273 15.11 40.8473 15.31 40.8673 15.33V16.23ZM57.2415 10.74C57.8415 10.74 58.3115 10.81 58.6515 10.95C58.7115 11.57 58.7215 12.83 58.6815 14.73C58.6415 16.61 58.6815 17.57 58.8015 17.61C58.8615 17.77 58.9515 17.86 59.0715 17.88C59.1915 17.9 59.3215 17.86 59.4615 17.76C59.6015 17.66 59.7215 17.55 59.8215 17.43C59.9415 17.29 60.0415 17.16 60.1215 17.04C60.3015 16.76 60.5915 16.2 60.9915 15.36C61.3915 14.5 61.6215 14.02 61.6815 13.92C62.1415 12.96 62.5815 12.67 63.0015 13.05C63.2615 13.31 63.3415 13.59 63.2415 13.89C63.1215 14.19 62.9315 14.64 62.6715 15.24C62.4315 15.82 62.2515 16.26 62.1315 16.56C62.0915 16.66 61.9715 16.95 61.7715 17.43C61.5915 17.89 61.4515 18.22 61.3515 18.42C61.2715 18.62 61.1415 18.9 60.9615 19.26C60.7815 19.6 60.5915 19.9 60.3915 20.16C60.1915 20.4 59.9815 20.62 59.7615 20.82C59.4215 21.12 58.9815 21.33 58.4415 21.45C57.9015 21.57 57.4015 21.55 56.9415 21.39C56.1615 21.07 55.5915 20.37 55.2315 19.29C55.2115 19.21 55.1915 19.13 55.1715 19.05C55.1515 18.97 55.1315 18.89 55.1115 18.81C55.0915 18.71 55.0715 18.63 55.0515 18.57C54.5915 19.35 54.1215 19.98 53.6415 20.46C52.5615 21.44 51.5715 21.74 50.6715 21.36C50.0515 21.1 49.5915 20.66 49.2915 20.04C48.9715 19.4 48.8115 18.72 48.8115 18C48.7715 16.8 49.0015 15.6 49.5015 14.4C50.0015 13.2 50.7215 12.3 51.6615 11.7C52.1615 11.42 52.7115 11.28 53.3115 11.28C53.9115 11.26 54.4715 11.38 54.9915 11.64C55.3715 11.04 56.1215 10.74 57.2415 10.74ZM54.1515 12.66H54.0915C53.5315 12.68 53.0815 13.27 52.7415 14.43C52.3815 15.71 52.3315 16.71 52.5915 17.43C52.8315 18.09 53.3015 18 54.0015 17.16C54.0615 17.08 54.3615 16.61 54.9015 15.75V14.67C54.9215 14.35 54.9115 13.84 54.8715 13.14C54.6915 12.82 54.4515 12.66 54.1515 12.66ZM65.7894 1.41C66.4894 1.41 67.0794 1.61 67.5594 2.01C68.3794 2.69 68.7294 3.71 68.6094 5.07C68.5094 6.29 68.0494 7.81 67.2294 9.63C66.4294 11.45 65.5894 12.69 64.7094 13.35C64.7894 14.89 64.9194 16.12 65.0994 17.04C65.2394 17.78 65.4294 18.3 65.6694 18.6C65.9294 18.88 66.1894 18.96 66.4494 18.84C66.7094 18.7 66.9594 18.47 67.1994 18.15C67.4394 17.81 67.6494 17.4 67.8294 16.92C67.6094 16.9 67.3894 16.84 67.1694 16.74C66.2294 16.26 65.7894 15.47 65.8494 14.37C65.8894 13.81 66.1494 13.28 66.6294 12.78C67.1294 12.28 67.6694 12.06 68.2494 12.12C69.6894 12.26 70.2494 13.3 69.9294 15.24C70.7094 15.12 71.8194 14.4 73.2594 13.08C73.4594 12.9 73.6394 12.83 73.7994 12.87C73.9794 12.89 74.1094 12.97 74.1894 13.11C74.2894 13.23 74.3094 13.35 74.2494 13.47C73.9294 14.13 73.3494 14.83 72.5094 15.57C71.6894 16.29 70.7294 16.74 69.6294 16.92C69.3494 18.2 68.8194 19.34 68.0394 20.34C67.2594 21.32 66.2394 21.77 64.9794 21.69C63.8194 21.61 62.8694 20.92 62.1294 19.62C61.2294 17.98 60.7994 15.8 60.8394 13.08C60.8994 8.12 61.6294 4.7 63.0294 2.82C63.7294 1.88 64.6494 1.41 65.7894 1.41ZM66.3294 3.6C65.7494 3.6 65.3694 3.86 65.1894 4.38C64.8494 5.34 64.6794 7.59 64.6794 11.13C65.3194 10.43 65.9394 9.25 66.5394 7.59C67.1394 5.91 67.2794 4.73 66.9594 4.05C66.8194 3.75 66.6094 3.6 66.3294 3.6ZM67.9194 14.04C67.6594 14.04 67.5594 14.23 67.6194 14.61C67.6794 14.97 67.8894 15.2 68.2494 15.3C68.2694 15.14 68.2794 14.89 68.2794 14.55C68.2794 14.21 68.1594 14.04 67.9194 14.04ZM75.6226 11.49C77.5426 8.29 78.2926 5.92 77.8726 4.38C77.5926 3.3 77.1826 3.22 76.6426 4.14C76.1826 4.96 75.9026 5.88 75.8026 6.9C75.7226 7.76 75.6626 9.29 75.6226 11.49ZM75.6526 14.31C75.6926 15.75 75.7526 16.74 75.8326 17.28C76.0726 18.96 77.0426 18.93 78.7426 17.19C79.9026 15.99 80.8726 14.67 81.6526 13.23C81.8326 12.91 82.0526 12.74 82.3126 12.72C82.5926 12.7 82.8026 12.8 82.9426 13.02C83.1026 13.24 83.1326 13.48 83.0326 13.74C82.6326 14.66 82.1826 15.55 81.6826 16.41C81.2026 17.25 80.6126 18.13 79.9126 19.05C79.2326 19.97 78.4726 20.68 77.6326 21.18C76.8126 21.68 75.9926 21.87 75.1726 21.75C72.9926 21.43 71.7826 19.81 71.5426 16.89C70.9626 9.81 71.6526 5.08 73.6126 2.7C74.1526 2.04 74.8726 1.63 75.7726 1.47C76.6726 1.31 77.5026 1.46 78.2626 1.92C79.0226 2.38 79.4626 3.08 79.5826 4.02C79.8026 5.68 79.4726 7.56 78.5926 9.66C77.7326 11.76 76.7526 13.31 75.6526 14.31ZM84.7067 10.77C86.3667 10.79 87.3567 11.23 87.6767 12.09C87.9967 12.93 87.6267 13.97 86.5667 15.21C86.3067 15.53 85.8867 16.01 85.3067 16.65C84.7467 17.27 84.3667 17.7 84.1667 17.94C84.6067 18.34 85.0667 18.52 85.5467 18.48C86.0467 18.44 86.5167 18.26 86.9567 17.94C87.7367 17.38 88.6167 16.61 89.5967 15.63C90.5967 14.63 91.3467 13.8 91.8467 13.14C92.0867 12.88 92.3267 12.76 92.5667 12.78C92.8267 12.78 93.0367 12.89 93.1967 13.11C93.3567 13.33 93.3867 13.54 93.2867 13.74C92.7267 14.82 91.9067 16.01 90.8267 17.31C89.7667 18.59 88.7867 19.56 87.8867 20.22C87.0467 20.84 86.1467 21.25 85.1867 21.45C84.2467 21.65 83.2967 21.56 82.3367 21.18C81.4767 20.74 80.8367 20 80.4167 18.96C79.9967 17.9 79.8067 16.78 79.8467 15.6C79.8667 14.32 80.3567 13.19 81.3167 12.21C82.2767 11.23 83.4067 10.75 84.7067 10.77ZM86.0867 12.66C85.9267 12.44 85.6467 12.35 85.2467 12.39C84.8667 12.41 84.5467 12.55 84.2867 12.81C83.3267 13.75 83.0867 14.75 83.5667 15.81C83.7467 15.61 84.1267 15.24 84.7067 14.7C85.3067 14.14 85.7167 13.71 85.9367 13.41C86.1767 13.09 86.2267 12.84 86.0867 12.66Z" fill="#0A0A0A"/>
</svg>
