<svg xmlns="http://www.w3.org/2000/svg" xmlns:xlink="http://www.w3.org/1999/xlink" width="71.6" height="65" viewBox="0 0 71.6 65">
  <defs>
    <clipPath id="clip-path">
      <rect id="Rectangle_28" data-name="Rectangle 28" width="65" height="65" transform="translate(644 416)" fill="#fff"/>
    </clipPath>
    <clipPath id="clip-path-2">
      <rect id="Rectangle_27" data-name="Rectangle 27" width="54" height="54" transform="translate(643 428)" fill="#fff"/>
    </clipPath>
  </defs>
  <g id="Group_17" data-name="Group 17" transform="translate(-845.4 -460)">
    <g id="Group_13" data-name="Group 13" transform="translate(208 44)" clip-path="url(#clip-path)">
      <g id="Group_16" data-name="Group 16">
        <g id="Group_15" data-name="Group 15">
          <g id="Group_14" data-name="Group 14">
            <ellipse id="Ellipse_8" data-name="Ellipse 8" cx="26.82" cy="4.356" rx="26.82" ry="4.356" transform="translate(644.503 463.999) rotate(3.285)" fill="#f8c0d7"/>
            <g id="Group_12" data-name="Group 12" clip-path="url(#clip-path-2)">
              <circle id="Ellipse_9" data-name="Ellipse 9" cx="2" cy="2" r="2" transform="translate(659 464)"/>
              <circle id="Ellipse_10" data-name="Ellipse 10" cx="2" cy="2" r="2" transform="translate(686 464)"/>
              <line id="Line_16" data-name="Line 16" x2="7" transform="translate(641 458.5)" fill="none" stroke="#f8c0d7" stroke-width="1"/>
              <path id="Path_106" data-name="Path 106" d="M680.211,443.188a1.5,1.5,0,0,1,1.5,1.5v19.951a1.5,1.5,0,0,1-1.5,1.5H666.817a2.034,2.034,0,0,1-1.735-1.361,4.084,4.084,0,0,0-7.495,0,2.032,2.032,0,0,1-1.734,1.361h-1.228a1.5,1.5,0,0,1-1.5-1.5V444.687a1.5,1.5,0,0,1,1.5-1.5Z" fill="none" stroke="#0a0a0a" stroke-linecap="round" stroke-linejoin="round" stroke-width="1.2"/>
              <path id="Path_107" data-name="Path 107" d="M694.743,457.455a2,2,0,0,1,.57,1.4v5.883a1.4,1.4,0,0,1-1.4,1.4h0a1.861,1.861,0,0,1-1.608-1.277,4.083,4.083,0,0,0-7.562-.007,1.875,1.875,0,0,1-1.619,1.284h0a1.411,1.411,0,0,1-1.411-1.411v-12.79a2,2,0,0,1,2-2h2.845a2,2,0,0,1,1.431.6Z" fill="none" stroke="#0a0a0a" stroke-linecap="round" stroke-linejoin="round" stroke-width="1.2"/>
              <path id="Path_108" data-name="Path 108" d="M694.313,458.037a1,1,0,0,1,1,1v6.1a1,1,0,0,1-1,1h-.78a1.215,1.215,0,0,1-1.1-.92,4.083,4.083,0,0,0-7.817,0,1.215,1.215,0,0,1-1.1.92h-.8a1,1,0,0,1-1-1v-6.1a1,1,0,0,1,1-1Z" fill="none" stroke="#0a0a0a" stroke-linecap="round" stroke-linejoin="round" stroke-width="1.2"/>
              <path id="Path_109" data-name="Path 109" d="M661.326,470.188a4.05,4.05,0,1,0-4.083-4.05A4.067,4.067,0,0,0,661.326,470.188Z" fill="none" stroke="#0a0a0a" stroke-linecap="round" stroke-linejoin="round" stroke-width="1.2"/>
              <path id="Path_110" data-name="Path 110" d="M688.512,470.188a4.05,4.05,0,1,0-4.084-4.05A4.068,4.068,0,0,0,688.512,470.188Z" fill="none" stroke="#0a0a0a" stroke-linecap="round" stroke-linejoin="round" stroke-width="1.2"/>
              <path id="Path_111" data-name="Path 111" d="M644.688,456.688h4.4" fill="none" stroke="#0a0a0a" stroke-linecap="round" stroke-linejoin="round" stroke-width="1.2"/>
              <line id="Line_17" data-name="Line 17" x2="7" transform="translate(642 448.5)" fill="none" stroke="#f8c0d7" stroke-width="1"/>
              <path id="Path_112" data-name="Path 112" d="M645,447h4" fill="none" stroke="#0a0a0a" stroke-linecap="round" stroke-linejoin="round" stroke-width="1.2"/>
              <path id="Path_113" data-name="Path 113" d="M682,452h7" fill="none" stroke="#0a0a0a" stroke-linecap="round" stroke-linejoin="round" stroke-width="1.2"/>
              <path id="Path_114" data-name="Path 114" d="M672.333,450,665,457.333,661.667,454" fill="none" stroke="#f8c0d7" stroke-linecap="round" stroke-linejoin="round" stroke-width="1.2"/>
              <path id="Path_115" data-name="Path 115" d="M674,450l-7.562,7L663,453.818" fill="none" stroke="#000" stroke-linecap="round" stroke-linejoin="round" stroke-width="1.2"/>
              <path id="Path_116" data-name="Path 116" d="M668,463h11" fill="none" stroke="#0a0a0a" stroke-linecap="round" stroke-linejoin="round" stroke-width="1.2"/>
            </g>
            <path id="Path_117" data-name="Path 117" d="M708,439.8c0,5.442-6,12.4-6,12.4s-6-6.829-6-12.4a6,6,0,1,1,12,0Z" fill="none" stroke="#000" stroke-linejoin="round" stroke-miterlimit="10" stroke-width="1.2"/>
          </g>
          <path id="Path_118" data-name="Path 118" d="M702,442.6a2.4,2.4,0,1,0-2.4-2.4A2.4,2.4,0,0,0,702,442.6Z" fill="none" stroke="#000" stroke-linejoin="round" stroke-miterlimit="10" stroke-width="1.2"/>
        </g>
      </g>
    </g>
    <path id="Path_119" data-name="Path 119" d="M638,451.727h11" transform="translate(208 44)" fill="none" stroke="#0a0a0a" stroke-linecap="round" stroke-linejoin="round" stroke-width="1.2"/>
  </g>
</svg>
