<svg width="67" height="35" viewBox="0 0 67 35" fill="none" xmlns="http://www.w3.org/2000/svg">
<circle cx="37" cy="13" r="10" fill="#F499C1"/>
<path d="M3.57324 16.2285H14.2066" stroke="#0C0C0C" stroke-width="1.2" stroke-linecap="round" stroke-linejoin="round"/>
<path d="M52.2456 31.6963C53.1136 31.6963 53.8172 30.898 53.8172 29.9133C53.8172 28.9286 53.1136 28.1304 52.2456 28.1304C51.3777 28.1304 50.6741 28.9286 50.6741 29.9133C50.6741 30.898 51.3777 31.6963 52.2456 31.6963Z" fill="#010101"/>
<path d="M25.8784 31.6963C26.7464 31.6963 27.45 30.898 27.45 29.9133C27.45 28.9286 26.7464 28.1304 25.8784 28.1304C25.0105 28.1304 24.3069 28.9286 24.3069 29.9133C24.3069 30.898 25.0105 31.6963 25.8784 31.6963Z" fill="#010101"/>
<path d="M6.46851 22.7998H13.2419" stroke="#F499C1" stroke-linecap="round"/>
<path d="M43.515 7.70898C44.6914 7.70898 45.6472 8.66479 45.6472 9.84116V27.7533C45.6472 28.9297 44.6914 29.8855 43.515 29.8855H31.6961C30.7771 29.8855 29.9316 29.3616 29.5547 28.5253C29.3434 28.0566 29.0401 27.6247 28.6541 27.257C27.9188 26.5678 26.9539 26.1909 25.9521 26.1909C24.9503 26.1909 23.9853 26.5769 23.2501 27.257C22.8641 27.6155 22.5608 28.0474 22.3494 28.5253C21.9726 29.3616 21.1271 29.8855 20.2081 29.8855H20.1621C18.9766 29.8855 18.0208 28.9297 18.0208 27.7533V9.84116C18.0208 8.66479 18.9766 7.70898 20.1529 7.70898H43.515Z" stroke="#0C0C0C" stroke-width="1.2" stroke-linecap="round" stroke-linejoin="round"/>
<path d="M54.2678 17.4326C57.172 20.4011 58.7895 24.3897 58.7895 28.5346C58.7895 29.279 58.183 29.8856 57.4385 29.8856C56.7217 29.8856 56.1519 29.3158 55.8854 28.6541C55.674 28.1302 55.3523 27.6523 54.9296 27.2571C54.1943 26.5678 53.2293 26.191 52.2276 26.191C51.2258 26.191 50.2608 26.577 49.5256 27.2571C49.112 27.6523 48.7812 28.121 48.5698 28.6449C48.2941 29.3066 47.7243 29.8856 47.0074 29.8856C46.2538 29.8856 45.6472 29.279 45.6472 28.5254V16.0632C45.6472 15.0522 46.4744 14.2251 47.4853 14.2251H50.3711C50.8674 14.2251 51.3361 14.4273 51.6853 14.7765L54.2678 17.4234V17.4326Z" stroke="#0C0C0C" stroke-width="1.2" stroke-linecap="round" stroke-linejoin="round"/>
<path d="M52.6687 22.0645C56.0508 22.0645 58.7895 24.8032 58.7895 28.1853V28.9757C58.7895 29.4811 58.376 29.8947 57.8705 29.8947H57.025C56.5471 29.8947 56.1519 29.5638 56.0324 29.1043C55.8394 28.4059 55.4626 27.7717 54.9296 27.2754C54.1943 26.5861 53.2293 26.2093 52.2276 26.2093C51.2258 26.2093 50.2608 26.5953 49.5256 27.2754C48.9925 27.7717 48.6157 28.415 48.4227 29.1043C48.2941 29.5638 47.9081 29.8947 47.4302 29.8947H46.6765C46.0608 29.8947 45.6472 29.4811 45.6472 28.9757V22.9835C45.6472 22.478 46.0608 22.0645 46.5663 22.0645H52.6687V22.0645Z" stroke="#0C0C0C" stroke-width="1.2" stroke-linecap="round" stroke-linejoin="round"/>
<path d="M25.9426 33.8102C28.1207 33.8102 29.8945 32.0549 29.8945 29.8951C29.8945 27.7354 28.1299 25.98 25.9426 25.98C23.7553 25.98 21.9907 27.7354 21.9907 29.8951C21.9907 32.0549 23.7553 33.8102 25.9426 33.8102Z" stroke="#0C0C0C" stroke-width="1.2" stroke-linecap="round" stroke-linejoin="round"/>
<path d="M52.2185 33.8102C54.3966 33.8102 56.1704 32.0549 56.1704 29.8951C56.1704 27.7354 54.4058 25.98 52.2185 25.98C50.0312 25.98 48.2666 27.7354 48.2666 29.8951C48.2666 32.0549 50.0312 33.8102 52.2185 33.8102Z" stroke="#0C0C0C" stroke-width="1.2" stroke-linecap="round" stroke-linejoin="round"/>
<path d="M10.0342 21.0259H14.2893" stroke="#0C0C0C" stroke-width="1.2" stroke-linecap="round" stroke-linejoin="round"/>
<path d="M7.43335 13.1313H14.2067" stroke="#F499C1" stroke-width="1.2" stroke-linecap="round"/>
<path d="M1 18.1587H13.4438" stroke="#F499C1" stroke-width="1.2" stroke-linecap="round"/>
<path d="M10.3376 11.6611H14.2068" stroke="#0C0C0C" stroke-width="1.2" stroke-linecap="round" stroke-linejoin="round"/>
<path d="M38.1936 14.2896L30.8872 21.0537L27.5603 17.9749" stroke="#010101" stroke-width="1.2" stroke-linecap="round" stroke-linejoin="round"/>
<path d="M32.3948 26.8618H43.0281" stroke="#0C0C0C" stroke-width="1.2" stroke-linecap="round" stroke-linejoin="round"/>
<path d="M61.5095 7.84673C62.4102 7.84673 63.1362 6.95526 63.1362 5.8616C63.1362 4.76794 62.4102 3.87646 61.5095 3.87646C60.6089 3.87646 59.8828 4.76794 59.8828 5.8616C59.8828 6.95526 60.6089 7.84673 61.5095 7.84673Z" stroke="#010101" stroke-width="1.2" stroke-linejoin="round"/>
<path d="M65.6547 5.23679C65.6547 9.07839 61.4547 13.9861 61.4547 13.9861C61.4547 13.9861 57.2546 9.17029 57.2546 5.23679C57.2546 2.90242 59.1387 1 61.4547 1C63.7707 1 65.6547 2.89323 65.6547 5.23679V5.23679Z" stroke="#010101" stroke-width="1.2" stroke-linejoin="round"/>
</svg>
