<svg xmlns="http://www.w3.org/2000/svg" width="31" height="31" viewBox="0 0 31 31">
  <g id="Group_15" data-name="Group 15" transform="translate(75 -1267)">
    <path id="Path_21" data-name="Path 21" d="M318.5,1884.02c7.44,0,13.485,5.5,13.485,12.27s-6.045,12.27-13.485,12.27a14.8,14.8,0,0,1-3.63-.45l-.738-.18-.676.34-2.79,1.44v-3.39l-.793-.62a11.792,11.792,0,0,1-4.858-9.41C305.015,1889.52,311.06,1884.02,318.5,1884.02Zm0-2.02c-8.559,0-15.5,6.4-15.5,14.29a13.845,13.845,0,0,0,5.639,11.02V1913l5.735-2.94a16.881,16.881,0,0,0,4.126.52c8.559,0,15.5-6.4,15.5-14.29S327.059,1882,318.5,1882Z" transform="translate(-378 -615)" fill="#6b002c"/>
    <path id="Path_22" data-name="Path 22" d="M309,1900.66l7.887-8.66,4.006,4.13,7.107-3.98-7.918,8.85-3.885-4.35Z" transform="translate(-378 -615)" fill="#6b002c"/>
  </g>
</svg>
