<svg xmlns="http://www.w3.org/2000/svg" width="26.275" height="23.087" viewBox="0 0 26.275 23.087">
  <path id="Path_44" data-name="Path 44" d="M35.076,12.169l.523.295a.6.6,0,0,0-.56-.893ZM22.742,34.056l-.585.133a.6.6,0,0,0,1.108.161ZM19.917,21.666l.585-.133a.6.6,0,0,0-.21-.335ZM10,13.718l-.037-.6a.6.6,0,0,0-.338,1.067Zm24.181-.292a.6.6,0,1,0-.634-1.019ZM19.62,21.082a.6.6,0,1,0,.634,1.019Zm14.933-9.207L22.219,33.762l1.045.589L35.6,12.464ZM23.327,33.923,20.5,21.532l-1.17.267L22.157,34.19ZM20.292,21.2,10.376,13.25l-.75.936,9.916,7.948ZM10.038,14.316l25.075-1.548-.074-1.2L9.964,13.119Zm23.51-1.909L19.62,21.082l.634,1.019,13.928-8.675Z" transform="translate(-9.4 -11.569)"/>
</svg>
