<svg xmlns="http://www.w3.org/2000/svg" width="15" height="15.13" viewBox="0 0 15 15.13">
  <path id="Path_58" data-name="Path 58" d="M114.636,1800.49l-4.534-1.29a7.715,7.715,0,0,1-1.6.14c-4.33,0-7.5-2.94-7.5-6.99a6.73,6.73,0,0,1,1.909-4.83,7.873,7.873,0,0,1,5.591-2.16c4.33,0,7.5,2.93,7.5,6.99a6.772,6.772,0,0,1-1.364,4.12Zm-4.534-1.99,3.853,1.08v-3.32l.068-.1a6.125,6.125,0,0,0,1.295-3.81c0-3.64-2.863-6.29-6.818-6.29a7.162,7.162,0,0,0-5.114,1.95,6.088,6.088,0,0,0-1.7,4.34c0,3.63,2.863,6.29,6.818,6.29a6.851,6.851,0,0,0,1.534-.14Z" transform="translate(-101 -1785.36)"/>
</svg>
