<svg width="30" height="34" viewBox="0 0 30 34" fill="none" xmlns="http://www.w3.org/2000/svg">
<path d="M9.7368 6.45361H1.74488C1.57862 6.45361 1.42343 6.55337 1.34584 6.73073C1.26825 6.89699 1.27933 7.09651 1.37909 7.26278L1.47885 7.41796C1.88898 8.09412 2.57622 8.50424 3.3078 8.50424H4.72661V27.5474L5.22541 33.2781V33.3002C5.26975 33.5995 5.49144 33.8101 5.75747 33.8101C6.0235 33.8101 6.24518 33.5995 6.27844 33.3002L6.77724 27.5696V8.49316H8.20714C9.01631 8.49316 9.75897 8.00544 10.1469 7.21844C10.2245 7.06326 10.2245 6.86374 10.1469 6.70856C10.0693 6.55337 9.91415 6.45361 9.75897 6.45361H9.7368ZM5.48036 12.805H6.00133V13.9467H5.48036V12.805ZM5.48036 11.9404V10.7987H6.00133V11.9404H5.48036ZM5.7353 30.4737L5.48036 27.5031V14.8113H6.00133V27.5031L5.74638 30.4737H5.7353ZM5.99024 9.93414H5.46927V8.49316H5.99024V9.93414ZM8.18497 7.62857H3.29671C2.98635 7.62857 2.68706 7.51772 2.43212 7.30712H9.04956C8.8057 7.50664 8.50642 7.62857 8.18497 7.62857Z" fill="#010101"/>
<path d="M19.8903 1.99756H11.322C11.1446 1.99756 10.9784 2.09732 10.8897 2.27467C10.801 2.44094 10.8121 2.64046 10.9229 2.80673L11.0227 2.96191C11.4661 3.63806 12.1977 4.04819 12.9847 4.04819H14.5032V23.0913L15.0353 28.822V28.8442C15.0796 29.1435 15.3124 29.3541 15.6006 29.3541C15.8888 29.3541 16.1216 29.1435 16.1659 28.8442L16.698 23.1135V4.0371H18.2276C19.0922 4.0371 19.8903 3.54939 20.3115 2.76239C20.4002 2.60721 20.3891 2.40768 20.3115 2.2525C20.2228 2.09732 20.0676 1.99756 19.8903 1.99756ZM15.3235 8.34897H15.8777V9.49067H15.3235V8.34897ZM15.3235 7.48438V6.34268H15.8777V7.48438H15.3235ZM15.6006 26.0176L15.3235 23.047V10.3553H15.8777V23.047L15.6006 26.0176ZM15.8777 5.47809H15.3235V4.0371H15.8777V5.47809ZM18.2276 3.17251H12.9847C12.6521 3.17251 12.3307 3.06167 12.0646 2.85106H19.1587C18.8927 3.05059 18.5712 3.17251 18.2387 3.17251H18.2276Z" fill="#010101"/>
<path d="M28.8244 5.17871H20.8325C20.6663 5.17871 20.5111 5.27847 20.4335 5.45582C20.3559 5.62209 20.367 5.82161 20.4667 5.98788L20.5665 6.14306C20.9766 6.81922 21.6639 7.22934 22.3954 7.22934H23.8143V26.2725L24.3131 32.0032V32.0253C24.3574 32.3246 24.5791 32.5352 24.8451 32.5352C25.1111 32.5352 25.3328 32.3246 25.3661 32.0253L25.8649 26.2947V7.21826H27.2948C28.104 7.21826 28.8466 6.73054 29.2346 5.94354C29.3122 5.78836 29.3122 5.58884 29.2346 5.43365C29.157 5.27847 29.0018 5.17871 28.8466 5.17871H28.8244ZM24.568 11.5301H25.089V12.6718H24.568V11.5301ZM24.568 10.6655V9.52383H25.089V10.6655H24.568ZM24.8229 29.1988L24.568 26.2282V13.5364H25.089V26.2282L24.834 29.1988H24.8229ZM25.0779 8.65924H24.5569V7.21826H25.0779V8.65924ZM27.2726 6.35367H22.3733C22.0629 6.35367 21.7636 6.24282 21.5087 6.03222H28.1261C27.8823 6.23174 27.583 6.35367 27.2615 6.35367H27.2726Z" fill="#010101"/>
<path d="M0.581055 29.6867L27.7935 1" stroke="#010101" stroke-linecap="round"/>
</svg>
