<svg xmlns="http://www.w3.org/2000/svg" width="53" height="53" viewBox="0 0 53 53">
  <g id="Group_19" data-name="Group 19" transform="translate(-731 -636)">
    <path id="Path_96" data-name="Path 96" d="M549.5,593a1.038,1.038,0,1,0,0,2.076,23.407,23.407,0,1,1-10.766,2.614,1.037,1.037,0,1,0-.955-1.842A25.508,25.508,0,1,0,549.5,593Z" transform="translate(208 44)" fill="#f8c0d7" stroke="#f8c0d7" stroke-width="2"/>
    <path id="Path_97" data-name="Path 97" d="M560.59,602.866a16.722,16.722,0,0,0-10.262-3.483,17.059,17.059,0,0,0,0,34.117,16.782,16.782,0,0,0,11.983-5,1.077,1.077,0,0,0,0-1.516,1.06,1.06,0,0,0-1.507,0,14.673,14.673,0,0,1-10.476,4.368,14.914,14.914,0,1,1,14.228-19.083,1.066,1.066,0,1,0,2.047-.6A17.191,17.191,0,0,0,560.59,602.866Z" transform="translate(208 44)" fill="#f8c0d7"/>
    <path id="Path_98" data-name="Path 98" d="M560.739,612.858h0a.942.942,0,0,1,1.331,0h0l3.179,3.18.071.07.071-.07,3.179-3.18h0a.941.941,0,0,1,1.331,1.331l-3.916,3.915a.939.939,0,0,1-1.33,0l-3.916-3.915h0A.942.942,0,0,1,560.739,612.858Z" transform="translate(208 44)" fill="#f8c0d7" stroke="#fff" stroke-width="0.2"/>
    <path id="Path_99" data-name="Path 99" d="M539.538,597.086h0a23.7,23.7,0,1,0,10.889-2.644.841.841,0,0,1,0-1.682,25.358,25.358,0,1,1-11.663,2.833h0a.841.841,0,0,1,.774,1.493Z" transform="translate(208 44)" stroke="#fff" stroke-width="0.4"/>
    <path id="Path_100" data-name="Path 100" d="M560.731,628.438h0a.941.941,0,0,1,1.331,1.331,16.455,16.455,0,1,1-1.671-24.73l.061-.08-.061.08a16.573,16.573,0,0,1,5.838,8.495l.1-.028-.1.028a.941.941,0,0,1-1.807.526h0a14.574,14.574,0,1,0-13.995,18.647A14.475,14.475,0,0,0,560.731,628.438Z" transform="translate(208 44)" fill="#1f1f1f" stroke="#fff" stroke-width="0.2"/>
    <path id="Path_101" data-name="Path 101" d="M561.23,615.054h0a.941.941,0,0,1,1.33,0h0l3.179,3.18.071.07.071-.07,3.179-3.18h0a.941.941,0,0,1,1.331,1.331l-3.916,3.915a.939.939,0,0,1-1.33,0l-3.915-3.915h0A.94.94,0,0,1,561.23,615.054Z" transform="translate(208 44)" fill="#1f1f1f" stroke="#fff" stroke-width="0.2"/>
  </g>
</svg>
