<svg xmlns="http://www.w3.org/2000/svg" xmlns:xlink="http://www.w3.org/1999/xlink" width="59.966" height="53.017" viewBox="0 0 59.966 53.017">
  <defs>
    <clipPath id="clip-path">
      <rect id="Rectangle_25" data-name="Rectangle 25" width="51" height="50" transform="translate(849 591.738)" fill="#fff"/>
    </clipPath>
  </defs>
  <g id="Group_20" data-name="Group 20" transform="translate(-1052.034 -635.738)">
    <path id="Path_77" data-name="Path 77" d="M874.051,644.706c-16.56.267-30-.592-30.017-1.92s13.39-2.62,29.949-2.887,30,.592,30.017,1.919S890.61,644.439,874.051,644.706Z" transform="translate(208 44)" fill="#f8c0d7"/>
    <g id="Group_11" data-name="Group 11" transform="translate(208 44)" clip-path="url(#clip-path)">
      <path id="Path_81" data-name="Path 81" d="M861.882,633.32c-2.282-1.322-1.226-8.768,2.359-16.631s8.342-13.165,10.624-11.842,1.226,8.768-2.36,16.631S864.164,634.643,861.882,633.32Z" fill="#f8c0d7"/>
      <path id="Path_82" data-name="Path 82" d="M887.662,633.437c-2.236,1.419-7.215-3.773-11.121-11.6s-5.259-15.315-3.023-16.734,7.215,3.774,11.121,11.6S889.9,632.019,887.662,633.437Z" fill="#f8c0d7"/>
      <path id="Path_83" data-name="Path 83" d="M880.951,613.405H896.6v25.833a1.689,1.689,0,0,1-1.7,1.667H854.1a1.689,1.689,0,0,1-1.7-1.667V613.405h15.64" fill="none" stroke="#000" stroke-linecap="round" stroke-linejoin="round" stroke-width="1.2"/>
      <path id="Path_84" data-name="Path 84" d="M868.04,613.405H851.55a1.689,1.689,0,0,1-1.7-1.667v-5a1.688,1.688,0,0,1,1.7-1.666h45.9a1.688,1.688,0,0,1,1.7,1.666v5a1.689,1.689,0,0,1-1.7,1.667h-16.5" fill="none" stroke="#000" stroke-linecap="round" stroke-linejoin="round" stroke-width="1.2"/>
      <path id="Path_85" data-name="Path 85" d="M869.4,605.072h10.2" fill="none" stroke="#000" stroke-linecap="round" stroke-linejoin="round" stroke-width="1"/>
      <path id="Path_86" data-name="Path 86" d="M878.75,623.238v17.667h-8.5V623.238" fill="none" stroke="#000" stroke-linecap="round" stroke-linejoin="round" stroke-width="1.2"/>
      <path id="Path_87" data-name="Path 87" d="M874.5,605.072s-5.1-13.35-13.6-12.459c-7.939.834-6.239,11.734,4.395,12.459" fill="none" stroke="#000" stroke-linecap="round" stroke-linejoin="round" stroke-width="1.2"/>
      <path id="Path_88" data-name="Path 88" d="M871.95,605.071a40.844,40.844,0,0,0-3.185-4.924c-1.573-2.07-3.7-5.02-6.669-4.97a3.57,3.57,0,0,0-1.554.356,2.76,2.76,0,0,0-1.509,2.24,4.117,4.117,0,0,0,1.269,2.849c2.124,2.323,5.278,3.554,8.248,4.449" fill="none" stroke="#000" stroke-linecap="round" stroke-linejoin="round" stroke-width="1.2"/>
      <path id="Path_89" data-name="Path 89" d="M883.706,605.072c10.633-.725,12.333-11.625,4.394-12.459-8.5-.891-13.6,12.459-13.6,12.459" fill="none" stroke="#000" stroke-linecap="round" stroke-linejoin="round" stroke-width="1.2"/>
      <path id="Path_90" data-name="Path 90" d="M880.45,605.072c2.97-.9,6.125-2.127,8.249-4.45a4.126,4.126,0,0,0,1.269-2.849,2.759,2.759,0,0,0-1.51-2.24,3.566,3.566,0,0,0-1.554-.356c-2.968-.05-5.1,2.9-6.669,4.97a40.983,40.983,0,0,0-3.185,4.925" fill="none" stroke="#000" stroke-linecap="round" stroke-linejoin="round" stroke-width="1.2"/>
      <path id="Path_91" data-name="Path 91" d="M871.1,605.072a29.557,29.557,0,0,1-3.06,8.333c-2.057,3.692-5.364,7.408-10.54,8.333l5.95,1.667-2.55,5s4.624.975,9.35-5.167a31.442,31.442,0,0,0,4.25-7.933" fill="none" stroke="#000" stroke-linecap="round" stroke-linejoin="round" stroke-width="1.2"/>
      <path id="Path_92" data-name="Path 92" d="M877.9,605.072a29.338,29.338,0,0,0,1.7,5.533,27.833,27.833,0,0,0,1.351,2.8c2.057,3.692,5.372,7.408,10.549,8.333l-5.95,1.667,2.55,5s-4.624.975-9.35-5.167a31.442,31.442,0,0,1-4.25-7.933q-.357-.912-.689-1.9a69.548,69.548,0,0,1-2.227-8.333" fill="none" stroke="#000" stroke-linecap="round" stroke-linejoin="round" stroke-width="1.2"/>
    </g>
  </g>
</svg>
