<svg xmlns="http://www.w3.org/2000/svg" width="59.445" height="61.66" viewBox="0 0 59.445 61.66">
  <g id="Group_21" data-name="Group 21" transform="translate(-1373.277 -629.312)">
    <path id="Path_78" data-name="Path 78" d="M1178.04,623.983c.02-12.7.46-22.986.97-22.985s.9,10.294.88,22.989-.47,22.986-.98,22.985S1178.01,636.678,1178.04,623.983Z" transform="translate(208 44)" fill="#f8c0d7"/>
    <path id="Path_79" data-name="Path 79" d="M1193.44,617.546c.03-12.7.47-22.985.98-22.984s.9,10.294.87,22.989-.46,22.986-.97,22.985S1193.41,630.242,1193.44,617.546Z" transform="translate(208 44)" fill="#f8c0d7"/>
    <path id="Path_80" data-name="Path 80" d="M1207.99,623.144c.03-12.7.47-22.986.98-22.984s.9,10.294.87,22.989-.46,22.986-.97,22.984S1207.96,635.839,1207.99,623.144Z" transform="translate(208 44)" fill="#f8c0d7"/>
    <path id="Path_93" data-name="Path 93" d="M1188.28,601.738h-12.56a.72.72,0,0,0-.64.43.9.9,0,0,0,.05.828l.15.248a3.4,3.4,0,0,0,2.88,1.7h2.22v29.947l.79,9.014v.029a.83.83,0,0,0,1.66,0l.78-9.01.01-29.98h2.24a3.463,3.463,0,0,0,3.05-2.012.9.9,0,0,0-.01-.8A.706.706,0,0,0,1188.28,601.738Zm-6.69,9.985h.82v1.8h-.82Zm0-1.354v-1.8h.82v1.8ZM1182,639.5l-.41-4.677V614.876h.82v19.949Zm.41-32.286h-.82v-2.272h.82Zm3.45-3.627h-7.7a2.108,2.108,0,0,1-1.35-.5h10.4A2.134,2.134,0,0,1,1185.86,603.589Z" transform="translate(208 44)"/>
    <path id="Path_94" data-name="Path 94" d="M1204.23,594.738h-13.46a.755.755,0,0,0-.68.43.819.819,0,0,0,.05.828l.16.248a3.7,3.7,0,0,0,3.08,1.7h2.39v29.947l.84,9.014v.029a.895.895,0,0,0,1.78,0l.84-9.01v-29.98h2.4a3.718,3.718,0,0,0,3.27-2.012.811.811,0,0,0-.01-.8A.755.755,0,0,0,1204.23,594.738Zm-7.17,9.985h.88v1.8h-.88Zm0-1.354v-1.8h.88v1.8Zm.44,29.133-.44-4.677V607.876h.88v19.949Zm.44-32.286h-.88v-2.272h.88Zm3.69-3.627h-8.25a2.406,2.406,0,0,1-1.45-.5h11.15A2.369,2.369,0,0,1,1201.63,596.589Z" transform="translate(208 44)"/>
    <path id="Path_95" data-name="Path 95" d="M1218.28,599.738h-12.56a.72.72,0,0,0-.64.43.9.9,0,0,0,.05.828l.15.248a3.4,3.4,0,0,0,2.88,1.7h2.22v29.947l.79,9.014v.029a.83.83,0,0,0,1.66,0l.78-9.01.01-29.98h2.24a3.463,3.463,0,0,0,3.05-2.012.9.9,0,0,0-.01-.8A.706.706,0,0,0,1218.28,599.738Zm-6.69,9.985h.82v1.8h-.82Zm0-1.354v-1.8h.82v1.8ZM1212,637.5l-.41-4.677V612.876h.82v19.949Zm.41-32.286h-.82v-2.272h.82Zm3.45-3.627h-7.7a2.108,2.108,0,0,1-1.35-.5h10.4A2.134,2.134,0,0,1,1215.86,601.589Z" transform="translate(208 44)"/>
    <line id="Line_14" data-name="Line 14" x2="57.14" y2="60.233" transform="translate(1375.22 629.656)" fill="none" stroke="#000" stroke-width="1"/>
    <line id="Line_15" data-name="Line 15" y1="60.235" x2="57.14" transform="translate(1373.64 629.656)" fill="none" stroke="#000" stroke-width="1"/>
  </g>
</svg>
