<svg xmlns="http://www.w3.org/2000/svg" width="46.494" height="29.71" viewBox="0 0 46.494 29.71">
  <g id="Group_15" data-name="Group 15" transform="translate(-663 -1970.1)">
    <path id="Path_122" data-name="Path 122" d="M37.325,2226.6H78.007a3,3,0,0,1,2.258.74,3.2,3.2,0,0,1,.729,2.32v22.58a3.207,3.207,0,0,1-.729,2.33,3.037,3.037,0,0,1-2.258.74H38.487a3.037,3.037,0,0,1-2.258-.74,3.207,3.207,0,0,1-.729-2.33v-23.77a1.906,1.906,0,0,1,.584-1.28A1.792,1.792,0,0,1,37.325,2226.6Z" transform="translate(628 -256)" fill="#fff" stroke="#e3e3e3" stroke-width="1"/>
    <path id="Path_130" data-name="Path 130" d="M63.583,2233.97c-.778-.91-2.222-1.36-4.221-1.36H53.807a.958.958,0,0,0-.778.68l-2.222,14.84a.519.519,0,0,0,.444.57H54.7l.889-5.56v.23a.958.958,0,0,1,.778-.68h1.666c3.221,0,5.665-1.36,6.443-5.1v-.34h0A4,4,0,0,0,63.583,2233.97Z" transform="translate(628 -256)" fill="#263b80"/>
    <path id="Path_131" data-name="Path 131" d="M64.36,2237.25v.34c-.778,3.85-3.221,5.1-6.443,5.1H56.251a.959.959,0,0,0-.778.68l-1.111,6.91a.415.415,0,0,0,.444.46H57.7a.629.629,0,0,0,.667-.57v-.11l.555-3.52v-.22a.628.628,0,0,1,.667-.57h.444c2.777,0,5-1.13,5.554-4.53a4.234,4.234,0,0,0-.555-3.4A1.16,1.16,0,0,0,64.36,2237.25Z" transform="translate(628 -256)" fill="#139ad6"/>
    <path id="Path_132" data-name="Path 132" d="M63.582,2236.91c-.111,0-.222-.11-.333-.11a.41.41,0,0,1-.333-.11,5.45,5.45,0,0,0-1.444-.12H57.14a.389.389,0,0,0-.333.12.619.619,0,0,0-.333.56l-.889,5.89v.23a.959.959,0,0,1,.778-.68h1.666c3.221,0,5.665-1.36,6.443-5.1a.432.432,0,0,1,.111-.34c-.222-.11-.333-.22-.555-.22C63.694,2236.91,63.694,2236.91,63.582,2236.91Z" transform="translate(628 -256)" fill="#232c65"/>
  </g>
</svg>
