<svg xmlns="http://www.w3.org/2000/svg" width="46.494" height="29.71" viewBox="0 0 46.494 29.71">
  <g id="Group_16" data-name="Group 16" transform="translate(-714.143 -1970.1)">
    <path id="Path_121" data-name="Path 121" d="M88.468,2226.6H129.15a3,3,0,0,1,2.258.74,3.2,3.2,0,0,1,.729,2.32v22.58a3.206,3.206,0,0,1-.729,2.33,3.039,3.039,0,0,1-2.258.74H89.63a3.037,3.037,0,0,1-2.258-.74,3.207,3.207,0,0,1-.729-2.33v-23.77a1.906,1.906,0,0,1,.584-1.28A1.792,1.792,0,0,1,88.468,2226.6Z" transform="translate(628 -256)" fill="#fff" stroke="#e3e3e3" stroke-width="1"/>
    <path id="Path_125" data-name="Path 125" d="M114.97,2237.57a5.984,5.984,0,0,0-1.945-.31c-2.143,0-3.653,1-3.666,2.43-.012,1.06,1.078,1.65,1.9,2,.844.36,1.128.59,1.124.91-.005.5-.674.72-1.3.72a4.943,4.943,0,0,1-2.042-.38l-.279-.12-.305,1.65a7.551,7.551,0,0,0,2.417.39c2.28,0,3.76-.99,3.777-2.52.008-.83-.57-1.47-1.821-2-.758-.34-1.223-.57-1.218-.91,0-.31.393-.63,1.243-.63a4.084,4.084,0,0,1,1.623.28l.195.08Z" transform="translate(628 -256)" fill="#265697" fill-rule="evenodd"/>
    <path id="Path_126" data-name="Path 126" d="M119.8,2237.26h-1.6a1.024,1.024,0,0,0-1.085.63l-3.076,6.97h2.175s.356-.94.436-1.14H119.3c.062.27.252,1.14.252,1.14h1.923Zm-2.555,4.9c.172-.44.826-2.13.826-2.13-.013.02.17-.44.274-.72l.14.65.48,2.2Z" transform="translate(628 -256)" fill="#265697" fill-rule="evenodd"/>
    <path id="Path_127" data-name="Path 127" d="M105.671,2244.86l1.073-7.6h1.717l-1.074,7.6Z" transform="translate(628 -256)" fill="#265697" fill-rule="evenodd"/>
    <path id="Path_128" data-name="Path 128" d="M103.437,2237.26l-2.064,5.19-.22-1.05a5.978,5.978,0,0,0-2.921-3.2l1.888,6.66h2.231l3.32-7.6Z" transform="translate(628 -256)" fill="#265697" fill-rule="evenodd"/>
    <path id="Path_129" data-name="Path 129" d="M99.483,2237.26H96.4l-.024.18a6.831,6.831,0,0,1,4.649,4.57l-.671-4.02A.824.824,0,0,0,99.483,2237.26Z" transform="translate(628 -256)" fill="#d97b16" fill-rule="evenodd"/>
  </g>
</svg>
