<svg xmlns="http://www.w3.org/2000/svg" width="46.494" height="29.71" viewBox="0 0 46.494 29.71">
  <g id="Group_17" data-name="Group 17" transform="translate(-765.287 -1970.1)">
    <path id="Path_108" data-name="Path 108" d="M139.611,2226.6h40.682a3,3,0,0,1,2.258.74,3.2,3.2,0,0,1,.73,2.32v22.58a3.206,3.206,0,0,1-.73,2.33,3.036,3.036,0,0,1-2.258.74H140.774a3.037,3.037,0,0,1-2.258-.74,3.206,3.206,0,0,1-.729-2.33v-23.77a1.9,1.9,0,0,1,.584-1.28A1.79,1.79,0,0,1,139.611,2226.6Z" transform="translate(628 -256)" fill="#fff" stroke="#e3e3e3" stroke-width="1"/>
    <path id="Path_109" data-name="Path 109" d="M172.622,2241.31a7.441,7.441,0,1,1-14.878,0h0a7.441,7.441,0,1,1,14.878-.01v.01Z" transform="translate(628 -256)" fill="#dfac16" fill-rule="evenodd"/>
    <path id="Path_110" data-name="Path 110" d="M155.836,2233.7a7.607,7.607,0,0,0,.048,15.21,7.323,7.323,0,0,0,5.006-1.98h0a7.351,7.351,0,0,0,.755-.81h-1.524a7.437,7.437,0,0,1-.554-.79H162.2a7.473,7.473,0,0,0,.433-.81h-3.495a7.557,7.557,0,0,1-.311-.8h4.118a7.818,7.818,0,0,0,.211-4.04H158.6a7.712,7.712,0,0,1,.213-.8h4.119a7.2,7.2,0,0,0-.321-.81h-3.482a7.122,7.122,0,0,1,.427-.8h2.627a7.317,7.317,0,0,0-.578-.82h-1.464a7.307,7.307,0,0,1,.746-.77,7.326,7.326,0,0,0-5.007-1.98Z" transform="translate(628 -256)" fill="#bf3126" fill-rule="evenodd"/>
    <path id="Path_111" data-name="Path 111" d="M158.468,2243.1l.058-.71c-.032,0-.079.02-.12.02-.163,0-.181-.15-.171-.27l.132-1.45h.247l.06-.79h-.233l.047-.49h-.468c-.01.02-.276,2.76-.276,3.09,0,.49.155.71.373.71a.773.773,0,0,0,.351-.11Z" transform="translate(628 -256)" fill="#fff" fill-rule="evenodd"/>
    <path id="Path_112" data-name="Path 112" d="M158.674,2241.98c0,.99.819,1.23,1.517,1.23a2.63,2.63,0,0,0,.928-.12l.155-.67a3.343,3.343,0,0,1-.933.17c-.943,0-.778-.56-.778-.56h1.785a4.248,4.248,0,0,0,.115-.64c0-.47-.288-1.03-1.252-1.03a1.58,1.58,0,0,0-1.537,1.62Zm1.54-.99a.378.378,0,0,1,.4.48h-.976a.554.554,0,0,1,.571-.48Z" transform="translate(628 -256)" fill="#fff" fill-rule="evenodd"/>
    <path id="Path_113" data-name="Path 113" d="M164.586,2243.1l.146-.83a2.058,2.058,0,0,1-.678.19.783.783,0,0,1-.814-.87c0-.9.5-1.4,1.057-1.4a1.521,1.521,0,0,1,.752.22l.134-.81a3.084,3.084,0,0,0-.923-.19,1.979,1.979,0,0,0-1.866,2.21,1.4,1.4,0,0,0,1.475,1.59A3.871,3.871,0,0,0,164.586,2243.1Z" transform="translate(628 -256)" fill="#fff" fill-rule="evenodd"/>
    <path id="Path_114" data-name="Path 114" d="M154.164,2240.36a1.731,1.731,0,0,0-.7.15l-.083.61a1.566,1.566,0,0,1,.627-.12c.214,0,.371.03.371.24a.573.573,0,0,1-.019.18s-.169-.02-.248-.02a.951.951,0,0,0-1.02,1.05c0,.62.343.76.555.76a.725.725,0,0,0,.591-.32l-.019.27h.506l.226-1.95C154.954,2240.38,154.368,2240.36,154.164,2240.36Zm.124,1.58c.01.12-.061.68-.408.68a.242.242,0,0,1-.225-.27c0-.19.086-.42.507-.42a.641.641,0,0,1,.126.01Z" transform="translate(628 -256)" fill="#fff" fill-rule="evenodd"/>
    <path id="Path_115" data-name="Path 115" d="M155.514,2243.21c.3,0,2.008.04,2.008-.9,0-.89-1.582-.71-1.582-1.07,0-.17.258-.23.729-.23.187,0,.907.03.907.03l.168-.63s-.466-.05-1.225-.05c-.982,0-1.979.21-1.979.93,0,.81,1.662.73,1.662,1.07,0,.23-.464.25-.822.25a6.928,6.928,0,0,1-1.179-.11l-.177.62a7.028,7.028,0,0,0,1.49.09Z" transform="translate(628 -256)" fill="#fff" fill-rule="evenodd"/>
    <path id="Path_116" data-name="Path 116" d="M170.727,2239.41l-.207,1.06a1.331,1.331,0,0,0-.93-.42,1.8,1.8,0,0,0-1.617,1.88,1.184,1.184,0,0,0,1.193,1.28,1.306,1.306,0,0,0,.9-.33l-.043.28h.937l.735-3.75Zm-.447,2.06c0,.42-.252.97-.774.97-.346,0-.508-.24-.508-.61,0-.61.335-1.02.758-1.02.346,0,.524.2.524.66Z" transform="translate(628 -256)" fill="#fff" fill-rule="evenodd"/>
    <path id="Path_117" data-name="Path 117" d="M150.11,2243.21l.464-2.87.068,2.87h.525l.98-2.87-.434,2.87h.781l.6-3.8h-1.207l-.752,2.33-.039-2.33h-1.112l-.61,3.8Z" transform="translate(628 -256)" fill="#fff" fill-rule="evenodd"/>
    <path id="Path_118" data-name="Path 118" d="M161.855,2243.21c.111-1.2.132-2.18.4-2a4.533,4.533,0,0,1,.141-.84.2.2,0,0,0-.073-.01c-.171,0-.3.44-.3.44l.034-.41H161.7l-.238,2.82Z" transform="translate(628 -256)" fill="#fff" fill-rule="evenodd"/>
    <path id="Path_119" data-name="Path 119" d="M166.787,2240.36a3.676,3.676,0,0,0-1.045.15l-.126.61a3.381,3.381,0,0,1,.941-.12c.322,0,.557.03.557.24a.392.392,0,0,1-.029.18s-.254-.02-.371-.02c-.747,0-1.531.26-1.531,1.05a.75.75,0,0,0,.833.76,1.229,1.229,0,0,0,.886-.32l-.028.27h.76l.339-1.95C167.973,2240.38,167.093,2240.36,166.787,2240.36Zm.186,1.58a.652.652,0,0,1-.612.68c-.268,0-.337-.17-.337-.27,0-.19.128-.42.761-.42a1.413,1.413,0,0,1,.188.01Z" transform="translate(628 -256)" fill="#fff" fill-rule="evenodd"/>
    <path id="Path_120" data-name="Path 120" d="M168.364,2243.21c.111-1.2.132-2.18.4-2a4.422,4.422,0,0,1,.142-.84.211.211,0,0,0-.074-.01c-.171,0-.3.44-.3.44l.034-.41h-.355l-.238,2.82Z" transform="translate(628 -256)" fill="#fff" fill-rule="evenodd"/>
  </g>
</svg>
