<svg xmlns="http://www.w3.org/2000/svg" width="46.494" height="29.71" viewBox="0 0 46.494 29.71">
  <g id="Group_18" data-name="Group 18" transform="translate(-816.43 -1970.1)">
    <path id="Path_123" data-name="Path 123" d="M190.754,2226.6h40.683a2.994,2.994,0,0,1,2.257.74,3.2,3.2,0,0,1,.73,2.32v22.58a3.206,3.206,0,0,1-.73,2.33,3.035,3.035,0,0,1-2.257.74h-39.52a3.037,3.037,0,0,1-2.258-.74,3.206,3.206,0,0,1-.729-2.33v-23.77a1.9,1.9,0,0,1,.584-1.28A1.79,1.79,0,0,1,190.754,2226.6Z" transform="translate(628 -256)" fill="#fff" stroke="#e3e3e3" stroke-width="1"/>
    <path id="Path_124" data-name="Path 124" d="M200.472,2241.86h1.938l-.969-2.42Zm27.013-4.6h-4.966l-1.212,1.33-1.09-1.33H209.678l-.969,2.18-.969-2.18H203.5v.97l-.485-.97h-3.634l-3.513,8.48h4.24l.484-1.34H201.8l.484,1.34h4.724v-.97l.364.97H209.8l.364-1.09v1.09h9.691l1.211-1.34,1.09,1.34h4.967l-3.15-4.24Zm-14.657,7.26h-1.333v-4.72l-2.059,4.72h-1.211l-2.06-4.72v4.72h-2.786l-.484-1.33h-2.907l-.485,1.33h-1.575l2.544-6.05h2.059l2.3,5.69v-5.69h2.3l1.817,4.12,1.7-4.12h2.3v6.05Zm11.992,0H223l-1.575-2.06-1.817,2.06H214.16v-6.05h5.572l1.7,1.94,1.817-1.94h1.7l-2.665,3.03Zm-9.327-4.84v1.09h3.028v1.21h-3.028v1.21h3.392l1.574-1.82-1.453-1.69Z" transform="translate(628 -256)" fill="#3498d8" fill-rule="evenodd"/>
  </g>
</svg>
