<svg width="57" height="55" viewBox="0 0 57 55" fill="none" xmlns="http://www.w3.org/2000/svg">
<path d="M15.0018 33.1684C9.22169 23.8756 9.23884 13.417 15.0401 9.80864C20.8414 6.20024 30.2301 10.8084 36.0102 20.1013C41.7903 29.3941 41.7732 39.8527 35.9719 43.4611C30.1706 47.0695 20.782 42.4613 15.0018 33.1684Z" fill="#FF99C7"/>
<path d="M28.1055 9.94893H28.1053C24.634 9.94893 21.2406 10.9783 18.3543 12.9069C15.468 14.8354 13.2184 17.5766 11.8901 20.7837C10.5617 23.9908 10.2141 27.5198 10.8914 30.9244C11.5686 34.329 13.2403 37.4563 15.6949 39.9108C18.1495 42.3654 21.2769 44.0369 24.6816 44.7141C28.0862 45.3912 31.6152 45.0436 34.8222 43.7151C38.0293 42.3866 40.7703 40.137 42.6988 37.2506C44.6273 34.3643 45.6566 30.9709 45.6565 27.4996V27.4994C45.651 22.8463 43.8001 18.3854 40.5098 15.0952C37.2195 11.805 32.7585 9.95423 28.1055 9.94893ZM28.1053 46.9129C17.4011 46.9129 8.69248 38.2037 8.69248 27.4996C8.69248 16.7954 17.4011 8.08738 28.1053 8.08738C38.8095 8.08738 47.5181 16.7955 47.5181 27.4996C47.5181 38.2038 38.8094 46.9129 28.1053 46.9129Z" fill="black" stroke="white" stroke-width="0.3"/>
<mask id="path-3-inside-1_1_707" fill="white">
<path d="M33.4935 55C32.8215 54.9995 32.161 54.8257 31.5757 54.4955L28.9597 53.0252C28.6987 52.8788 28.4045 52.802 28.1053 52.802C27.806 52.802 27.5118 52.8788 27.2509 53.0252L24.6333 54.4955C23.7888 54.9725 22.7968 55.1174 21.8512 54.9019C20.9056 54.6864 20.0744 54.126 19.52 53.3302L17.7974 50.8689C17.624 50.6263 17.3923 50.4313 17.1236 50.302C16.8549 50.1727 16.5579 50.1132 16.2601 50.129L13.2605 50.3137C12.293 50.3779 11.3365 50.0782 10.5787 49.4734C9.82094 48.8686 9.31658 48.0024 9.16468 47.0448L8.68073 44.0811C8.63352 43.7851 8.51039 43.5064 8.32338 43.2722C8.13636 43.0381 7.89183 42.8563 7.61365 42.7448L4.83562 41.6176C3.93562 41.2551 3.20332 40.5698 2.78212 39.6958C2.36091 38.8218 2.28114 37.822 2.55842 36.8922L3.40756 34.0129C3.491 33.7264 3.5 33.4234 3.43369 33.1325C3.36739 32.8416 3.22797 32.5725 3.02864 32.3505L1.01214 30.1192C0.360936 29.4023 9.74341e-05 28.4686 1.97291e-08 27.5001C-9.73946e-05 26.5316 0.360554 25.5978 1.01162 24.8808L3.02917 22.6485C3.22836 22.4262 3.36766 22.1568 3.43395 21.8658C3.50025 21.5748 3.49134 21.2717 3.40809 20.985L2.55842 18.1057C2.28137 17.1759 2.36126 16.1762 2.78243 15.3022C3.20361 14.4283 3.93577 13.7429 4.83562 13.3803L7.61628 12.252C7.89278 12.1387 8.13578 11.9567 8.32224 11.7233C8.50871 11.4898 8.63247 11.2126 8.6818 10.9179L9.16626 7.95303C9.31791 6.99523 9.82227 6.12877 10.5802 5.52392C11.3382 4.91906 12.295 4.61953 13.2625 4.68419L16.2622 4.86996C16.5604 4.88903 16.8584 4.83086 17.1276 4.70107C17.3967 4.57127 17.6278 4.37424 17.7985 4.12902L19.5206 1.66975C20.0747 0.873305 20.9062 0.312463 21.8522 0.097114C22.7983 -0.118235 23.7906 0.0274315 24.6349 0.505572L27.2504 1.9748C27.512 2.12016 27.8063 2.19645 28.1056 2.19645C28.4048 2.19645 28.6992 2.12016 28.9608 1.9748L31.5767 0.504505C32.4211 0.0273785 33.413 -0.117718 34.3586 0.0975773C35.3042 0.312873 36.1355 0.873084 36.69 1.6687L38.4131 4.13011C38.5847 4.37426 38.8159 4.57043 39.0847 4.69994C39.3535 4.82946 39.651 4.888 39.9489 4.87L42.9496 4.6853C43.916 4.62561 44.8702 4.92699 45.627 5.53099C46.3838 6.13498 46.8893 6.99852 47.0454 7.95412L47.5298 10.919C47.579 11.2138 47.7028 11.4912 47.8892 11.7249C48.0757 11.9585 48.3187 12.1407 48.5953 12.2541L51.3743 13.3814C52.2746 13.7438 53.0071 14.4293 53.4284 15.3036C53.8497 16.1778 53.9295 17.1779 53.6521 18.1078L52.8029 20.9861C52.7194 21.2725 52.7103 21.5755 52.7765 21.8664C52.8427 22.1573 52.9821 22.4265 53.1813 22.6485L55.1978 24.8798C55.8489 25.5967 56.2096 26.5304 56.2097 27.4989C56.2098 28.4673 55.8493 29.4011 55.1983 30.1181L53.1819 32.3505C52.9824 32.5726 52.8429 32.8419 52.7765 33.133C52.7101 33.424 52.719 33.7272 52.8025 34.0139L53.6516 36.8932C53.929 37.823 53.8493 38.8229 53.4281 39.6969C53.0068 40.571 52.2745 41.2563 51.3744 41.6186L48.5942 42.7469C48.3175 42.8603 48.0744 43.0424 47.8878 43.2761C47.7013 43.5097 47.5775 43.7872 47.5282 44.0821L47.0443 47.0459C46.8892 48.0022 46.3838 48.8665 45.6265 49.4708C44.8693 50.075 43.9143 50.3758 42.9474 50.3147L39.9488 50.13C39.6505 50.1113 39.3523 50.1696 39.083 50.2994C38.8137 50.4291 38.5823 50.6259 38.411 50.871L36.69 53.3292C36.3314 53.8447 35.8534 54.2659 35.2968 54.5569C34.7402 54.8478 34.1215 54.9998 33.4935 55ZM28.1053 50.643C28.7754 50.6421 29.4344 50.8132 30.0194 51.1402L32.6349 52.6104C33.0119 52.8243 33.4552 52.8895 33.8778 52.7932C34.3004 52.6969 34.6718 52.4461 34.9189 52.09L36.6404 49.6308C37.0265 49.0853 37.545 48.6469 38.147 48.3568C38.7491 48.0667 39.4151 47.9345 40.0823 47.9726L43.0809 48.1573C43.5132 48.1865 43.9407 48.0528 44.2794 47.7827C44.6181 47.5126 44.8434 47.1255 44.9112 46.6976L45.3951 43.7338C45.5052 43.0734 45.7822 42.452 46.1999 41.9287C46.6175 41.4054 47.162 40.9975 47.7815 40.7436L50.5611 39.6153C50.9631 39.4536 51.2902 39.1476 51.4784 38.7574C51.6666 38.3671 51.7024 37.9207 51.5786 37.5054L50.7295 34.6261C50.5425 33.9843 50.5223 33.3054 50.6708 32.6537C50.8193 32.0019 51.1316 31.3988 51.5781 30.9013L53.5941 28.6699L53.5946 28.6689C53.8853 28.3485 54.0462 27.9314 54.0461 27.4988C54.046 27.0662 53.8849 26.6492 53.5941 26.3289L51.5781 24.0987C51.1316 23.6012 50.8195 22.9981 50.6711 22.3463C50.5227 21.6945 50.5429 21.0157 50.73 20.374L51.5792 17.4957C51.703 17.0802 51.6673 16.6335 51.479 16.243C51.2907 15.8525 50.9633 15.5464 50.5611 15.3847L47.7826 14.2574C47.1631 14.0036 46.6187 13.5957 46.2011 13.0724C45.7836 12.549 45.5066 11.9277 45.3967 11.2673L44.9122 8.30243C44.8407 7.87652 44.6145 7.492 44.2769 7.22261C43.9394 6.95323 43.5142 6.81794 43.0831 6.84269L40.0823 7.02741C39.4152 7.06802 38.7487 6.93704 38.1466 6.64696C37.5444 6.35688 37.0266 5.91737 36.6425 5.37035L34.9194 2.90889C34.6716 2.55385 34.3003 2.30385 33.8782 2.20765C33.456 2.11145 33.0131 2.17594 32.6359 2.38855L30.0188 3.85991C29.4338 4.18592 28.7752 4.35704 28.1055 4.35704C27.4358 4.35704 26.7772 4.18592 26.1922 3.85991L23.5757 2.3896C23.1985 2.17608 22.7552 2.11107 22.3326 2.20732C21.91 2.30357 21.5386 2.55414 21.2911 2.90995L19.5696 5.36816C19.1862 5.91617 18.6685 6.35654 18.0661 6.64707C17.4637 6.9376 16.7968 7.06855 16.1293 7.02738L13.1285 6.84161C12.6974 6.81714 12.2725 6.95254 11.935 7.22187C11.5975 7.49121 11.3712 7.87556 11.2994 8.30134L10.8149 11.2662C10.7048 11.9264 10.4278 12.5475 10.0103 13.0707C9.5927 13.5938 9.04841 14.0016 8.42902 14.2553L5.64888 15.3836C5.24694 15.5457 4.91991 15.8519 4.73174 16.2423C4.54357 16.6327 4.50779 17.0792 4.6314 17.4946L5.48106 20.3729C5.66786 21.0146 5.68802 21.6934 5.53964 22.3451C5.39125 22.9968 5.07921 23.6 4.63299 24.0976L2.61542 26.33C2.3248 26.6502 2.16381 27.0671 2.16381 27.4995C2.16381 27.9319 2.3248 28.3488 2.61542 28.6689L4.63192 30.9002C5.07843 31.3977 5.39069 32.0008 5.53918 32.6526C5.68767 33.3043 5.66748 33.9832 5.48052 34.625L4.63139 37.5044C4.50766 37.9196 4.5434 38.3661 4.7316 38.7563C4.9198 39.1466 5.24691 39.4525 5.64887 39.6143L8.42738 40.7415C9.04686 40.9958 9.59119 41.404 10.0088 41.9274C10.4264 42.4509 10.7035 43.0723 10.8138 43.7328L11.2978 46.6965C11.368 47.1231 11.5938 47.5084 11.9317 47.778C12.2696 48.0477 12.6954 48.1824 13.1269 48.1563L16.1276 47.9716C16.7951 47.929 17.4623 48.0592 18.0649 48.3494C18.6675 48.6397 19.1851 49.0802 19.568 49.6287L21.2905 52.09C21.5377 52.446 21.9091 52.6968 22.3317 52.7931C22.7542 52.8893 23.1976 52.8242 23.5746 52.6104L26.1916 51.1401C26.7764 50.8132 27.4353 50.642 28.1053 50.643Z"/>
</mask>
<path d="M33.4935 55C32.8215 54.9995 32.161 54.8257 31.5757 54.4955L28.9597 53.0252C28.6987 52.8788 28.4045 52.802 28.1053 52.802C27.806 52.802 27.5118 52.8788 27.2509 53.0252L24.6333 54.4955C23.7888 54.9725 22.7968 55.1174 21.8512 54.9019C20.9056 54.6864 20.0744 54.126 19.52 53.3302L17.7974 50.8689C17.624 50.6263 17.3923 50.4313 17.1236 50.302C16.8549 50.1727 16.5579 50.1132 16.2601 50.129L13.2605 50.3137C12.293 50.3779 11.3365 50.0782 10.5787 49.4734C9.82094 48.8686 9.31658 48.0024 9.16468 47.0448L8.68073 44.0811C8.63352 43.7851 8.51039 43.5064 8.32338 43.2722C8.13636 43.0381 7.89183 42.8563 7.61365 42.7448L4.83562 41.6176C3.93562 41.2551 3.20332 40.5698 2.78212 39.6958C2.36091 38.8218 2.28114 37.822 2.55842 36.8922L3.40756 34.0129C3.491 33.7264 3.5 33.4234 3.43369 33.1325C3.36739 32.8416 3.22797 32.5725 3.02864 32.3505L1.01214 30.1192C0.360936 29.4023 9.74341e-05 28.4686 1.97291e-08 27.5001C-9.73946e-05 26.5316 0.360554 25.5978 1.01162 24.8808L3.02917 22.6485C3.22836 22.4262 3.36766 22.1568 3.43395 21.8658C3.50025 21.5748 3.49134 21.2717 3.40809 20.985L2.55842 18.1057C2.28137 17.1759 2.36126 16.1762 2.78243 15.3022C3.20361 14.4283 3.93577 13.7429 4.83562 13.3803L7.61628 12.252C7.89278 12.1387 8.13578 11.9567 8.32224 11.7233C8.50871 11.4898 8.63247 11.2126 8.6818 10.9179L9.16626 7.95303C9.31791 6.99523 9.82227 6.12877 10.5802 5.52392C11.3382 4.91906 12.295 4.61953 13.2625 4.68419L16.2622 4.86996C16.5604 4.88903 16.8584 4.83086 17.1276 4.70107C17.3967 4.57127 17.6278 4.37424 17.7985 4.12902L19.5206 1.66975C20.0747 0.873305 20.9062 0.312463 21.8522 0.097114C22.7983 -0.118235 23.7906 0.0274315 24.6349 0.505572L27.2504 1.9748C27.512 2.12016 27.8063 2.19645 28.1056 2.19645C28.4048 2.19645 28.6992 2.12016 28.9608 1.9748L31.5767 0.504505C32.4211 0.0273785 33.413 -0.117718 34.3586 0.0975773C35.3042 0.312873 36.1355 0.873084 36.69 1.6687L38.4131 4.13011C38.5847 4.37426 38.8159 4.57043 39.0847 4.69994C39.3535 4.82946 39.651 4.888 39.9489 4.87L42.9496 4.6853C43.916 4.62561 44.8702 4.92699 45.627 5.53099C46.3838 6.13498 46.8893 6.99852 47.0454 7.95412L47.5298 10.919C47.579 11.2138 47.7028 11.4912 47.8892 11.7249C48.0757 11.9585 48.3187 12.1407 48.5953 12.2541L51.3743 13.3814C52.2746 13.7438 53.0071 14.4293 53.4284 15.3036C53.8497 16.1778 53.9295 17.1779 53.6521 18.1078L52.8029 20.9861C52.7194 21.2725 52.7103 21.5755 52.7765 21.8664C52.8427 22.1573 52.9821 22.4265 53.1813 22.6485L55.1978 24.8798C55.8489 25.5967 56.2096 26.5304 56.2097 27.4989C56.2098 28.4673 55.8493 29.4011 55.1983 30.1181L53.1819 32.3505C52.9824 32.5726 52.8429 32.8419 52.7765 33.133C52.7101 33.424 52.719 33.7272 52.8025 34.0139L53.6516 36.8932C53.929 37.823 53.8493 38.8229 53.4281 39.6969C53.0068 40.571 52.2745 41.2563 51.3744 41.6186L48.5942 42.7469C48.3175 42.8603 48.0744 43.0424 47.8878 43.2761C47.7013 43.5097 47.5775 43.7872 47.5282 44.0821L47.0443 47.0459C46.8892 48.0022 46.3838 48.8665 45.6265 49.4708C44.8693 50.075 43.9143 50.3758 42.9474 50.3147L39.9488 50.13C39.6505 50.1113 39.3523 50.1696 39.083 50.2994C38.8137 50.4291 38.5823 50.6259 38.411 50.871L36.69 53.3292C36.3314 53.8447 35.8534 54.2659 35.2968 54.5569C34.7402 54.8478 34.1215 54.9998 33.4935 55ZM28.1053 50.643C28.7754 50.6421 29.4344 50.8132 30.0194 51.1402L32.6349 52.6104C33.0119 52.8243 33.4552 52.8895 33.8778 52.7932C34.3004 52.6969 34.6718 52.4461 34.9189 52.09L36.6404 49.6308C37.0265 49.0853 37.545 48.6469 38.147 48.3568C38.7491 48.0667 39.4151 47.9345 40.0823 47.9726L43.0809 48.1573C43.5132 48.1865 43.9407 48.0528 44.2794 47.7827C44.6181 47.5126 44.8434 47.1255 44.9112 46.6976L45.3951 43.7338C45.5052 43.0734 45.7822 42.452 46.1999 41.9287C46.6175 41.4054 47.162 40.9975 47.7815 40.7436L50.5611 39.6153C50.9631 39.4536 51.2902 39.1476 51.4784 38.7574C51.6666 38.3671 51.7024 37.9207 51.5786 37.5054L50.7295 34.6261C50.5425 33.9843 50.5223 33.3054 50.6708 32.6537C50.8193 32.0019 51.1316 31.3988 51.5781 30.9013L53.5941 28.6699L53.5946 28.6689C53.8853 28.3485 54.0462 27.9314 54.0461 27.4988C54.046 27.0662 53.8849 26.6492 53.5941 26.3289L51.5781 24.0987C51.1316 23.6012 50.8195 22.9981 50.6711 22.3463C50.5227 21.6945 50.5429 21.0157 50.73 20.374L51.5792 17.4957C51.703 17.0802 51.6673 16.6335 51.479 16.243C51.2907 15.8525 50.9633 15.5464 50.5611 15.3847L47.7826 14.2574C47.1631 14.0036 46.6187 13.5957 46.2011 13.0724C45.7836 12.549 45.5066 11.9277 45.3967 11.2673L44.9122 8.30243C44.8407 7.87652 44.6145 7.492 44.2769 7.22261C43.9394 6.95323 43.5142 6.81794 43.0831 6.84269L40.0823 7.02741C39.4152 7.06802 38.7487 6.93704 38.1466 6.64696C37.5444 6.35688 37.0266 5.91737 36.6425 5.37035L34.9194 2.90889C34.6716 2.55385 34.3003 2.30385 33.8782 2.20765C33.456 2.11145 33.0131 2.17594 32.6359 2.38855L30.0188 3.85991C29.4338 4.18592 28.7752 4.35704 28.1055 4.35704C27.4358 4.35704 26.7772 4.18592 26.1922 3.85991L23.5757 2.3896C23.1985 2.17608 22.7552 2.11107 22.3326 2.20732C21.91 2.30357 21.5386 2.55414 21.2911 2.90995L19.5696 5.36816C19.1862 5.91617 18.6685 6.35654 18.0661 6.64707C17.4637 6.9376 16.7968 7.06855 16.1293 7.02738L13.1285 6.84161C12.6974 6.81714 12.2725 6.95254 11.935 7.22187C11.5975 7.49121 11.3712 7.87556 11.2994 8.30134L10.8149 11.2662C10.7048 11.9264 10.4278 12.5475 10.0103 13.0707C9.5927 13.5938 9.04841 14.0016 8.42902 14.2553L5.64888 15.3836C5.24694 15.5457 4.91991 15.8519 4.73174 16.2423C4.54357 16.6327 4.50779 17.0792 4.6314 17.4946L5.48106 20.3729C5.66786 21.0146 5.68802 21.6934 5.53964 22.3451C5.39125 22.9968 5.07921 23.6 4.63299 24.0976L2.61542 26.33C2.3248 26.6502 2.16381 27.0671 2.16381 27.4995C2.16381 27.9319 2.3248 28.3488 2.61542 28.6689L4.63192 30.9002C5.07843 31.3977 5.39069 32.0008 5.53918 32.6526C5.68767 33.3043 5.66748 33.9832 5.48052 34.625L4.63139 37.5044C4.50766 37.9196 4.5434 38.3661 4.7316 38.7563C4.9198 39.1466 5.24691 39.4525 5.64887 39.6143L8.42738 40.7415C9.04686 40.9958 9.59119 41.404 10.0088 41.9274C10.4264 42.4509 10.7035 43.0723 10.8138 43.7328L11.2978 46.6965C11.368 47.1231 11.5938 47.5084 11.9317 47.778C12.2696 48.0477 12.6954 48.1824 13.1269 48.1563L16.1276 47.9716C16.7951 47.929 17.4623 48.0592 18.0649 48.3494C18.6675 48.6397 19.1851 49.0802 19.568 49.6287L21.2905 52.09C21.5377 52.446 21.9091 52.6968 22.3317 52.7931C22.7542 52.8893 23.1976 52.8242 23.5746 52.6104L26.1916 51.1401C26.7764 50.8132 27.4353 50.642 28.1053 50.643Z" fill="black" stroke="white" stroke-width="0.6" mask="url(#path-3-inside-1_1_707)"/>
<path d="M40.636 18.2388L23.4057 36.2836L15.5737 28.0814" stroke="black" stroke-width="1.2" stroke-linecap="square" stroke-linejoin="round"/>
</svg>
