<svg width="57" height="57" viewBox="0 0 57 57" fill="none" xmlns="http://www.w3.org/2000/svg">
<path d="M28.5 1.4364C27.882 1.4364 27.3808 1.93366 27.3808 2.54676C27.3808 3.15987 27.882 3.65712 28.5 3.65712C42.4292 3.65712 53.7615 14.8995 53.7615 28.7182C53.7615 42.5368 42.4292 53.7792 28.5 53.7792C14.5708 53.7792 3.23849 42.537 3.23849 28.7182C3.23849 19.3164 8.46946 10.7855 16.8901 6.4545C17.4389 6.17228 17.653 5.50218 17.3686 4.95773C17.0841 4.41328 16.4084 4.20083 15.8598 4.48305C6.69397 9.19727 1 18.4838 1 28.7182C1 43.7615 13.3365 56 28.5 56C43.6635 56 56 43.7614 56 28.7182C56 13.675 43.6637 1.4364 28.5 1.4364Z" fill="#FF99C7" stroke="#FF99C7" stroke-width="2"/>
<path d="M40.2826 11.9945C37.0888 9.56373 33.2727 8.27905 29.2471 8.27905C19.1991 8.27905 11.0244 16.4425 11.0244 26.4766C11.0244 36.5108 19.1991 44.6742 29.2471 44.6742C34.1145 44.6742 38.6907 42.7814 42.1324 39.3443C42.5798 38.8975 42.5798 38.173 42.1324 37.7262C41.685 37.2795 40.9594 37.2795 40.5122 37.7262C37.5031 40.7311 33.5025 42.386 29.2471 42.386C20.4627 42.386 13.3159 35.2492 13.3159 26.4766C13.3159 17.7041 20.4625 10.5673 29.2471 10.5673C36.2921 10.5673 42.5838 15.2803 44.5474 22.0286C44.7238 22.6354 45.3595 22.9842 45.9673 22.808C46.5749 22.6316 46.9244 21.9968 46.7477 21.39C45.6692 17.6831 43.3732 14.3463 40.2826 11.9945Z" fill="#FF99C7"/>
<path d="M40.4373 22.6497L40.4373 22.6497C40.8352 22.2548 41.4809 22.2548 41.8792 22.6497C41.8792 22.6497 41.8792 22.6497 41.8792 22.6497L45.2981 26.0415L45.3686 26.1114L45.439 26.0415L48.8579 22.6497L48.8579 22.6497C49.2558 22.2548 49.9016 22.2548 50.2998 22.6497C50.6975 23.0442 50.6975 23.6835 50.2998 24.078L46.0896 28.255C45.8986 28.4445 45.6393 28.5511 45.3686 28.5511C45.0978 28.5511 44.8385 28.4445 44.6475 28.255L40.4373 24.078L40.4373 24.078C40.0397 23.6835 40.0397 23.0442 40.4373 22.6497Z" fill="#FF99C7" stroke="white" stroke-width="0.2"/>
<path d="M17.6516 5.84023L17.6516 5.84024C9.16498 10.2052 3.89151 18.8044 3.89151 28.2818C3.89151 42.2126 15.3149 53.5428 29.353 53.5428C43.3912 53.5428 54.8145 42.2124 54.8145 28.2818C54.8145 14.3512 43.3912 3.02072 29.353 3.02072C28.844 3.02072 28.4338 2.61151 28.4338 2.11036C28.4338 1.60921 28.844 1.2 29.353 1.2C44.4078 1.2 56.653 13.3505 56.653 28.2818C56.653 43.213 44.4076 55.3635 29.353 55.3635C14.2985 55.3635 2.05303 43.2132 2.05303 28.2818C2.05303 18.123 7.70451 8.90476 16.8043 4.2245L16.8043 4.2245C17.256 3.99218 17.8112 4.16773 18.0443 4.61395C18.277 5.0593 18.1025 5.60838 17.6516 5.84023Z" fill="black" stroke="white" stroke-width="0.4"/>
<path d="M40.428 39.2706L40.428 39.2706C40.8259 38.8757 41.4719 38.8756 41.87 39.2706C42.2676 39.6651 42.2676 40.3043 41.87 40.6988C38.5266 44.0159 34.0815 45.8424 29.3528 45.8424C19.5915 45.8424 11.6513 37.964 11.6513 28.2821C11.6513 18.6002 19.5915 10.7218 29.3528 10.7218C33.2638 10.7218 36.9705 11.9616 40.0731 14.3073L40.1334 14.2275L40.0731 14.3073C43.0753 16.5768 45.3056 19.7972 46.3531 23.3738C46.5099 23.9088 46.2 24.4697 45.659 24.6257C45.1175 24.7816 44.5522 24.4727 44.3956 23.9373C42.4647 17.3451 36.2789 12.7425 29.3528 12.7425C20.7167 12.7425 13.6898 19.7126 13.6898 28.2821C13.6898 36.8516 20.7169 43.8217 29.3528 43.8217C33.5362 43.8217 37.4697 42.2054 40.428 39.2706Z" fill="#1F1F1F" stroke="white" stroke-width="0.2"/>
<path d="M40.9641 24.9925L40.9642 24.9925C41.362 24.5976 42.0078 24.5976 42.4061 24.9925C42.4061 24.9925 42.4061 24.9925 42.4061 24.9925L45.825 28.3843L45.8954 28.4542L45.9659 28.3843L49.3848 24.9925L49.3848 24.9925C49.7826 24.5976 50.4284 24.5976 50.8267 24.9925C51.2243 25.387 51.2243 26.0263 50.8267 26.4208L46.6165 30.5978C46.4254 30.7873 46.1661 30.8939 45.8954 30.8939C45.6247 30.8939 45.3654 30.7873 45.1744 30.5978L40.9641 26.4208L40.9641 26.4208C40.5665 26.0263 40.5665 25.387 40.9641 24.9925Z" fill="#1F1F1F" stroke="white" stroke-width="0.2"/>
</svg>
