<svg width="74" height="42" viewBox="0 0 74 42" fill="none" xmlns="http://www.w3.org/2000/svg">
<path d="M1 17.7271H12" stroke="#0A0A0A" stroke-width="1.2" stroke-linecap="round" stroke-linejoin="round"/>
<path d="M70 6.54348C70 11.571 64.5 18 64.5 18C64.5 18 59 11.6908 59 6.54348C59 3.48163 61.4622 1 64.5 1C67.5375 1 70 3.48163 70 6.54348Z" stroke="black" stroke-width="1.2" stroke-miterlimit="10" stroke-linejoin="round"/>
<path d="M64.5 9C65.8807 9 67 8.10457 67 7C67 5.89543 65.8807 5 64.5 5C63.1193 5 62 5.89543 62 7C62 8.10457 63.1193 9 64.5 9Z" stroke="black" stroke-width="1.2" stroke-miterlimit="10" stroke-linejoin="round"/>
<ellipse cx="34.0253" cy="35.8856" rx="26.8199" ry="4.35587" transform="rotate(3.28511 34.0253 35.8856)" fill="#FF99C7"/>
<circle cx="24" cy="32" r="2" fill="black"/>
<circle cx="51" cy="32" r="2" fill="black"/>
<line x1="4" y1="24.5" x2="11" y2="24.5" stroke="#FF99C7"/>
<path d="M43.2113 9.1875C44.0397 9.1875 44.7113 9.85907 44.7113 10.6875V30.6375C44.7113 31.4659 44.0397 32.1375 43.2113 32.1375H29.8165C29.0255 32.1375 28.3964 31.5027 28.0821 30.7768C27.862 30.2688 27.539 29.8063 27.128 29.4209C26.3711 28.7111 25.3723 28.3161 24.3347 28.3161C23.297 28.3161 22.2983 28.7111 21.5413 29.4209C21.1303 29.8063 20.8074 30.2688 20.5873 30.7768C20.2729 31.5027 19.6439 32.1375 18.8528 32.1375H17.625C16.7966 32.1375 16.125 31.4659 16.125 30.6375V10.6875C16.125 9.85907 16.7966 9.1875 17.625 9.1875H43.2113Z" stroke="#0A0A0A" stroke-width="1.2" stroke-linecap="round" stroke-linejoin="round"/>
<path d="M57.7432 23.4547C58.1083 23.8283 58.3127 24.33 58.3127 24.8524V30.7354C58.3127 31.5097 57.6849 32.1375 56.9106 32.1375V32.1375C56.1712 32.1375 55.5819 31.5464 55.3034 30.8615C55.0832 30.3202 54.7475 29.8276 54.3138 29.4209C53.5569 28.7111 52.5581 28.3161 51.5205 28.3161C50.4828 28.3161 49.4841 28.7111 48.7271 29.4209C48.2954 29.8257 47.9609 30.3156 47.7407 30.8539C47.459 31.5425 46.8662 32.1375 46.1223 32.1375V32.1375C45.3431 32.1375 44.7114 31.5059 44.7114 30.7267V17.9375C44.7114 16.8329 45.6069 15.9375 46.7114 15.9375H49.5563C50.0947 15.9375 50.6105 16.1546 50.9868 16.5398L57.7432 23.4547Z" stroke="#0A0A0A" stroke-width="1.2" stroke-linecap="round" stroke-linejoin="round"/>
<path d="M57.3127 24.0376C57.865 24.0376 58.3127 24.4853 58.3127 25.0376V31.1376C58.3127 31.6899 57.865 32.1376 57.3127 32.1376H56.5335C56.0061 32.1376 55.5819 31.7216 55.4291 31.2169C55.223 30.5359 54.8408 29.9151 54.3138 29.421C53.5569 28.7112 52.5581 28.3162 51.5205 28.3162C50.4828 28.3162 49.4841 28.7112 48.7271 29.421C48.2002 29.9151 47.818 30.5359 47.6119 31.2169C47.4591 31.7216 47.0348 32.1376 46.5075 32.1376H45.7114C45.1591 32.1376 44.7114 31.6899 44.7114 31.1376V25.0376C44.7114 24.4853 45.1591 24.0376 45.7114 24.0376H57.3127Z" stroke="#0A0A0A" stroke-width="1.2" stroke-linecap="round" stroke-linejoin="round"/>
<path d="M24.3264 36.1874C26.5818 36.1874 28.4102 34.3742 28.4102 32.1374C28.4102 29.9006 26.5818 28.0874 24.3264 28.0874C22.071 28.0874 20.2427 29.9006 20.2427 32.1374C20.2427 34.3742 22.071 36.1874 24.3264 36.1874Z" stroke="#0A0A0A" stroke-width="1.2" stroke-linecap="round" stroke-linejoin="round"/>
<path d="M51.512 36.1874C53.7674 36.1874 55.5957 34.3742 55.5957 32.1374C55.5957 29.9006 53.7674 28.0874 51.512 28.0874C49.2566 28.0874 47.4282 29.9006 47.4282 32.1374C47.4282 34.3742 49.2566 36.1874 51.512 36.1874Z" stroke="#0A0A0A" stroke-width="1.2" stroke-linecap="round" stroke-linejoin="round"/>
<path d="M7.6875 22.6875H12.0919" stroke="#0A0A0A" stroke-width="1.2" stroke-linecap="round" stroke-linejoin="round"/>
<line x1="5" y1="14.5" x2="12" y2="14.5" stroke="#FF99C7"/>
<path d="M8 13H12" stroke="#0A0A0A" stroke-width="1.2" stroke-linecap="round" stroke-linejoin="round"/>
<path d="M45 18H52" stroke="#0A0A0A" stroke-width="1.2" stroke-linecap="round" stroke-linejoin="round"/>
<path d="M35.3332 16L27.9998 23.3333L24.6665 20" stroke="#FF99C7" stroke-width="1.2" stroke-linecap="round" stroke-linejoin="round"/>
<path d="M37 16L29.4375 23L26 19.8182" stroke="black" stroke-width="1.2" stroke-linecap="round" stroke-linejoin="round"/>
<path d="M31 29H42" stroke="#0A0A0A" stroke-width="1.2" stroke-linecap="round" stroke-linejoin="round"/>
</svg>
