<svg id="Group_13" data-name="Group 13" xmlns="http://www.w3.org/2000/svg" width="25.945" height="26.07" viewBox="0 0 25.945 26.07">
  <path id="Path_30" data-name="Path 30" d="M22.165,3.789A12.921,12.921,0,0,0,1.833,19.376L0,26.07l6.848-1.8a12.908,12.908,0,0,0,6.173,1.572h.005A12.924,12.924,0,0,0,22.165,3.789ZM13.027,23.664h0a10.721,10.721,0,0,1-5.465-1.5l-.392-.233L3.1,23l1.085-3.962-.255-.406a10.737,10.737,0,1,1,9.1,5.032Z" fill="#444" fill-rule="evenodd"/>
  <path id="Path_31" data-name="Path 31" d="M18.917,15.623c-.323-.162-1.91-.942-2.206-1.05s-.511-.161-.726.162-.834,1.05-1.022,1.266-.377.242-.7.081a8.813,8.813,0,0,1-2.6-1.6,9.729,9.729,0,0,1-1.8-2.236c-.188-.323-.02-.5.142-.659.145-.145.323-.377.484-.565a2.2,2.2,0,0,0,.323-.538.594.594,0,0,0-.027-.566c-.081-.162-.726-1.75-1-2.4-.262-.629-.528-.544-.726-.554s-.4-.011-.619-.011a1.186,1.186,0,0,0-.861.4,3.62,3.62,0,0,0-1.13,2.693,6.278,6.278,0,0,0,1.318,3.339A14.389,14.389,0,0,0,13.3,18.261a18.526,18.526,0,0,0,1.84.68,4.424,4.424,0,0,0,2.033.128,3.324,3.324,0,0,0,2.179-1.535A2.7,2.7,0,0,0,19.535,16C19.455,15.865,19.239,15.784,18.917,15.623Z" fill="#444" fill-rule="evenodd"/>
</svg>
