<svg width="33" height="15" viewBox="0 0 33 15" fill="none" xmlns="http://www.w3.org/2000/svg">
<rect width="33" height="15" rx="4" fill="#60806B"/>
<path d="M6.64491 7.83247V10H8.11296V7.65112C8.11296 6.72712 7.8798 6.00173 7.41348 5.48359C6.94716 4.96546 6.23904 4.70639 5.3064 4.70639C4.78826 4.70639 4.33058 4.80138 3.9247 4.98273C3.51883 5.17271 3.1475 5.45769 2.81935 5.83765L3.74336 6.66667C4.14059 6.24352 4.61555 6.02763 5.1855 6.02763C5.68636 6.02763 6.04906 6.19171 6.29085 6.50259C6.52401 6.82211 6.64491 7.26252 6.64491 7.83247ZM4.78826 7.38342L3.32021 7.55613V10H4.78826V7.38342ZM12.5219 7.07254C12.3233 6.77893 12.0728 6.58895 11.7619 6.48532C11.9692 6.35579 12.1333 6.18307 12.2628 5.95855C12.3837 5.74266 12.4528 5.48359 12.4528 5.17271C12.4528 4.86183 12.3578 4.56822 12.1851 4.30915C12.0037 4.05009 11.7533 3.85147 11.4252 3.69603C11.097 3.54059 10.717 3.46287 10.2853 3.46287C9.35262 3.46287 8.66177 3.80829 8.22136 4.48187L9.11946 5.25043C9.30081 5.05181 9.47352 4.91364 9.64623 4.83592C9.81031 4.7582 9.99165 4.71503 10.1816 4.71503C10.4148 4.71503 10.6048 4.76684 10.7602 4.87047C10.907 4.97409 10.9847 5.1209 10.9847 5.30225C10.9847 5.5095 10.8984 5.67358 10.7343 5.78584C10.5702 5.8981 10.3198 5.94991 9.99165 5.94991H9.34398V7.15026H10.1644C10.5443 7.15026 10.8293 7.22798 11.0366 7.36615C11.2438 7.51295 11.3474 7.72884 11.3474 8.01382C11.3474 8.55786 11.002 8.82556 10.3284 8.82556C10.1039 8.82556 9.88803 8.79102 9.67214 8.70466C9.44761 8.61831 9.24899 8.49741 9.06765 8.3247L8.29908 9.36097C8.54088 9.60276 8.83449 9.78411 9.17991 9.91364C9.52533 10.0518 9.92257 10.1123 10.3716 10.1123C10.8725 10.1123 11.3129 10.0345 11.6756 9.8791C12.0383 9.72366 12.3233 9.49914 12.5219 9.20553C12.7119 8.91192 12.8155 8.56649 12.8155 8.16926C12.8155 7.73748 12.7119 7.36615 12.5219 7.07254ZM17.6865 10V7.41796C17.6865 6.50259 17.462 5.82038 17.0129 5.37997C16.5639 4.93955 15.9508 4.71503 15.1649 4.71503C14.7677 4.71503 14.3877 4.78411 14.0078 4.92228C13.6278 5.06045 13.2737 5.25907 12.9628 5.50086L13.6192 6.49395C13.8091 6.35579 14.025 6.24352 14.2668 6.14853C14.5086 6.05354 14.7418 6.00173 14.9836 6.00173C15.804 6.00173 16.2185 6.51123 16.2185 7.51295V10H17.6865ZM22.0355 7.83247V10H23.5036V7.65112C23.5036 6.72712 23.2704 6.00173 22.8041 5.48359C22.3378 4.96546 21.6297 4.70639 20.697 4.70639C20.1789 4.70639 19.7212 4.80138 19.3153 4.98273C18.9095 5.17271 18.5381 5.45769 18.21 5.83765L19.134 6.66667C19.5312 6.24352 20.0062 6.02763 20.5761 6.02763C21.077 6.02763 21.4397 6.19171 21.6815 6.50259C21.9146 6.82211 22.0355 7.26252 22.0355 7.83247ZM20.1789 7.38342L18.7108 7.55613V10H20.1789V7.38342ZM29.1932 8.74784H28.4247C28.7701 8.33333 28.9514 7.82383 28.9514 7.23661C28.9514 6.75302 28.8305 6.32124 28.606 5.93264C28.3815 5.55268 28.062 5.25043 27.6561 5.03454C27.2502 4.81865 26.7839 4.70639 26.2658 4.70639C25.834 4.70639 25.4195 4.80138 25.0309 4.97409C24.6423 5.15544 24.3055 5.41451 24.0119 5.74266L24.9532 6.58895C25.2727 6.21762 25.6699 6.02763 26.1362 6.02763C26.3867 6.02763 26.6112 6.08808 26.8184 6.20035C27.0257 6.32124 27.1811 6.47668 27.302 6.68394C27.4229 6.89119 27.4834 7.11572 27.4834 7.35751C27.4834 7.62522 27.4229 7.86701 27.302 8.07427C27.1811 8.28152 27.0171 8.4456 26.8098 8.56649C26.5939 8.68739 26.3521 8.74784 26.0931 8.74784H24.1846V10H29.1932V8.74784Z" fill="white"/>
</svg>
