<svg width="36" height="36" viewBox="0 0 36 36" fill="none" xmlns="http://www.w3.org/2000/svg">
<g clip-path="url(#clip0_26_1772)">
<rect width="36" height="36" fill="white"/>
<circle cx="20" cy="11" r="10" fill="#8CE9B5"/>
<path d="M18.0001 23H19.5001C21.1501 23 22.5001 21.65 22.5001 20V5H9.00012C6.75012 5 4.78514 6.24498 3.76514 8.07498" stroke="#292D32" stroke-width="1.5" stroke-linecap="round" stroke-linejoin="round"/>
<path d="M3 27.5C3 29.99 5.01 32 7.5 32H9C9 30.35 10.35 29 12 29C13.65 29 15 30.35 15 32H21C21 30.35 22.35 29 24 29C25.65 29 27 30.35 27 32H28.5C30.99 32 33 29.99 33 27.5V23H28.5C27.675 23 27 22.325 27 21.5V17C27 16.175 27.675 15.5 28.5 15.5H30.435L27.87 11.015C27.33 10.085 26.34 9.5 25.26 9.5H22.5V20C22.5 21.65 21.15 23 19.5 23H18" stroke="#292D32" stroke-width="1.5" stroke-linecap="round" stroke-linejoin="round"/>
<path d="M12 35C13.6569 35 15 33.6569 15 32C15 30.3431 13.6569 29 12 29C10.3431 29 9 30.3431 9 32C9 33.6569 10.3431 35 12 35Z" stroke="#292D32" stroke-width="1.5" stroke-linecap="round" stroke-linejoin="round"/>
<path d="M24 35C25.6569 35 27 33.6569 27 32C27 30.3431 25.6569 29 24 29C22.3431 29 21 30.3431 21 32C21 33.6569 22.3431 35 24 35Z" stroke="#292D32" stroke-width="1.5" stroke-linecap="round" stroke-linejoin="round"/>
<path d="M33 20V23H28.5C27.675 23 27 22.325 27 21.5V17C27 16.175 27.675 15.5 28.5 15.5H30.435L33 20Z" stroke="#292D32" stroke-width="1.5" stroke-linecap="round" stroke-linejoin="round"/>
<path d="M3 14H12" stroke="#292D32" stroke-width="1.5" stroke-linecap="round" stroke-linejoin="round"/>
<path d="M3 18.5H9" stroke="#292D32" stroke-width="1.5" stroke-linecap="round" stroke-linejoin="round"/>
<path d="M3 23H6" stroke="#292D32" stroke-width="1.5" stroke-linecap="round" stroke-linejoin="round"/>
</g>
<defs>
<clipPath id="clip0_26_1772">
<rect width="36" height="36" fill="white"/>
</clipPath>
</defs>
</svg>
