<svg width="15" height="15" viewBox="0 0 15 15" fill="none" xmlns="http://www.w3.org/2000/svg">
<path d="M8.75 5.8125V7.625H10.375C10.5 7.625 10.5625 7.75 10.5625 7.875L10.3125 9.0625C10.3125 9.125 10.1875 9.1875 10.125 9.1875H8.75V13.75H6.875V9.25H5.8125C5.6875 9.25 5.625 9.1875 5.625 9.0625V7.875C5.625 7.75 5.6875 7.6875 5.8125 7.6875H6.875V5.625C6.875 4.5625 7.6875 3.75 8.75 3.75H10.4375C10.5625 3.75 10.625 3.8125 10.625 3.9375V5.4375C10.625 5.5625 10.5625 5.625 10.4375 5.625H8.9375C8.8125 5.625 8.75 5.6875 8.75 5.8125Z" stroke="#60806B" stroke-miterlimit="10" stroke-linecap="round"/>
<path d="M9.375 13.75H5.625C2.5 13.75 1.25 12.5 1.25 9.375V5.625C1.25 2.5 2.5 1.25 5.625 1.25H9.375C12.5 1.25 13.75 2.5 13.75 5.625V9.375C13.75 12.5 12.5 13.75 9.375 13.75Z" stroke="#60806B" stroke-linecap="round" stroke-linejoin="round"/>
</svg>
