<svg width="25" height="15" viewBox="0 0 25 15" fill="none" xmlns="http://www.w3.org/2000/svg">
<path d="M21.7787 10.799C21.7756 10.7986 21.7725 10.7982 21.7694 10.7979C21.6651 11.0523 21.5608 11.3066 21.4546 11.5653C21.6258 11.5653 21.7879 11.5653 21.9597 11.5653C21.8985 11.3064 21.8387 11.0526 21.7787 10.799Z" fill="#FF1F84"/>
<path d="M25 4.17285H0V5.82309H25V4.17285Z" fill="#FF1F84"/>
<path d="M25 1.75491C25 0.787201 24.1087 0 23.013 0H1.98655C0.891288 0 0 0.787201 0 1.75491V3.6259H25V1.75491Z" fill="#FF1F84"/>
<path d="M0 12.7453C0 13.7131 0.891288 14.5003 1.98655 14.5003H23.013C24.1087 14.5003 25 13.7131 25 12.7453V6.37012H0V12.7453ZM21.6962 10.2275C21.8631 10.2273 22.0299 10.2274 22.2029 10.2274C22.3658 10.9163 22.5287 11.6045 22.6924 12.2967C22.5024 12.2967 22.3203 12.2967 22.1335 12.2967C22.1158 12.223 22.0974 12.1492 22.0804 12.0752C22.0605 11.9883 22.061 11.9882 21.9591 11.9882C21.7463 11.9882 21.5334 11.9887 21.3205 11.9877C21.2908 11.9876 21.2764 11.9951 21.2667 12.0206C21.2347 12.1042 21.2004 12.1872 21.1647 12.2697C21.1597 12.2813 21.1419 12.2967 21.1298 12.2969C20.9282 12.2986 20.7267 12.298 20.5206 12.298C20.5258 12.285 20.5291 12.2747 20.5338 12.265C20.8303 11.6394 21.1269 11.0139 21.4237 10.3883C21.4739 10.2823 21.567 10.2276 21.6962 10.2275ZM18.9898 11.7945C19.1636 11.8673 19.3469 11.9022 19.5389 11.9002C19.627 11.8993 19.7133 11.8873 19.7929 11.8502C19.9381 11.7824 19.9573 11.651 19.8293 11.5615C19.7668 11.5177 19.6949 11.4833 19.6236 11.4505C19.5049 11.396 19.3876 11.3407 19.2845 11.2641C18.9903 11.0458 19.0278 10.7407 19.1871 10.5353C19.3181 10.3665 19.5107 10.2772 19.7297 10.2284C19.7995 10.2128 19.8719 10.207 19.943 10.1964C19.9536 10.1948 19.9638 10.1916 19.9742 10.1891C20.0522 10.1891 20.1301 10.1891 20.208 10.1891C20.2761 10.1991 20.3447 10.2068 20.4121 10.2196C20.4784 10.2323 20.5437 10.2497 20.6093 10.2658C20.6252 10.2696 20.6402 10.276 20.6588 10.2823C20.6236 10.4271 20.5889 10.5706 20.5541 10.7141C20.4743 10.6919 20.3979 10.6666 20.3191 10.6497C20.1775 10.6193 20.0328 10.6062 19.8901 10.6401C19.8385 10.6525 19.7866 10.6781 19.7462 10.7093C19.6778 10.762 19.6777 10.839 19.7437 10.8941C19.7887 10.9316 19.8415 10.9629 19.8949 10.9908C20.0014 11.0464 20.1132 11.0941 20.2181 11.1516C20.3593 11.229 20.4767 11.3277 20.5238 11.475C20.5922 11.6888 20.5175 11.9738 20.2479 12.1456C20.0928 12.2445 19.9173 12.2963 19.7304 12.3174C19.4365 12.3508 19.1481 12.3253 18.8671 12.2401C18.8515 12.2354 18.8365 12.2292 18.8166 12.2221C18.8529 12.0717 18.8889 11.9225 18.9258 11.7699C18.9496 11.7789 18.97 11.7862 18.9898 11.7945ZM18.8992 10.2289C18.883 10.2973 18.8677 10.3632 18.8518 10.4289C18.705 11.0358 18.5575 11.6427 18.4121 12.25C18.4028 12.2889 18.3872 12.3003 18.3422 12.2995C18.1767 12.2969 18.0111 12.2986 17.8455 12.2986C17.8303 12.2986 17.8152 12.2986 17.7923 12.2986C17.9605 11.6048 18.1272 10.9166 18.294 10.2289C18.4968 10.2289 18.6955 10.2289 18.8992 10.2289ZM15.1807 10.2702C15.1863 10.2295 15.2153 10.2258 15.2558 10.226C15.5745 10.2275 15.8931 10.2268 16.2118 10.2269C16.3701 10.2269 16.4786 10.3048 16.5081 10.4422C16.5897 10.8219 16.6702 11.2018 16.7512 11.5817C16.7541 11.5949 16.7577 11.6079 16.7698 11.6238C16.9784 11.1586 17.1868 10.6934 17.395 10.2289C17.6067 10.2289 17.8161 10.2289 18.0307 10.2289C18.0192 10.2546 18.0097 10.2772 17.9991 10.2995C17.6883 10.9546 17.3773 11.6097 17.0672 12.2651C17.0553 12.2901 17.0412 12.2995 17.0095 12.2994C16.8216 12.2979 16.6337 12.2982 16.4459 12.2992C16.4176 12.2994 16.4056 12.2932 16.3981 12.2672C16.2412 11.7277 16.0816 11.1889 15.9261 10.6492C15.8983 10.5523 15.8432 10.4854 15.7386 10.4443C15.5663 10.3766 15.3872 10.3294 15.2042 10.2917C15.1962 10.2901 15.1885 10.2873 15.1807 10.285C15.1807 10.28 15.1807 10.2752 15.1807 10.2702ZM2.54849 9.65528H5.14132C5.31224 9.65528 5.45092 9.77776 5.45092 9.92872C5.45092 10.0797 5.31224 10.2022 5.14132 10.2022H2.54849C2.37757 10.2022 2.2389 10.0797 2.2389 9.92872C2.2389 9.77776 2.37757 9.65528 2.54849 9.65528ZM2.54849 11.3714H8.58152C8.75244 11.3714 8.89111 11.4939 8.89111 11.6448C8.89111 11.7958 8.75244 11.9183 8.58152 11.9183H2.54849C2.37757 11.9183 2.2389 11.7958 2.2389 11.6448C2.2389 11.4939 2.37757 11.3714 2.54849 11.3714Z" fill="#FF1F84"/>
</svg>
