<svg width="58" height="57" viewBox="0 0 58 57" fill="none" xmlns="http://www.w3.org/2000/svg">
<path d="M14.6907 47.3695C12.0939 45.8649 13.2961 37.392 17.3758 28.4449C21.4555 19.4978 26.8678 13.4644 29.4646 14.969C32.0614 16.4736 30.8593 24.9464 26.7796 33.8936C22.6998 42.8407 17.2875 48.8741 14.6907 47.3695Z" fill="#0FD2A8" fill-opacity="0.25"/>
<path d="M44.0267 47.5026C41.4823 49.1168 35.8166 43.2086 31.3721 34.3062C26.9277 25.4038 25.3874 16.8785 27.9319 15.2643C30.4764 13.6501 36.142 19.5583 40.5865 28.4607C45.0309 37.3631 46.5712 45.8884 44.0267 47.5026Z" fill="#0FD2A8" fill-opacity="0.25"/>
<path d="M36.3903 24.7076H54.1968V54.1035C54.1937 55.1497 53.3294 55.997 52.2623 56H5.83581C4.76874 55.997 3.90449 55.1497 3.90137 54.1035V24.7076H21.6982" stroke="black" stroke-width="1.2" stroke-linecap="round" stroke-linejoin="round"/>
<path d="M21.6985 24.7076H2.93444C1.86737 24.7046 1.00312 23.8573 1 22.8111V17.1216C1.00312 16.0755 1.86737 15.2282 2.93444 15.2251H55.1643C56.2314 15.2282 57.0956 16.0755 57.0987 17.1216V22.8111C57.0956 23.8573 56.2314 24.7046 55.1643 24.7076H36.3906" stroke="black" stroke-width="1.2" stroke-linecap="round" stroke-linejoin="round"/>
<path d="M23.2458 15.2251H25.1803H25.7316H26.1475H29.0492H31.9508H32.3667H32.918H34.8525" stroke="black" stroke-linecap="round" stroke-linejoin="round"/>
<path d="M33.8853 35.897V56H24.2131V35.897" stroke="black" stroke-width="1.2" stroke-linecap="round" stroke-linejoin="round"/>
<path d="M29.0496 15.2251C29.0496 15.2251 23.2463 0.0340219 13.5741 1.04865C4.54025 1.99691 6.47468 14.4001 18.5746 15.2251" stroke="black" stroke-width="1.2" stroke-linecap="round" stroke-linejoin="round"/>
<path d="M26.1477 15.2249C25.0769 13.2751 23.8658 11.4026 22.5234 9.6217C20.7339 7.26618 18.3125 3.90879 14.9351 3.96543C14.3217 3.96574 13.7167 4.10449 13.1669 4.37093C12.1829 4.87204 11.5331 5.83628 11.449 6.92022C11.4848 8.14306 12.0023 9.30479 12.8928 10.1617C15.3099 12.8048 18.8993 14.2055 22.2788 15.2249" stroke="black" stroke-width="1.2" stroke-linecap="round" stroke-linejoin="round"/>
<path d="M39.5243 15.2251C51.6242 14.4001 53.5587 1.99691 44.5248 1.04865C34.8526 0.0340219 29.0493 15.2251 29.0493 15.2251" stroke="black" stroke-width="1.2" stroke-linecap="round" stroke-linejoin="round"/>
<path d="M35.8201 15.2252C39.1996 14.2057 42.789 12.805 45.2061 10.162C46.0966 9.30503 46.614 8.1433 46.6499 6.92046C46.5658 5.83653 45.916 4.87228 44.932 4.37118C44.3822 4.10473 43.7771 3.96598 43.1638 3.96567C39.7864 3.90903 37.365 7.26642 35.5755 9.62195C34.2331 11.4029 33.0219 13.2754 31.9512 15.2252" stroke="black" stroke-width="1.2" stroke-linecap="round" stroke-linejoin="round"/>
<path d="M25.1803 15.2251C24.5058 18.5377 23.3323 21.7336 21.6984 24.7076C19.3577 28.9084 15.5952 33.1376 9.70483 34.1902L16.4754 36.0867L13.5737 41.7762C13.5737 41.7762 18.8354 42.8857 24.2131 35.897C26.2538 33.1281 27.8822 30.0885 29.0492 26.8697" stroke="black" stroke-width="1.2" stroke-linecap="round" stroke-linejoin="round"/>
<path d="M32.9181 15.2251C33.3531 17.3805 34.0009 19.4892 34.8526 21.5215C35.3049 22.6106 35.8183 23.6742 36.3905 24.7076C38.7311 28.9084 42.5033 33.1376 48.3936 34.1902L41.6231 36.0867L44.5248 41.7762C44.5248 41.7762 39.2631 42.8857 33.8854 35.897C31.8446 33.1281 30.2163 30.0885 29.0493 26.8697C28.7784 26.1774 28.5173 25.4568 28.2658 24.7076C27.2246 21.6004 26.3783 18.4337 25.7317 15.2251" stroke="black" stroke-width="1.2" stroke-linecap="round" stroke-linejoin="round"/>
</svg>
