<svg width="15" height="15" viewBox="0 0 15 15" fill="none" xmlns="http://www.w3.org/2000/svg">
<path d="M5.625 13.7501H9.375C12.5 13.7501 13.75 12.5001 13.75 9.37512V5.62512C13.75 2.50012 12.5 1.25012 9.375 1.25012H5.625C2.5 1.25012 1.25 2.50012 1.25 5.62512V9.37512C1.25 12.5001 2.5 13.7501 5.625 13.7501Z" stroke="#60806B" stroke-linecap="round" stroke-linejoin="round"/>
<path d="M7.5 9.68738C8.70812 9.68738 9.6875 8.708 9.6875 7.49988C9.6875 6.29176 8.70812 5.31238 7.5 5.31238C6.29188 5.31238 5.3125 6.29176 5.3125 7.49988C5.3125 8.708 6.29188 9.68738 7.5 9.68738Z" stroke="#60806B" stroke-linecap="round" stroke-linejoin="round"/>
<path d="M11.0227 4.37512H11.0299" stroke="#60806B" stroke-width="1.5" stroke-linecap="round" stroke-linejoin="round"/>
</svg>
