<svg xmlns="http://www.w3.org/2000/svg" width="27.344" height="27.344" viewBox="0 0 27.344 27.344">
  <g id="Group_8" data-name="Group 8" transform="translate(-1102.828 -220.828)">
    <path id="Path_13" data-name="Path 13" d="M331.5,206.6c6.562,0,11.895,4.857,11.895,10.826s-5.333,10.828-11.895,10.828a13.047,13.047,0,0,1-3.2-.4l-.651-.164-.6.306-2.461,1.266v-2.991l-.7-.547a10.392,10.392,0,0,1-4.285-8.3C319.605,211.462,324.938,206.6,331.5,206.6Zm0-1.777c-7.55,0-13.672,5.644-13.672,12.6a12.227,12.227,0,0,0,4.974,9.726v5.015l5.059-2.592a14.739,14.739,0,0,0,3.639.456c7.55,0,13.672-5.643,13.672-12.6S339.05,204.828,331.5,204.828Z" transform="translate(785 16)"/>
    <path id="Path_14" data-name="Path 14" d="M337.34,221.592c-.319-.16-1.892-.934-2.185-1.041s-.507-.16-.72.16-.826,1.041-1.013,1.254-.373.241-.693.08a8.734,8.734,0,0,1-2.572-1.587,9.645,9.645,0,0,1-1.779-2.216c-.187-.32-.02-.493.14-.653.144-.143.32-.373.48-.56a2.2,2.2,0,0,0,.32-.533.589.589,0,0,0-.027-.561c-.08-.16-.719-1.734-.986-2.375-.26-.623-.523-.539-.72-.549s-.4-.011-.613-.011a1.174,1.174,0,0,0-.852.4,3.583,3.583,0,0,0-1.12,2.668,6.218,6.218,0,0,0,1.306,3.309,14.255,14.255,0,0,0,5.464,4.83,18.423,18.423,0,0,0,1.823.673,4.371,4.371,0,0,0,2.015.127,3.294,3.294,0,0,0,2.159-1.521,2.676,2.676,0,0,0,.186-1.521C337.873,221.832,337.66,221.752,337.34,221.592Z" transform="translate(785 16)" fill="#f8c0d7" fill-rule="evenodd"/>
    <path id="Path_15" data-name="Path 15" d="M337.34,220.592c-.319-.16-1.892-.934-2.185-1.041s-.507-.16-.72.16-.826,1.041-1.013,1.254-.373.241-.693.08a8.734,8.734,0,0,1-2.572-1.587,9.645,9.645,0,0,1-1.779-2.216c-.187-.32-.02-.493.14-.653.144-.143.32-.373.48-.56a2.2,2.2,0,0,0,.32-.533.589.589,0,0,0-.027-.561c-.08-.16-.719-1.734-.986-2.375-.26-.623-.523-.539-.72-.549s-.4-.011-.613-.011a1.174,1.174,0,0,0-.852.4,3.583,3.583,0,0,0-1.12,2.668,6.218,6.218,0,0,0,1.306,3.309,14.255,14.255,0,0,0,5.464,4.83,18.423,18.423,0,0,0,1.823.673,4.371,4.371,0,0,0,2.015.127,3.294,3.294,0,0,0,2.159-1.521,2.676,2.676,0,0,0,.186-1.521C337.873,220.832,337.66,220.752,337.34,220.592Z" transform="translate(785 16)" fill="#6b002c" fill-rule="evenodd"/>
  </g>
</svg>
