<svg xmlns="http://www.w3.org/2000/svg" xmlns:xlink="http://www.w3.org/1999/xlink" width="28" height="28" viewBox="0 0 28 28">
  <defs>
    <clipPath id="clip-path">
      <rect id="Rectangle_3" data-name="Rectangle 3" width="28" height="28" transform="translate(317 250)" fill="#fff"/>
    </clipPath>
  </defs>
  <g id="Group_2" data-name="Group 2" transform="translate(-317 -250)" clip-path="url(#clip-path)">
    <path id="Path_16" data-name="Path 16" d="M337.125,251.75h-19.25v14h4.375v3.5l3.5-3.5h11.375Z" fill="none" stroke="#000" stroke-linecap="round" stroke-linejoin="round" stroke-width="2"/>
    <path id="Path_17" data-name="Path 17" d="M328.375,269.25v3.5h4.375v3.5l3.5-3.5h7.875v-14h-3.5" fill="none" stroke="#000" stroke-linecap="round" stroke-linejoin="round" stroke-width="2"/>
    <path id="Path_18" data-name="Path 18" d="M327.541,262.032a.246.246,0,0,1-.252-.252v-.48a2.09,2.09,0,0,1,.324-1.092,7.274,7.274,0,0,1,.876-1.044,6.651,6.651,0,0,0,.684-.792,1.176,1.176,0,0,0,.216-.684,1.013,1.013,0,0,0-.468-.876,1.8,1.8,0,0,0-1.068-.324,1.549,1.549,0,0,0-1.68,1.44.3.3,0,0,1-.312.264h-.576a.248.248,0,0,1-.264-.264,2.4,2.4,0,0,1,.372-1.212,2.567,2.567,0,0,1,1.008-.9,3.579,3.579,0,0,1,2.976-.024,2.047,2.047,0,0,1,.9.792,2.073,2.073,0,0,1,.012,2.088,6.927,6.927,0,0,1-.828,1.032,6.8,6.8,0,0,0-.684.816,1.474,1.474,0,0,0-.264.732q-.024.336-.024.5-.06.276-.3.276Zm-.1,1.968a.251.251,0,0,1-.276-.276v-.732a.259.259,0,0,1,.072-.192.278.278,0,0,1,.2-.084h.78a.278.278,0,0,1,.2.084.24.24,0,0,1,.084.192v.732a.278.278,0,0,1-.084.2.3.3,0,0,1-.2.072Z" fill="#f8c0d7"/>
    <path id="Path_19" data-name="Path 19" d="M327.541,261.032a.246.246,0,0,1-.252-.252v-.48a2.09,2.09,0,0,1,.324-1.092,7.274,7.274,0,0,1,.876-1.044,6.651,6.651,0,0,0,.684-.792,1.176,1.176,0,0,0,.216-.684,1.013,1.013,0,0,0-.468-.876,1.8,1.8,0,0,0-1.068-.324,1.549,1.549,0,0,0-1.68,1.44.3.3,0,0,1-.312.264h-.576a.248.248,0,0,1-.264-.264,2.4,2.4,0,0,1,.372-1.212,2.567,2.567,0,0,1,1.008-.9,3.579,3.579,0,0,1,2.976-.024,2.047,2.047,0,0,1,.9.792,2.073,2.073,0,0,1,.012,2.088,6.927,6.927,0,0,1-.828,1.032,6.8,6.8,0,0,0-.684.816,1.474,1.474,0,0,0-.264.732q-.024.336-.024.5-.06.276-.3.276Zm-.1,1.968a.251.251,0,0,1-.276-.276v-.732a.259.259,0,0,1,.072-.192.278.278,0,0,1,.2-.084h.78a.278.278,0,0,1,.2.084.24.24,0,0,1,.084.192v.732a.278.278,0,0,1-.084.2.3.3,0,0,1-.2.072Z" fill="#6b002c"/>
  </g>
</svg>
