<svg xmlns="http://www.w3.org/2000/svg" width="43.25" height="40.5" viewBox="0 0 43.25 40.5">
  <g id="Group_14" data-name="Group 14" transform="translate(-68.375 -1195.75)">
    <path id="Path_23" data-name="Path 23" d="M477.625,1811.75h-30.25v22h6.875v5.5l5.5-5.5h17.875Z" transform="translate(-378 -615)" fill="none" stroke="#6b002c" stroke-linecap="round" stroke-linejoin="round" stroke-width="2"/>
    <path id="Path_24" data-name="Path 24" d="M463.875,1839.25v5.5h6.875v5.5l5.5-5.5h12.375v-22h-5.5" transform="translate(-378 -615)" fill="none" stroke="#6b002c" stroke-linecap="round" stroke-linejoin="round" stroke-width="2"/>
    <path id="Path_25" data-name="Path 25" d="M454.858,1824a.338.338,0,0,1-.336-.34v-1.38a.323.323,0,0,1,.1-.24.317.317,0,0,1,.238-.11h1.4a.32.32,0,0,1,.238.11.327.327,0,0,1,.1.24v1.38a.338.338,0,0,1-.336.34Zm6.945,0a.338.338,0,0,1-.336-.34v-1.38a.327.327,0,0,1,.1-.24.318.318,0,0,1,.238-.11h1.4a.318.318,0,0,1,.238.11.327.327,0,0,1,.1.24v1.38a.338.338,0,0,1-.336.34Zm6.945,0a.338.338,0,0,1-.336-.34v-1.38a.327.327,0,0,1,.1-.24.32.32,0,0,1,.238-.11h1.4a.317.317,0,0,1,.238.11.323.323,0,0,1,.1.24v1.38a.338.338,0,0,1-.336.34Z" transform="translate(-378 -615)" fill="#6b002c"/>
  </g>
</svg>
