<svg width="55" height="56" viewBox="0 0 55 56" fill="none" xmlns="http://www.w3.org/2000/svg">
<path d="M11.856 35.261C11.8819 23.8096 12.2765 14.5274 12.7374 14.5286C13.1983 14.5298 13.5509 23.8139 13.525 35.2653C13.499 46.7168 13.1044 55.999 12.6435 55.9978C12.1827 55.9966 11.8301 46.7124 11.856 35.261Z" fill="#FF99C7"/>
<path d="M25.7532 29.4554C25.7791 18.004 26.1738 8.72183 26.6346 8.72303C27.0955 8.72424 27.4481 18.0084 27.4222 29.4598C27.3963 40.9111 27.0016 50.1934 26.5408 50.1922C26.0799 50.191 25.7273 40.9068 25.7532 29.4554Z" fill="#FF99C7"/>
<path d="M38.8787 34.5047C38.9046 23.0533 39.2992 13.7711 39.7601 13.7723C40.221 13.7735 40.5736 23.0576 40.5477 34.509C40.5217 45.9605 40.1271 55.2427 39.6663 55.2415C39.2054 55.2403 38.8528 45.9561 38.8787 34.5047Z" fill="#FF99C7"/>
<path d="M21.1005 15.196H9.76476C9.52396 15.196 9.30477 15.3445 9.19263 15.5835C9.08068 15.8224 9.09584 16.1089 9.23213 16.3309L9.36924 16.5546C9.95753 17.5145 10.9289 18.0875 11.9677 18.0875H13.975V45.1006L14.6844 53.231L14.6872 53.2572C14.7403 53.6777 15.0538 53.9828 15.4327 53.9828C15.8115 53.9828 16.125 53.6777 16.1781 53.2572L16.8877 45.1302L16.8902 18.0875H18.911C20.0536 18.0875 21.109 17.3924 21.6651 16.2732C21.7762 16.0498 21.7732 15.7739 21.6576 15.5535C21.5421 15.3329 21.3286 15.196 21.1005 15.196ZM15.0646 24.2025H15.8007V25.8248H15.0646V24.2025ZM15.0646 22.981V21.3587H15.8007V22.981H15.0646ZM15.4326 49.2594L15.0645 45.0409V27.0463H15.8006V45.0408L15.4326 49.2594ZM15.8007 20.1372H15.0646V18.0874H15.8007V20.1372ZM18.911 16.8659H16.8903H13.975H11.9676C11.5223 16.8659 11.0959 16.7051 10.7466 16.4175H20.1315C19.7833 16.7039 19.3573 16.8659 18.911 16.8659Z" fill="black"/>
<path d="M35.4866 8.88196H23.3412C23.0832 8.88196 22.8484 9.03037 22.7282 9.26937C22.6083 9.50828 22.6245 9.79482 22.7705 10.0168L22.9174 10.2406C23.5478 11.2004 24.5885 11.7734 25.7015 11.7734H27.8521V38.7865L28.6122 46.9169L28.6153 46.9431C28.6722 47.3636 29.0081 47.6687 29.414 47.6687C29.8198 47.6687 30.1558 47.3636 30.2127 46.9431L30.973 38.8161L30.9756 11.7734H33.1408C34.365 11.7734 35.4958 11.0783 36.0916 9.95911C36.2106 9.73568 36.2074 9.45982 36.0836 9.23945C35.9598 9.01876 35.731 8.88196 35.4866 8.88196ZM29.0196 17.8884H29.8083V19.5107H29.0196V17.8884ZM29.0196 16.6669V15.0446H29.8083V16.6669H29.0196ZM29.4139 42.9453L29.0195 38.7268V20.7322H29.8082V38.7267L29.4139 42.9453ZM29.8083 13.8231H29.0196V11.7733H29.8083V13.8231ZM33.1408 10.5518H30.9757H27.8521H25.7014C25.2243 10.5518 24.7674 10.391 24.3932 10.1034H34.4485C34.0754 10.3898 33.6189 10.5518 33.1408 10.5518Z" fill="black"/>
<path d="M48.161 13.3921H36.8253C36.5845 13.3921 36.3653 13.5405 36.2532 13.7795C36.1412 14.0184 36.1564 14.3049 36.2927 14.527L36.4298 14.7507C37.0181 15.7106 37.9895 16.2836 39.0282 16.2836H41.0355V43.2966L41.7449 51.427L41.7477 51.4532C41.8009 51.8737 42.1144 52.1789 42.4932 52.1789C42.872 52.1789 43.1856 51.8737 43.2387 51.4532L43.9483 43.3262L43.9507 16.2836H45.9716C47.1142 16.2836 48.1695 15.5884 48.7257 14.4692C48.8367 14.2458 48.8337 13.97 48.7182 13.7496C48.6027 13.5289 48.3891 13.3921 48.161 13.3921ZM42.1251 22.3985H42.8612V24.0209H42.1251V22.3985ZM42.1251 21.1771V19.5547H42.8612V21.1771H42.1251ZM42.4931 47.4555L42.125 43.2369V25.2424H42.8611V43.2368L42.4931 47.4555ZM42.8612 18.3332H42.1251V16.2835H42.8612V18.3332ZM45.9716 15.062H43.9508H41.0355H39.0281C38.5828 15.062 38.1564 14.9011 37.8071 14.6136H47.1921C46.8439 14.8999 46.4178 15.062 45.9716 15.062Z" fill="black"/>
<line x1="2.1347" y1="0.65587" x2="53.6797" y2="54.9871" stroke="black"/>
<line x1="0.637253" y1="54.9894" x2="52.1798" y2="0.655876" stroke="black"/>
</svg>
