<svg width="57" height="65" viewBox="0 0 57 65" fill="none" xmlns="http://www.w3.org/2000/svg">
<circle cx="19.3608" cy="37.7856" r="19.3608" fill="#8CE9B5"/>
<path d="M18.8509 11.5584H3.37794C3.05603 11.5584 2.75558 11.7516 2.60536 12.0949C2.45514 12.4168 2.4766 12.8031 2.66974 13.125L2.86288 13.4255C3.65692 14.7346 4.98747 15.5286 6.40386 15.5286H9.15081V52.3977L10.1165 63.4928V63.5357C10.2024 64.1151 10.6316 64.5229 11.1466 64.5229C11.6617 64.5229 12.0909 64.1151 12.1553 63.5357L13.121 52.4406V15.5071H15.8894C17.456 15.5071 18.8939 14.5629 19.645 13.0392C19.7952 12.7387 19.7952 12.3525 19.645 12.052C19.4948 11.7516 19.1943 11.5584 18.8939 11.5584H18.8509ZM10.6101 23.8553H11.6188V26.0657H10.6101V23.8553ZM10.6101 22.1814V19.9709H11.6188V22.1814H10.6101ZM11.1037 58.0633L10.6101 52.3119V27.7396H11.6188V52.3119L11.1252 58.0633H11.1037ZM11.5973 18.297H10.5887V15.5071H11.5973V18.297ZM15.8465 13.8332H6.3824C5.78151 13.8332 5.20208 13.6186 4.70849 13.2109H17.5204C17.0483 13.5972 16.4688 13.8332 15.8465 13.8332Z" fill="#292D32"/>
<path d="M38.5088 2.93123H21.9199C21.5765 2.93123 21.2546 3.12437 21.0829 3.46774C20.9112 3.78965 20.9327 4.17594 21.1473 4.49784L21.3404 4.79829C22.1988 6.10738 23.6152 6.90142 25.1389 6.90142H28.079V43.7705L29.1091 54.8656V54.9085C29.195 55.488 29.6456 55.8957 30.2036 55.8957C30.7616 55.8957 31.2123 55.488 31.2981 54.9085L32.3282 43.8134V6.87996H35.2897C36.9637 6.87996 38.5088 5.9357 39.3243 4.412C39.496 4.11156 39.4745 3.72527 39.3243 3.42482C39.1526 3.12437 38.8522 2.93123 38.5088 2.93123ZM29.6671 15.2281H30.7401V17.4385H29.6671V15.2281ZM29.6671 13.5542V11.3437H30.7401V13.5542H29.6671ZM30.2036 49.4361L29.6671 43.6847V19.1124H30.7401V43.6847L30.2036 49.4361ZM30.7401 9.66982H29.6671V6.87996H30.7401V9.66982ZM35.2897 5.20604H25.1389C24.4951 5.20604 23.8728 4.99144 23.3577 4.58369H37.0924C36.5774 4.96997 35.955 5.20604 35.3112 5.20604H35.2897Z" fill="#292D32"/>
<path d="M55.8068 9.09068H40.3338C40.0119 9.09068 39.7115 9.28383 39.5612 9.6272C39.411 9.9491 39.4325 10.3354 39.6256 10.6573L39.8188 10.9577C40.6128 12.2668 41.9433 13.0609 43.3597 13.0609H46.1067V49.93L47.0724 61.0251V61.068C47.1582 61.6474 47.5875 62.0552 48.1025 62.0552C48.6176 62.0552 49.0468 61.6474 49.1111 61.068L50.0769 49.9729V13.0394H52.8453C54.4119 13.0394 55.8497 12.0952 56.6009 10.5715C56.7511 10.271 56.7511 9.88472 56.6009 9.58427C56.4506 9.28383 56.1502 9.09068 55.8497 9.09068H55.8068ZM47.566 21.3875H48.5746V23.598H47.566V21.3875ZM47.566 19.7136V17.5032H48.5746V19.7136H47.566ZM48.0596 55.5956L47.566 49.8441V25.2719H48.5746V49.8441L48.081 55.5956H48.0596ZM48.5532 15.8293H47.5445V13.0394H48.5532V15.8293ZM52.8023 11.3655H43.3168C42.7159 11.3655 42.1365 11.1509 41.6429 10.7431H54.4548C53.9827 11.1294 53.4032 11.3655 52.7809 11.3655H52.8023Z" fill="#292D32"/>
<path d="M1.12512 56.5397L53.8106 1" stroke="#292D32" stroke-width="1.5" stroke-linecap="round"/>
</svg>
