<svg width="36" height="36" viewBox="0 0 36 36" fill="none" xmlns="http://www.w3.org/2000/svg">
<rect width="36" height="36" fill="white"/>
<circle cx="13" cy="21" r="10" fill="#8CE9B5"/>
<path d="M12.7368 7.45349H4.74488C4.57862 7.45349 4.42343 7.55325 4.34584 7.7306C4.26825 7.89687 4.27933 8.09639 4.37909 8.26266L4.47885 8.41784C4.88898 9.094 5.57622 9.50412 6.3078 9.50412H7.72661V28.5473L8.22541 34.278V34.3001C8.26975 34.5994 8.49144 34.81 8.75747 34.81C9.0235 34.81 9.24518 34.5994 9.27844 34.3001L9.77724 28.5694V9.49304H11.2071C12.0163 9.49304 12.759 9.00532 13.1469 8.21832C13.2245 8.06314 13.2245 7.86362 13.1469 7.70843C13.0693 7.55325 12.9142 7.45349 12.759 7.45349H12.7368ZM8.48036 13.8049H9.00133V14.9466H8.48036V13.8049ZM8.48036 12.9403V11.7986H9.00133V12.9403H8.48036ZM8.7353 31.4736L8.48036 28.5029V15.8112H9.00133V28.5029L8.74638 31.4736H8.7353ZM8.99024 10.934H8.46927V9.49304H8.99024V10.934ZM11.185 8.62845H6.29671C5.98635 8.62845 5.68706 8.5176 5.43212 8.307H12.0496C11.8057 8.50652 11.5064 8.62845 11.185 8.62845Z" fill="#292D32"/>
<path d="M22.8902 2.9975H14.3219C14.1445 2.9975 13.9782 3.09726 13.8896 3.27461C13.8009 3.44088 13.812 3.6404 13.9228 3.80667L14.0226 3.96185C14.466 4.638 15.1975 5.04813 15.9845 5.04813H17.5031V24.0913L18.0352 29.822V29.8441C18.0795 30.1434 18.3123 30.354 18.6005 30.354C18.8887 30.354 19.1214 30.1434 19.1658 29.8441L19.6978 24.1134V5.03704H21.2275C22.0921 5.03704 22.8902 4.54933 23.3114 3.76233C23.4001 3.60714 23.389 3.40762 23.3114 3.25244C23.2227 3.09726 23.0675 2.9975 22.8902 2.9975ZM18.3234 9.34891H18.8776V10.4906H18.3234V9.34891ZM18.3234 8.48432V7.34262H18.8776V8.48432H18.3234ZM18.6005 27.0176L18.3234 24.0469V11.3552H18.8776V24.0469L18.6005 27.0176ZM18.8776 6.47803H18.3234V5.03704H18.8776V6.47803ZM21.2275 4.17245H15.9845C15.652 4.17245 15.3305 4.06161 15.0645 3.851H22.1586C21.8926 4.05052 21.5711 4.17245 21.2386 4.17245H21.2275Z" fill="#292D32"/>
<path d="M31.8246 6.17886H23.8327C23.6664 6.17886 23.5112 6.27862 23.4336 6.45598C23.356 6.62224 23.3671 6.82176 23.4669 6.98803L23.5666 7.14321C23.9768 7.81937 24.664 8.22949 25.3956 8.22949H26.8144V27.2726L27.3132 33.0033V33.0255C27.3575 33.3248 27.5792 33.5354 27.8452 33.5354C28.1113 33.5354 28.333 33.3248 28.3662 33.0255L28.865 27.2948V8.21841H30.2949C31.1041 8.21841 31.8467 7.73069 32.2347 6.94369C32.3123 6.78851 32.3123 6.58899 32.2347 6.43381C32.1571 6.27862 32.0019 6.17886 31.8467 6.17886H31.8246ZM27.5681 12.5303H28.0891V13.672H27.5681V12.5303ZM27.5681 11.6657V10.524H28.0891V11.6657H27.5681ZM27.8231 30.1989L27.5681 27.2283V14.5366H28.0891V27.2283L27.8342 30.1989H27.8231ZM28.078 9.65939H27.557V8.21841H28.078V9.65939ZM30.2727 7.35382H25.3734C25.063 7.35382 24.7637 7.24297 24.5088 7.03237H31.1262C30.8824 7.23189 30.5831 7.35382 30.2617 7.35382H30.2727Z" fill="#292D32"/>
<path d="M3.58105 30.6867L30.7935 2" stroke="#292D32" stroke-linecap="round"/>
</svg>
