<svg xmlns="http://www.w3.org/2000/svg" width="56.67" height="55.477" viewBox="0 0 56.67 55.477">
  <g id="Group_18" data-name="Group 18" transform="translate(-413.165 -635.499)">
    <path id="Path_73" data-name="Path 73" d="M220.429,624.893c-5.766-9.27-5.748-19.7.038-23.3s15.153,1,20.918,10.267,5.749,19.7-.038,23.3S226.2,634.162,220.429,624.893Z" transform="translate(208 44)" fill="#f8c0d7"/>
    <path id="Path_74" data-name="Path 74" d="M233.5,601.73h0a17.509,17.509,0,1,0,17.507,17.508h0A17.529,17.529,0,0,0,233.5,601.73Zm0,36.872a19.364,19.364,0,1,1,19.364-19.364A19.387,19.387,0,0,1,233.5,638.6Z" transform="translate(208 44)" stroke="#fff" stroke-width="0.3"/>
    <path id="Path_75" data-name="Path 75" d="M238.875,646.67a3.91,3.91,0,0,1-1.913-.5l-2.609-1.467a1.741,1.741,0,0,0-1.705,0l-2.611,1.467a3.888,3.888,0,0,1-5.1-1.163l-1.718-2.455a1.765,1.765,0,0,0-1.533-.738l-2.993.184a3.875,3.875,0,0,1-4.085-3.261l-.483-2.956a1.727,1.727,0,0,0-1.064-1.333l-2.772-1.124a3.885,3.885,0,0,1-2.271-4.714l.847-2.872a1.749,1.749,0,0,0-.378-1.658l-2.012-2.226a3.888,3.888,0,0,1,0-5.226l2.012-2.226a1.753,1.753,0,0,0,.378-1.66l-.847-2.872a3.884,3.884,0,0,1,2.271-4.713l2.774-1.126a1.75,1.75,0,0,0,1.063-1.331l.483-2.957a3.877,3.877,0,0,1,4.086-3.261l2.993.185a1.729,1.729,0,0,0,1.532-.739l1.718-2.453a3.883,3.883,0,0,1,5.1-1.161l2.608,1.465a1.752,1.752,0,0,0,1.707,0l2.609-1.466a3.887,3.887,0,0,1,5.1,1.161l1.719,2.455a1.737,1.737,0,0,0,1.531.738l2.994-.184a3.9,3.9,0,0,1,4.085,3.261l.484,2.957a1.75,1.75,0,0,0,1.062,1.332l2.772,1.125a3.886,3.886,0,0,1,2.273,4.714l-.847,2.871a1.747,1.747,0,0,0,.377,1.659l2.011,2.225a3.886,3.886,0,0,1,0,5.226l-2.011,2.227a1.748,1.748,0,0,0-.379,1.659l.847,2.872a3.885,3.885,0,0,1-2.271,4.714l-2.774,1.125a1.754,1.754,0,0,0-1.063,1.332l-.483,2.956A3.891,3.891,0,0,1,248.306,642l-2.992-.184a1.741,1.741,0,0,0-1.534.739L242.064,645a3.885,3.885,0,0,1-3.189,1.667Zm-5.375-4.346a3.894,3.894,0,0,1,1.91.5l2.609,1.466a1.731,1.731,0,0,0,2.278-.519l1.717-2.453a3.931,3.931,0,0,1,3.434-1.654l2.991.184a1.731,1.731,0,0,0,1.825-1.456l.483-2.956a3.92,3.92,0,0,1,2.381-2.983l2.772-1.126a1.733,1.733,0,0,0,1.015-2.1l-.847-2.872a3.923,3.923,0,0,1,.847-3.716l2.011-2.226h0a1.735,1.735,0,0,0,0-2.334l-2.011-2.225a3.918,3.918,0,0,1-.846-3.715l.847-2.871a1.735,1.735,0,0,0-1.016-2.106l-2.771-1.124a3.92,3.92,0,0,1-2.38-2.983l-.484-2.958a1.747,1.747,0,0,0-1.824-1.456l-2.993.184a3.9,3.9,0,0,1-3.432-1.652l-1.719-2.456a1.737,1.737,0,0,0-2.277-.519l-2.611,1.468a3.92,3.92,0,0,1-3.817,0l-2.61-1.467a1.735,1.735,0,0,0-2.279.519l-1.717,2.452a3.894,3.894,0,0,1-3.432,1.655l-2.993-.185a1.749,1.749,0,0,0-1.825,1.456l-.483,2.958a3.918,3.918,0,0,1-2.38,2.981l-2.773,1.126a1.736,1.736,0,0,0-1.015,2.106l.847,2.871a3.918,3.918,0,0,1-.846,3.715l-2.012,2.227a1.734,1.734,0,0,0,0,2.333l2.011,2.226a3.922,3.922,0,0,1,.847,3.715l-.847,2.873a1.733,1.733,0,0,0,1.015,2.1l2.771,1.125a3.923,3.923,0,0,1,2.381,2.984l.483,2.956a1.741,1.741,0,0,0,1.824,1.456l2.993-.184a3.884,3.884,0,0,1,3.432,1.653l1.718,2.455a1.735,1.735,0,0,0,2.279.519l2.61-1.466A3.893,3.893,0,0,1,233.5,642.324Z" transform="translate(208 44)" stroke="#fff" stroke-width="0.6"/>
    <path id="Path_76" data-name="Path 76" d="M246,610l-17.188,18L221,619.818" transform="translate(208 44)" fill="none" stroke="#000" stroke-linecap="square" stroke-linejoin="round" stroke-width="1.2"/>
  </g>
</svg>
