<svg width="48" height="30" viewBox="0 0 48 30" fill="none" xmlns="http://www.w3.org/2000/svg">
<path d="M2.89794 0.597412H43.5801C44.6625 0.597412 45.3831 0.87348 45.8379 1.3387C46.2947 1.80602 46.5672 2.54972 46.5672 3.66448V3.71081V3.75725V3.80378V3.85041V3.89714V3.94397V3.99089V4.03791V4.08503V4.13224V4.17955V4.22695V4.27445V4.32203V4.36971V4.41748V4.46534V4.5133V4.56134V4.60947V4.65769V4.70599V4.75439V4.80286V4.85143V4.90008V4.94881V4.99763V5.04653V5.09552V5.14458V5.19373V5.24296V5.29226V5.34165V5.39112V5.44066V5.49028V5.53998V5.58975V5.6396V5.68952V5.73952V5.78959V5.83973V5.88995V5.94024V5.9906V6.04103V6.09152V6.14209V6.19273V6.24343V6.2942V6.34504V6.39594V6.44691V6.49794V6.54904V6.6002V6.65142V6.7027V6.75405V6.80545V6.85692V6.90844V6.96003V7.01167V7.06337V7.11513V7.16694V7.21881V7.27073V7.32271V7.37474V7.42682V7.47896V7.53115V7.58338V7.63567V7.68801V7.7404V7.79284V7.84532V7.89785V7.95043V8.00306V8.05572V8.10844V8.1612V8.214V8.26684V8.31973V8.37265V8.42562V8.47863V8.53168V8.58476V8.63789V8.69105V8.74425V8.79749V8.85076V8.90406V8.9574V9.01078V9.06418V9.11762V9.17109V9.2246V9.27813V9.33169V9.38528V9.4389V9.49255V9.54623V9.59993V9.65366V9.70741V9.76119V9.81499V9.86882V9.92267V9.97654V10.0304V10.0843V10.1383V10.1922V10.2462V10.3002V10.3542V10.4082V10.4623V10.5163V10.5704V10.6245V10.6786V10.7327V10.7868V10.841V10.8951V10.9493V11.0034V11.0576V11.1118V11.166V11.2202V11.2744V11.3286V11.3829V11.4371V11.4913V11.5456V11.5998V11.654V11.7083V11.7625V11.8168V11.871V11.9252V11.9795V12.0337V12.088V12.1422V12.1964V12.2506V12.3049V12.3591V12.4133V12.4675V12.5217V12.5758V12.63V12.6842V12.7383V12.7925V12.8466V12.9007V12.9548V13.0089V13.063V13.117V13.1711V13.2251V13.2791V13.3331V13.3871V13.441V13.4949V13.5489V13.6028V13.6566V13.7105V13.7643V13.8181V13.8719V13.9256V13.9794V14.0331V14.0868V14.1404V14.194V14.2476V14.3012V14.3547V14.4082V14.4617V14.5151V14.5686V14.6219V14.6753V14.7286V14.7819V14.8351V14.8883V14.9415V14.9946V15.0477V15.1007V15.1537V15.2067V15.2596V15.3125V15.3654V15.4182V15.4709V15.5237V15.5763V15.6289V15.6815V15.7341V15.7866V15.839V15.8914V15.9437V15.996V16.0483V16.1005V16.1526V16.2047V16.2567V16.3087V16.3606V16.4125V16.4643V16.5161V16.5678V16.6194V16.671V16.7225V16.774V16.8254V16.8768V16.928V16.9793V17.0304V17.0815V17.1326V17.1835V17.2345V17.2853V17.3361V17.3868V17.4374V17.488V17.5385V17.5889V17.6393V17.6896V17.7398V17.79V17.84V17.89V17.94V17.9898V18.0396V18.0893V18.1389V18.1885V18.2379V18.2873V18.3366V18.3859V18.435V18.4841V18.5331V18.582V18.6308V18.6796V18.7282V18.7768V18.8253V18.8737V18.922V18.9702V19.0183V19.0664V19.1143V19.1622V19.21V19.2577V19.3053V19.3528V19.4002V19.4475V19.4947V19.5418V19.5889V19.6358V19.6826V19.7294V19.776V19.8225V19.869V19.9153V19.9615V20.0077V20.0537V20.0996V20.1455V20.1912V20.2368V20.2823V20.3277V20.373V20.4182V20.4633V20.5083V20.5531V20.5979V20.6425V20.6871V20.7315V20.7758V20.82V20.8641V20.9081V20.9519V20.9956V21.0393V21.0828V21.1261V21.1694V21.2126V21.2556V21.2985V21.3413V21.384V21.4265V21.4689V21.5112V21.5534V21.5954V21.6374V21.6792V21.7208V21.7624V21.8038V21.8451V21.8862V21.9272V21.9681V22.0089V22.0495V22.09V22.1304V22.1706V22.2107V22.2507V22.2905V22.3302V22.3698V22.4092V22.4485V22.4876V22.5266V22.5655V22.6042V22.6428V22.6812V22.7195V22.7577V22.7957V22.8335V22.8712V22.9088V22.9462V22.9835V23.0206V23.0576V23.0945V23.1311V23.1677V23.204V23.2403V23.2764V23.3123V23.348V23.3837V23.4191V23.4544V23.4896V23.5246V23.5594V23.5941V23.6286V23.6629V23.6971V23.7312V23.7651V23.7988V23.8323V23.8657V23.8989V23.932V23.9649V23.9976V24.0302V24.0626V24.0948V24.1268V24.1587V24.1905V24.222V24.2534V24.2846V24.3156V24.3465V24.3772V24.4077V24.438V24.4682V24.4982V24.528V24.5576V24.5871V24.6164V24.6454V24.6744V24.7031V24.7317V24.76V24.7882V24.8162V24.8441V24.8717V24.8991V24.9264V24.9535V24.9804V25.0071V25.0336V25.0599V25.0861V25.112V25.1378V25.1634V25.1887V25.2139V25.2389V25.2637V25.2883V25.3127V25.3369V25.3609V25.3848V25.4084V25.4318V25.455V25.478V25.5009V25.5235V25.5459V25.5681V25.5901V25.6119V25.6335V25.6549V25.6761V25.6971V25.7179V25.7385V25.7588V25.779V25.7989V25.8187V25.8382V25.8575V25.8766V25.8955V25.9142V25.9326V25.9509V25.9689V25.9867V26.0043V26.0217V26.0389V26.0558V26.0725V26.089V26.1053V26.1214V26.1372V26.1529V26.1683V26.1834V26.1984V26.2131V26.2276V26.2419V26.2559C46.5672 27.3707 46.2947 28.1144 45.8379 28.5817C45.3831 29.0469 44.6625 29.323 43.5801 29.323H4.06029C2.97792 29.323 2.25733 29.0469 1.80254 28.5817C1.34571 28.1144 1.07324 27.3707 1.07324 26.2559V2.47546C1.07324 2.0396 1.29105 1.56468 1.65725 1.19007C2.02415 0.814755 2.48343 0.597412 2.89794 0.597412Z" fill="white" stroke="#E3E3E3"/>
<path d="M14.0776 20.3735V21.04H14.7578C14.7578 21.04 14.7578 21.71 14.7578 21.8774C14.7578 23.2651 14.3169 23.3335 13.6162 23.3335H13.4624L13.0933 20.3735H12.2319L12.6797 24H13.8555C14.8706 24 15.5781 23.5317 15.5781 22.1235C15.5781 21.187 15.5781 20.3735 15.5781 20.3735H14.0776ZM16.1045 20.3735V21.04H17.106C17.6084 21.04 17.687 21.4673 17.687 22.0073V24H18.5757V21.9697C18.5757 21.0469 18.4082 20.3735 17.4204 20.3735H16.1045ZM19.3003 20.3735V21.04H20.3223C20.811 21.04 21.0298 21.269 21.0298 21.9834V22.3901C21.0298 23.1113 20.8042 23.3335 20.3223 23.3335H19.314V24H20.4624C21.416 24 21.8979 23.5317 21.8979 22.5508V21.8296C21.8979 20.8418 21.4502 20.3735 20.4624 20.3735H19.3003ZM25.979 24L24.9946 22.5645C25.562 22.4756 25.9209 22.103 25.9209 21.3955V20.3735H25.1006V21.481C25.1006 21.8364 25.0015 22.0176 24.6392 22.0449L23.5352 20.3735H22.6328L23.436 21.563C22.79 21.6758 22.6055 22.2158 22.6055 22.79V24H23.4326V22.585C23.4326 22.2227 23.4839 22.103 23.7642 22.0176L25.0459 24H25.979ZM26.4473 20.3735V21.04H27.4487C27.9512 21.04 28.0298 21.4673 28.0298 22.0073V24H28.9185V21.9697C28.9185 21.0469 28.751 20.3735 27.7632 20.3735H26.4473ZM32.9688 20.3735V22.2842C32.9688 23.2173 32.4287 23.3335 31.687 23.3335H30.7881L30.4805 20.3735H29.6567L29.9951 24H32.0083C33.1499 24 33.7754 23.3779 33.7754 22.1235V20.3735H32.9688ZM32.186 20.3735H31.3726V22.5781H32.186V20.3735ZM34.6914 20.3735V22.4106H35.5869V20.3735H34.6914Z" fill="black"/>
<g clip-path="url(#clip0_1_603)">
<path d="M20.8053 6.80636L15.8293 11.6445C15.3713 12.0898 15.3713 12.8118 15.8293 13.2572L20.8053 18.0953C21.2633 18.5406 22.0059 18.5406 22.4639 18.0953L27.4398 13.2572C27.8979 12.8118 27.8979 12.0898 27.4398 11.6445L22.4639 6.80636C22.0059 6.36102 21.2633 6.36102 20.8053 6.80636Z" fill="#ED2C23"/>
<path d="M26.4854 6.80636L21.5095 11.6445C21.0515 12.0898 21.0515 12.8118 21.5095 13.2572L26.4854 18.0953C26.9435 18.5406 27.6861 18.5406 28.1441 18.0953L33.12 13.2572C33.578 12.8118 33.578 12.0898 33.12 11.6445L28.1441 6.80636C27.6861 6.36102 26.9435 6.36102 26.4854 6.80636Z" fill="#352AFF"/>
</g>
<defs>
<clipPath id="clip0_1_603">
<rect width="19" height="13" fill="white" transform="translate(15 6)"/>
</clipPath>
</defs>
</svg>
