<svg width="69" height="66" viewBox="0 0 69 66" fill="none" xmlns="http://www.w3.org/2000/svg">
<ellipse cx="18" cy="41.5" rx="18" ry="17.5" fill="#8CE9B5"/>
<path d="M35.8995 53.4616C47.1002 53.4616 56.1803 44.3816 56.1803 33.1808C56.1803 21.98 47.1002 12.9 35.8995 12.9C24.6987 12.9 15.6187 21.98 15.6187 33.1808C15.6187 44.3816 24.6987 53.4616 35.8995 53.4616Z" stroke="#292D32" stroke-width="2"/>
<path d="M24 33L31.6561 41L47 25" stroke="#292D32" stroke-width="2" stroke-linecap="round" stroke-linejoin="round"/>
<path d="M31.9735 2.41565C34.1807 0.528118 37.7953 0.528118 40.0345 2.41565L45.0886 6.76656C46.0482 7.59835 47.8396 8.27018 49.1191 8.27018H54.557C57.9478 8.27018 60.7307 11.0535 60.7307 14.4446V19.8833C60.7307 21.131 61.4025 22.9545 62.2342 23.9143L66.5845 28.969C68.4718 31.1765 68.4718 34.7916 66.5845 37.031L62.2342 42.0857C61.4025 43.0455 60.7307 44.837 60.7307 46.1167V51.5554C60.7307 54.9465 57.9478 57.7298 54.557 57.7298H49.1191C47.8716 57.7298 46.0482 58.4017 45.0886 59.2334L40.0345 63.5844C37.8273 65.4719 34.2127 65.4719 31.9735 63.5844L26.9194 59.2334C25.9598 58.4017 24.1684 57.7298 22.8889 57.7298H17.355C13.9643 57.7298 11.1813 54.9465 11.1813 51.5554V46.0847C11.1813 44.837 10.5096 43.0455 9.70986 42.0857L5.39148 36.999C3.53617 34.7916 3.53617 31.2085 5.39148 29.001L9.70986 23.9143C10.5096 22.9545 11.1813 21.163 11.1813 19.9153V14.4126C11.1813 11.0215 13.9643 8.23819 17.355 8.23819H22.8889C24.1364 8.23819 25.9598 7.56636 26.9194 6.73457L31.9735 2.41565Z" stroke="#292D32" stroke-width="2" stroke-linecap="round" stroke-linejoin="round"/>
</svg>
