<svg width="57" height="58" viewBox="0 0 57 58" fill="none" xmlns="http://www.w3.org/2000/svg">
<path d="M28.5 1.43994C27.882 1.43994 27.3808 1.94118 27.3808 2.55918C27.3808 3.17719 27.882 3.67843 28.5 3.67843C42.4292 3.67843 53.7615 15.0108 53.7615 28.9399C53.7615 42.8691 42.4292 54.2015 28.5 54.2015C14.5708 54.2015 3.23849 42.8693 3.23849 28.9399C3.23849 19.4629 8.46946 10.8638 16.8901 6.49818C17.4389 6.2137 17.653 5.53824 17.3686 4.98944C17.0841 4.44063 16.4084 4.22648 15.8598 4.51096C6.69397 9.26289 1 18.6237 1 28.9399C1 44.1036 13.3365 56.4399 28.5 56.4399C43.6635 56.4399 56 44.1035 56 28.9399C56 13.7764 43.6637 1.43994 28.5 1.43994Z" fill="#0FD2A8" fill-opacity="0.25" stroke="#0FD2A8" stroke-opacity="0.25" stroke-width="2"/>
<path d="M40.2826 12.0824C37.0888 9.63221 33.2727 8.33725 29.2471 8.33725C19.1991 8.33725 11.0244 16.566 11.0244 26.6804C11.0244 36.7948 19.1991 45.0236 29.2471 45.0236C34.1145 45.0236 38.6907 43.1156 42.1324 39.6509C42.5798 39.2006 42.5798 38.4703 42.1324 38.02C41.685 37.5696 40.9594 37.5696 40.5122 38.02C37.5031 41.0489 33.5025 42.717 29.2471 42.717C20.4627 42.717 13.3159 35.5231 13.3159 26.6804C13.3159 17.8377 20.4625 10.6438 29.2471 10.6438C36.2921 10.6438 42.5838 15.3945 44.5474 22.1968C44.7238 22.8084 45.3595 23.16 45.9673 22.9824C46.5749 22.8046 46.9244 22.1647 46.7477 21.5531C45.6692 17.8166 43.3732 14.453 40.2826 12.0824Z" fill="#0FD2A8" fill-opacity="0.25"/>
<path d="M40.4373 22.822L40.4373 22.822C40.8351 22.424 41.4805 22.424 41.8787 22.822C41.8787 22.822 41.8787 22.822 41.8787 22.822L45.2976 26.2409L45.3683 26.3117L45.439 26.2409L48.8579 22.822L48.858 22.822C49.2558 22.424 49.9011 22.424 50.2993 22.822C50.6973 23.22 50.6973 23.8654 50.2993 24.2634L46.0891 28.4738C45.898 28.6649 45.6388 28.7723 45.3683 28.7723C45.0979 28.7723 44.8386 28.6649 44.6475 28.4738L40.4373 24.2634L40.4373 24.2634C40.0393 23.8654 40.0393 23.22 40.4373 22.822Z" fill="#0FD2A8" fill-opacity="0.25" stroke="white" stroke-width="0.2"/>
<path d="M17.6511 5.88067L17.6511 5.88068C9.16419 10.2806 3.89151 18.9482 3.89151 28.5C3.89151 42.5398 15.3134 53.9615 29.353 53.9615C43.3927 53.9615 54.8145 42.5396 54.8145 28.5C54.8145 14.4604 43.3927 3.03849 29.353 3.03849C28.8455 3.03849 28.4338 2.6268 28.4338 2.11924C28.4338 1.61169 28.8455 1.2 29.353 1.2C44.4063 1.2 56.653 13.4469 56.653 28.5C56.653 43.5531 44.4061 55.8 29.353 55.8C14.3 55.8 2.05303 43.5532 2.05303 28.5C2.05303 18.2585 7.7053 8.96616 16.8049 4.24857L16.8049 4.24857C17.2555 4.01494 17.8104 4.19083 18.044 4.64153C18.2777 5.0923 18.1018 5.64705 17.6511 5.88067Z" fill="black" stroke="white" stroke-width="0.4"/>
<path d="M40.4286 39.5758L40.4286 39.5758C40.8264 39.1778 41.4719 39.1778 41.8699 39.5758C42.2679 39.9738 42.2679 40.6191 41.8699 41.0172C38.5265 44.3608 34.0815 46.2019 29.3531 46.2019C19.5925 46.2019 11.6515 38.2608 11.6515 28.5003C11.6515 18.7398 19.5925 10.7987 29.3531 10.7987C33.2639 10.7987 36.9704 12.0483 40.073 14.4128L40.1336 14.3333L40.073 14.4128C43.0752 16.7005 45.3057 19.9467 46.3533 23.5522C46.5104 24.0928 46.1996 24.6583 45.659 24.8154C45.1183 24.9724 44.5528 24.6616 44.3959 24.1212C42.4652 17.4769 36.2797 12.8372 29.3531 12.8372C20.7162 12.8372 13.69 19.8635 13.69 28.5003C13.69 37.1371 20.7164 44.1634 29.3531 44.1634C33.5367 44.1634 37.4703 42.534 40.4286 39.5758Z" fill="#1F1F1F" stroke="white" stroke-width="0.2"/>
<path d="M40.9644 25.1835L40.9644 25.1835C41.3622 24.7856 42.0076 24.7855 42.4058 25.1835C42.4058 25.1835 42.4058 25.1836 42.4058 25.1836L45.8247 28.6025L45.8954 28.6732L45.9661 28.6025L49.385 25.1835L49.3851 25.1835C49.7829 24.7856 50.4282 24.7855 50.8264 25.1835C51.2244 25.5816 51.2244 26.2269 50.8264 26.6249L46.6162 30.8353C46.4251 31.0264 46.1659 31.1338 45.8954 31.1338C45.625 31.1338 45.3657 31.0264 45.1746 30.8353L40.9644 26.6249L40.9644 26.6249C40.5664 26.2269 40.5664 25.5816 40.9644 25.1835Z" fill="#1F1F1F" stroke="white" stroke-width="0.2"/>
</svg>
