<svg width="43" height="38" viewBox="0 0 43 38" fill="none" xmlns="http://www.w3.org/2000/svg">
<circle cx="7.5" cy="11.5" r="7.5" fill="#8CE9B5"/>
<path d="M24 22.1667H25.5833C27.325 22.1667 28.75 20.7417 28.75 19V3.16666H14.5C12.125 3.16666 10.0508 4.4808 8.97418 6.41247" stroke="#292D32" stroke-width="1.5" stroke-linecap="round" stroke-linejoin="round"/>
<path d="M8.16669 26.9167C8.16669 29.545 10.2884 31.6667 12.9167 31.6667H14.5C14.5 29.925 15.925 28.5 17.6667 28.5C19.4084 28.5 20.8334 29.925 20.8334 31.6667H27.1667C27.1667 29.925 28.5917 28.5 30.3334 28.5C32.075 28.5 33.5 29.925 33.5 31.6667H35.0834C37.7117 31.6667 39.8334 29.545 39.8334 26.9167V22.1667H35.0834C34.2125 22.1667 33.5 21.4542 33.5 20.5833V15.8333C33.5 14.9625 34.2125 14.25 35.0834 14.25H37.1258L34.4184 9.51584C33.8484 8.53417 32.8034 7.91666 31.6634 7.91666H28.75V19C28.75 20.7417 27.325 22.1667 25.5834 22.1667H24" stroke="#292D32" stroke-width="1.5" stroke-linecap="round" stroke-linejoin="round"/>
<path d="M17.6667 34.8333C19.4156 34.8333 20.8333 33.4156 20.8333 31.6667C20.8333 29.9178 19.4156 28.5 17.6667 28.5C15.9178 28.5 14.5 29.9178 14.5 31.6667C14.5 33.4156 15.9178 34.8333 17.6667 34.8333Z" stroke="#292D32" stroke-width="1.5" stroke-linecap="round" stroke-linejoin="round"/>
<path d="M30.3334 34.8333C32.0823 34.8333 33.5 33.4156 33.5 31.6667C33.5 29.9178 32.0823 28.5 30.3334 28.5C28.5845 28.5 27.1667 29.9178 27.1667 31.6667C27.1667 33.4156 28.5845 34.8333 30.3334 34.8333Z" stroke="#292D32" stroke-width="1.5" stroke-linecap="round" stroke-linejoin="round"/>
<path d="M39.8333 19V22.1667H35.0833C34.2125 22.1667 33.5 21.4542 33.5 20.5833V15.8333C33.5 14.9625 34.2125 14.25 35.0833 14.25H37.1258L39.8333 19Z" stroke="#292D32" stroke-width="1.5" stroke-linecap="round" stroke-linejoin="round"/>
<path d="M8.16669 12.6667H17.6667" stroke="#292D32" stroke-width="1.5" stroke-linecap="round" stroke-linejoin="round"/>
<path d="M8.16669 17.4167H14.5" stroke="#292D32" stroke-width="1.5" stroke-linecap="round" stroke-linejoin="round"/>
<path d="M8.16669 22.1667H11.3334" stroke="#292D32" stroke-width="1.5" stroke-linecap="round" stroke-linejoin="round"/>
</svg>
