<svg width="74" height="27" viewBox="0 0 74 27" fill="none" xmlns="http://www.w3.org/2000/svg">
<path d="M0.456554 4.48457C0.445961 4.23336 0.902974 4.17888 1.49921 4.15316C3.79184 4.05631 7.01969 4.3514 7.11351 5.49847C6.93948 6.8347 6.81237 8.13462 6.68071 9.39822L7.25576 7.79262C8.79477 5.06718 10.588 4.05631 12.6067 3.97156C15.3579 3.85504 17.7201 5.40919 17.8442 8.35253C17.988 11.762 14.9508 13.7958 11.6882 14.8324C15.4109 14.8915 17.5219 15.9159 17.6142 18.1057C17.7701 21.8011 12.2405 25.7387 6.05118 25.999L3.85086 26.0913C0.641175 26.2275 0.147843 25.4209 0.0252665 22.5139C-0.133629 18.7821 0.511032 5.77691 0.456554 4.48457ZM6.09809 16.2534C5.89531 19.0666 5.7349 21.8057 5.71372 24.5735C5.71826 24.6809 5.85597 24.6764 6.13139 24.6643C9.79808 24.5099 11.5959 20.2984 11.5142 18.3614C11.4491 16.8194 10.3111 15.9674 7.65073 16.0809C7.1922 16.1006 6.6459 16.1944 6.09658 16.2534H6.09809ZM6.31752 14.9142C6.32206 15.0216 6.46128 15.0519 6.73519 15.0413C10.2657 14.8915 12.2315 10.3153 12.1407 8.16186C12.0937 7.04959 11.502 6.10379 10.6773 6.13859C8.24696 6.24149 6.29785 14.4481 6.31752 14.9142Z" fill="#231F20"/>
<path d="M25.6452 5.23053C25.7965 8.82005 24.3589 13.195 21.8377 15.7464L21.9179 17.6486C22.1116 22.2414 22.4718 24.5991 23.7021 24.5477C25.1594 24.4856 26.1203 21.1019 26.8437 19.0226L27.8833 15.9597L28.5809 16.3608L27.5731 19.3873C26.5077 22.5955 25.739 25.9353 22.6625 26.0655C18.8399 26.2274 17.2434 21.4772 17.0467 16.8117C16.9695 14.9822 16.6275 2.27053 23.1392 1.99511C24.8885 1.92096 25.5498 2.9727 25.6452 5.23204V5.23053ZM21.9043 14.2679C23.5523 12.5806 24.4043 8.12242 24.2999 5.64668C24.2454 4.35433 24.0713 3.28444 23.519 3.30714C22.2221 3.36161 21.7454 10.4998 21.9043 14.2679Z" fill="#231F20"/>
<path d="M28.9894 19.9035C28.6974 22.1159 29.0712 24.2058 31.0596 24.6023C33.0859 25.0078 34.9942 23.5566 36.8555 21.7679L38.7244 19.9429L39.4069 20.4816L37.4593 22.3263C35.3256 24.3541 32.8998 26.5832 29.1756 25.8386C25.0155 25.0078 23.3857 21.4183 24.0818 17.9302C24.7083 14.7946 27.4746 10.5499 33.1903 11.6924C35.9021 12.2342 37.6439 13.6809 37.2505 15.6527C36.7511 18.1542 33.2947 18.8926 29.7067 19.7128L28.991 19.9005L28.9894 19.9035ZM29.1725 18.8049L29.9231 18.6248C32.0871 18.142 33.5611 16.4214 33.8774 14.837C34.0529 13.9563 33.8062 13.5038 33.2978 13.4024C31.9963 13.1421 29.961 15.0428 29.1725 18.8049Z" fill="#231F20"/>
<path d="M42.0253 13.4069C42.0964 15.0927 42.0329 16.9646 42.104 18.6519C42.8016 15.5663 43.6763 10.748 47.1932 10.5997C48.9864 10.5241 50.1789 11.5168 50.2727 13.7413C50.3393 15.3197 49.8823 18.1071 50.0276 21.5514C50.0851 22.9149 50.1986 23.9167 50.7736 23.8924C51.4183 23.8652 52.1991 22.7529 53.8063 18.2645L54.5493 16.2549L55.2802 16.5121L54.5372 18.5218C52.6652 23.5974 51.4243 26.061 49.056 26.1609C46.3291 26.2759 45.3076 23.0102 45.1972 20.3907C45.0534 16.9828 45.6239 13.4704 45.6012 12.9317C45.5936 12.7516 45.518 12.6472 45.3742 12.6532C44.5132 12.6896 43.5265 16.5787 42.9756 18.8653C42.3855 21.0475 41.7726 24.528 41.3595 25.84C40.7541 25.9732 40.509 26.1427 40.0762 26.1609C37.6731 26.2623 37.1313 24.3616 37.0693 22.8906C36.9982 21.2048 37.1782 13.5748 37.092 11.5289C37.375 11.4093 37.9788 11.2398 38.4812 11.2186C39.6646 11.1687 41.9345 11.2883 42.0238 13.4069H42.0253Z" fill="#231F20"/>
<path d="M72.6388 14.7507C73.0187 14.8278 73.5725 15.754 73.8101 16.5318C73.8162 16.5515 73.8207 16.5666 73.8237 16.5772C74.0704 17.4019 74.2838 21.2987 71.8322 23.9969C70.3659 25.61 68.6725 25.9974 67.8901 26.1639C67.5602 26.2335 66.0303 26.5362 64.1372 25.9883C63.5757 25.8264 62.4075 25.4753 61.1908 24.4448C60.7973 24.1119 60.3615 23.7472 59.9847 23.1615C58.883 21.4515 59.1206 19.3632 59.2144 18.7306C59.1827 18.7684 59.1842 18.8063 59.1842 18.8063C64.7682 22.9527 57.232 25.7371 54.8274 25.8385C52.3199 25.9445 50.6992 21.6301 50.5599 18.3493C50.3632 13.6883 53.3565 8.78074 57.4787 8.60671C57.9947 8.58553 58.6833 8.63093 59.2462 8.86851C59.3295 5.12918 59.4611 1.76211 59.5701 1.08567C59.8636 0.661948 60.4069 0.527266 60.8881 0.507593C62.3318 0.447061 63.8572 0.71794 63.9208 2.21004C64.0797 5.96754 63.3412 9.66753 62.7525 18.2797C62.4922 19.7808 62.8236 21.2396 63.6817 22.0069C64.3959 22.644 65.2585 22.6077 65.7231 22.588C66.3693 22.5607 67.4119 22.3474 68.6301 21.2578C71.4554 18.7306 71.7763 14.5766 72.6388 14.7507ZM59.1494 15.5603C59.1479 13.9168 59.1373 12.0116 59.1948 10.1427C58.9844 10.0776 58.8104 10.0095 58.5713 10.0201C55.9942 10.1291 55.2738 15.8735 55.3949 18.7457C55.4161 19.23 55.5371 22.1007 56.43 22.0629C57.4272 22.0205 58.9965 21.3516 59.1509 15.5618L59.1494 15.5603Z" fill="#231F20"/>
<path d="M67.9901 20.6797C68.9979 18.1631 62.8267 15.6737 62.9947 11.2126C63.1233 7.79707 66.9262 4.58436 70.2252 4.44514C72.6782 4.34072 73.7587 5.27139 73.8087 6.44722C73.8737 7.98926 72.2591 8.91085 69.0479 9.04705C69.6789 8.32975 70.5384 7.35822 70.5021 6.50624C70.4794 5.97961 70.1465 5.91151 69.8166 5.92513C68.9949 5.95994 68.1686 6.44268 67.8024 7.33855C67.6965 7.61699 67.5785 8.03769 67.6102 8.53707C67.7585 10.8509 70.9077 11.4471 72.8734 14.6946C73.3274 15.4437 73.8586 16.3229 73.9736 17.4957C74.3171 20.9914 70.8154 25.6751 66.9066 25.4723C63.2565 25.2831 59.5989 20.8537 60.7111 15.5285C60.1558 18.8244 61.7523 21.5604 63.8785 22.134C65.3766 22.538 67.4755 21.9615 67.9886 20.6767L67.9901 20.6797Z" fill="#231F20"/>
</svg>
