<svg width="39" height="31" viewBox="0 0 39 31" fill="none" xmlns="http://www.w3.org/2000/svg">
<g clip-path="url(#clip0_19_544)">
<path fill-rule="evenodd" clip-rule="evenodd" d="M17.12 14.6501C16.9 14.5401 15.82 14.0101 15.61 13.9301C15.41 13.8601 15.26 13.8201 15.11 14.0401C14.96 14.2601 14.54 14.7601 14.41 14.9001C14.28 15.0501 14.15 15.0701 13.93 14.9601C13.71 14.8501 13 14.6201 12.16 13.8701C11.5 13.2901 11.06 12.5601 10.93 12.3401C10.8 12.1201 10.92 12.0001 11.03 11.8901C11.13 11.7901 11.25 11.6301 11.36 11.5001C11.47 11.3701 11.51 11.2801 11.58 11.1301C11.65 10.9801 11.62 10.8501 11.56 10.7401C11.5 10.6301 11.06 9.54009 10.88 9.10009C10.7 8.67009 10.52 8.73009 10.38 8.72009C10.25 8.72009 10.1 8.72009 9.96004 8.72009C9.82004 8.72009 9.57004 8.78009 9.37004 9.00009C9.17004 9.22009 8.60004 9.75009 8.60004 10.8401C8.60004 11.9301 9.39004 12.9701 9.50004 13.1201C9.61004 13.2701 11.05 15.4901 13.27 16.4501C13.8 16.6801 14.21 16.8101 14.53 16.9101C15.06 17.0801 15.54 17.0501 15.92 17.0001C16.34 16.9401 17.22 16.4701 17.41 15.9501C17.59 15.4301 17.59 14.9901 17.54 14.9001C17.48 14.8101 17.34 14.7501 17.12 14.6401V14.6501Z" fill="#212121"/>
<path fill-rule="evenodd" clip-rule="evenodd" d="M1.75001 24.6701C2.25001 23.0001 2.75001 21.3201 3.24001 19.6501C2.48001 18.5401 0.590007 15.4401 1.08001 11.5401C1.79001 5.85006 7.27001 0.760061 13.69 1.01006C19.09 1.22006 24.37 5.18006 25.23 11.0201C26.04 16.5201 22.64 21.6401 17.95 23.6001C12.72 25.7901 7.86001 23.2201 7.20001 22.8601C5.38001 23.4601 3.57001 24.0701 1.75001 24.6701V24.6701Z" stroke="#212121" stroke-width="2" stroke-miterlimit="10" stroke-linecap="round"/>
<path d="M19.84 26.16C24.81 28.89 29.92 26.84 30.61 26.55C32.35 27.34 34.1 28.13 35.84 28.92C35.52 27.2 35.2 25.49 34.88 23.77C35.75 22.74 37.96 19.86 37.88 15.93C37.77 10.2 32.85 4.56 26.45 4.13" stroke="#212121" stroke-width="2" stroke-miterlimit="10" stroke-linecap="round"/>
</g>
<defs>
<clipPath id="clip0_19_544">
<rect width="38.89" height="30.63" fill="white"/>
</clipPath>
</defs>
</svg>
