<svg width="64" height="71" viewBox="0 0 64 71" fill="none" xmlns="http://www.w3.org/2000/svg">
<circle cx="44.3608" cy="19.3608" r="19.3608" fill="#8CE9B5"/>
<path d="M47.6667 60.2677H45.3022C42.8133 60.2677 40.4489 61.2293 38.7067 62.9663L33.3867 68.2086C30.96 70.5971 27.0088 70.5971 24.5822 68.2086L19.2622 62.9663C17.52 61.2293 15.1244 60.2677 12.6667 60.2677H10.3333C5.16889 60.2677 1 56.1422 1 51.055V17.2127C1 12.1255 5.16889 8 10.3333 8H47.6667C52.8311 8 57 12.1255 57 17.2127V51.055C57 56.1112 52.8311 60.2677 47.6667 60.2677Z" stroke="#292D32" stroke-width="2" stroke-miterlimit="10" stroke-linecap="round" stroke-linejoin="round"/>
<path d="M29.8711 47.8875C29.4044 48.0375 28.6267 48.0375 28.1289 47.8875C24.0844 46.537 15 40.9853 15 31.5324C15 27.3611 18.4844 24 22.7778 24C25.3289 24 27.5689 25.1704 29 27.0009C30.4311 25.1704 32.6711 24 35.2222 24C39.5156 24 43 27.3611 43 31.5324C42.9689 40.9853 33.9156 46.537 29.8711 47.8875Z" stroke="#292D32" stroke-width="2" stroke-linecap="round" stroke-linejoin="round"/>
</svg>
