<svg width="57" height="59" viewBox="0 0 57 59" fill="none" xmlns="http://www.w3.org/2000/svg">
<path d="M10.0726 33.2625C10.1038 19.4727 10.579 8.29513 11.134 8.29658C11.689 8.29803 12.1136 19.478 12.0824 33.2677C12.0512 47.0575 11.576 58.2352 11.021 58.2337C10.466 58.2323 10.0414 47.0523 10.0726 33.2625Z" fill="#F8C0D7"/>
<path d="M26.808 26.2714C26.8392 12.4816 27.3144 1.30409 27.8694 1.30554C28.4244 1.30699 28.849 12.4869 28.8177 26.2766C28.7865 40.0663 28.3113 51.2439 27.7564 51.2425C27.2014 51.241 26.7768 40.0611 26.808 26.2714Z" fill="#F8C0D7"/>
<path d="M42.6137 32.3514C42.6449 18.5617 43.1201 7.38411 43.675 7.38556C44.23 7.38701 44.6546 18.5669 44.6234 32.3567C44.5922 46.1464 44.117 57.324 43.562 57.3226C43.007 57.3211 42.5824 46.1412 42.6137 32.3514Z" fill="#F8C0D7"/>
<path d="M21.1816 9H6.81924C6.51415 9 6.23643 9.17984 6.09435 9.46945C5.95251 9.75894 5.97172 10.1062 6.1444 10.3752L6.31811 10.6463C7.06348 11.8094 8.29421 12.5037 9.61031 12.5037H12.1536V45.2369L13.0524 55.089L13.056 55.1207C13.1233 55.6302 13.5205 56 14.0005 56C14.4804 56 14.8777 55.6302 14.945 55.1207L15.844 45.2728L15.8471 12.5037H18.4075C19.8552 12.5037 21.1924 11.6614 21.897 10.3052C22.0377 10.0345 22.0339 9.70023 21.8875 9.43319C21.7412 9.16578 21.4706 9 21.1816 9ZM13.5341 19.9136H14.4667V21.8795H13.5341V19.9136ZM13.5341 18.4335V16.4676H14.4667V18.4335H13.5341ZM14.0004 50.2764L13.534 45.1646V23.3596H14.4666V45.1645L14.0004 50.2764ZM14.4667 14.9874H13.5341V12.5036H14.4667V14.9874ZM18.4075 11.0235H15.8473H12.1536H9.61019C9.04602 11.0235 8.50578 10.8286 8.0632 10.4801H19.954C19.5128 10.8271 18.973 11.0235 18.4075 11.0235Z" fill="black"/>
<path d="M38.1816 1H23.8192C23.5141 1 23.2364 1.17984 23.0944 1.46945C22.9525 1.75894 22.9717 2.10616 23.1444 2.37518L23.3181 2.64629C24.0635 3.80944 25.2942 4.50375 26.6103 4.50375H29.1536V37.2369L30.0524 47.089L30.056 47.1207C30.1233 47.6302 30.5205 48 31.0005 48C31.4804 48 31.8777 47.6302 31.945 47.1207L32.844 37.2728L32.8471 4.50375H35.4075C36.8552 4.50375 38.1924 3.66142 38.897 2.30524C39.0377 2.0345 39.0339 1.70023 38.8875 1.43319C38.7412 1.16578 38.4706 1 38.1816 1ZM30.5341 11.9136H31.4667V13.8795H30.5341V11.9136ZM30.5341 10.4335V8.46757H31.4667V10.4335H30.5341ZM31.0004 42.2764L30.534 37.1646V15.3596H31.4666V37.1645L31.0004 42.2764ZM31.4667 6.98743H30.5341V4.50362H31.4667V6.98743ZM35.4075 3.02348H32.8473H29.1536H26.6102C26.046 3.02348 25.5058 2.82859 25.0632 2.48014H36.954C36.5128 2.82711 35.973 3.02348 35.4075 3.02348Z" fill="black"/>
<path d="M54.1816 7H39.8192C39.5141 7 39.2364 7.17984 39.0944 7.46945C38.9525 7.75894 38.9717 8.10616 39.1444 8.37518L39.3181 8.64629C40.0635 9.80944 41.2942 10.5037 42.6103 10.5037H45.1536V43.2369L46.0524 53.089L46.056 53.1207C46.1233 53.6302 46.5205 54 47.0005 54C47.4804 54 47.8777 53.6302 47.945 53.1207L48.844 43.2728L48.8471 10.5037H51.4075C52.8552 10.5037 54.1924 9.66142 54.897 8.30524C55.0377 8.0345 55.0339 7.70023 54.8875 7.43319C54.7412 7.16578 54.4706 7 54.1816 7ZM46.5341 17.9136H47.4667V19.8795H46.5341V17.9136ZM46.5341 16.4335V14.4676H47.4667V16.4335H46.5341ZM47.0004 48.2764L46.534 43.1646V21.3596H47.4666V43.1645L47.0004 48.2764ZM47.4667 12.9874H46.5341V10.5036H47.4667V12.9874ZM51.4075 9.02348H48.8473H45.1536H42.6102C42.046 9.02348 41.5058 8.82859 41.0632 8.48014H52.954C52.5128 8.82711 51.973 9.02348 51.4075 9.02348Z" fill="black"/>
<line x1="3.36273" y1="1.66124" x2="56.3588" y2="57.5219" stroke="black"/>
<line x1="0.637253" y1="57.0895" x2="53.6308" y2="1.2264" stroke="black"/>
</svg>
