<svg id="Group_2" data-name="Group 2" xmlns="http://www.w3.org/2000/svg" width="50" height="50" viewBox="0 0 50 50">
  <rect id="Rectangle_2" data-name="Rectangle 2" width="50" height="50" rx="10" fill="#fff"/>
  <path id="Path_5" data-name="Path 5" d="M33,40H17a3,3,0,0,1-3-3V18a1,1,0,0,1,2,0V37a1,1,0,0,0,1,1H33a1,1,0,0,0,1-1V18a1,1,0,0,1,2,0V37a3,3,0,0,1-3,3Z" fill="#101820"/>
  <path id="Path_6" data-name="Path 6" d="M37,16H13a1,1,0,0,1,0-2H37a1,1,0,0,1,0,2Z" fill="#101820"/>
  <path id="Path_7" data-name="Path 7" d="M29,16a1,1,0,0,1-1-1V12H22v3a1,1,0,0,1-2,0V11a1,1,0,0,1,1-1h8a1,1,0,0,1,1,1v4a1,1,0,0,1-1,1Z" fill="#101820"/>
  <path id="Path_8" data-name="Path 8" d="M25,35a1,1,0,0,1-1-1V20a1,1,0,0,1,2,0V34a1,1,0,0,1-1,1Z" fill="#101820"/>
  <path id="Path_9" data-name="Path 9" d="M30,33a1,1,0,0,1-1-1V22a1,1,0,0,1,2,0V32a1,1,0,0,1-1,1Z" fill="#101820"/>
  <path id="Path_10" data-name="Path 10" d="M20,33a1,1,0,0,1-1-1V22a1,1,0,0,1,2,0V32a1,1,0,0,1-1,1Z" fill="#101820"/>
</svg>
