<svg width="20" height="20" viewBox="0 0 20 20" fill="none" xmlns="http://www.w3.org/2000/svg">
<g clip-path="url(#clip0_1_1200)">
<path d="M5.65266 11.6971L0.138255 5.92099L5.65261 0.144923L6.43113 0.962709L2.41258 5.17199L2.25118 5.34104H2.48491H15.199C17.6133 5.34104 19.591 7.37308 19.6419 9.90068H18.5433C18.4925 8.02168 17.0154 6.50094 15.199 6.50094H2.48491H2.25113L2.41259 6.67L6.43238 10.8792L5.65266 11.6971Z" fill="#018489" stroke="white" stroke-width="0.2"/>
<path d="M4.81253 14.659C2.39816 14.659 0.420508 12.627 0.369562 10.0994H1.46818C1.51896 11.9784 2.99607 13.4991 4.81253 13.4991H17.5175H17.7509L17.5899 13.3301L13.5792 9.11969L14.3599 8.30421L19.8617 14.0791L14.3599 19.8539L13.5792 19.0384L17.5899 14.828L17.7509 14.659H17.5175H4.81253Z" fill="#018489" stroke="white" stroke-width="0.2"/>
</g>
<defs>
<clipPath id="clip0_1_1200">
<rect width="20" height="20" fill="white"/>
</clipPath>
</defs>
</svg>
