<svg width="77" height="59" viewBox="0 0 77 59" fill="none" xmlns="http://www.w3.org/2000/svg">
<path d="M26.0726 33.2625C26.1038 19.4727 26.579 8.29513 27.134 8.29658C27.689 8.29803 28.1136 19.478 28.0824 33.2677C28.0512 47.0575 27.576 58.2352 27.021 58.2337C26.466 58.2323 26.0414 47.0523 26.0726 33.2625Z" fill="#FF99C7"/>
<path d="M42.808 26.2714C42.8392 12.4816 43.3144 1.30409 43.8694 1.30554C44.4244 1.30699 44.849 12.4869 44.8177 26.2766C44.7865 40.0663 44.3113 51.2439 43.7564 51.2425C43.2014 51.241 42.7768 40.0611 42.808 26.2714Z" fill="#FF99C7"/>
<path d="M37.1816 9H22.8192C22.5141 9 22.2364 9.17984 22.0944 9.46945C21.9525 9.75894 21.9717 10.1062 22.1444 10.3752L22.3181 10.6463C23.0635 11.8094 24.2942 12.5037 25.6103 12.5037H28.1536V45.2369L29.0524 55.089L29.056 55.1207C29.1233 55.6302 29.5205 56 30.0005 56C30.4804 56 30.8777 55.6302 30.945 55.1207L31.844 45.2728L31.8471 12.5037H34.4075C35.8552 12.5037 37.1924 11.6614 37.897 10.3052C38.0377 10.0345 38.0339 9.70023 37.8875 9.43319C37.7412 9.16578 37.4706 9 37.1816 9ZM29.5341 19.9136H30.4667V21.8795H29.5341V19.9136ZM29.5341 18.4335V16.4676H30.4667V18.4335H29.5341ZM30.0004 50.2764L29.534 45.1646V23.3596H30.4666V45.1645L30.0004 50.2764ZM30.4667 14.9874H29.5341V12.5036H30.4667V14.9874ZM34.4075 11.0235H31.8473H28.1536H25.6102C25.046 11.0235 24.5058 10.8286 24.0632 10.4801H35.954C35.5128 10.8271 34.973 11.0235 34.4075 11.0235Z" fill="black"/>
<path d="M54.1816 1H39.8192C39.5141 1 39.2364 1.17984 39.0944 1.46945C38.9525 1.75894 38.9717 2.10616 39.1444 2.37518L39.3181 2.64629C40.0635 3.80944 41.2942 4.50375 42.6103 4.50375H45.1536V37.2369L46.0524 47.089L46.056 47.1207C46.1233 47.6302 46.5205 48 47.0005 48C47.4804 48 47.8777 47.6302 47.945 47.1207L48.844 37.2728L48.8471 4.50375H51.4075C52.8552 4.50375 54.1924 3.66142 54.897 2.30524C55.0377 2.0345 55.0339 1.70023 54.8875 1.43319C54.7412 1.16578 54.4706 1 54.1816 1ZM46.5341 11.9136H47.4667V13.8795H46.5341V11.9136ZM46.5341 10.4335V8.46757H47.4667V10.4335H46.5341ZM47.0004 42.2764L46.534 37.1646V15.3596H47.4666V37.1645L47.0004 42.2764ZM47.4667 6.98743H46.5341V4.50362H47.4667V6.98743ZM51.4075 3.02348H48.8473H45.1536H42.6102C42.046 3.02348 41.5058 2.82859 41.0632 2.48014H52.954C52.5128 2.82711 51.973 3.02348 51.4075 3.02348Z" fill="black"/>
<line x1="9.63725" y1="57.0895" x2="62.6308" y2="1.2264" stroke="black"/>
<path d="M67.0621 20.5345C67.3843 19.6639 68.6157 19.6639 68.9379 20.5345L69.1909 21.2183C69.2922 21.492 69.508 21.7078 69.7817 21.8091L70.4655 22.0621C71.3361 22.3843 71.3361 23.6157 70.4655 23.9379L69.7817 24.1909C69.508 24.2922 69.2922 24.508 69.1909 24.7817L68.9379 25.4655C68.6157 26.3361 67.3843 26.3361 67.0621 25.4655L66.8091 24.7817C66.7078 24.508 66.492 24.2922 66.2183 24.1909L65.5345 23.9379C64.6639 23.6157 64.6639 22.3843 65.5345 22.0621L66.2183 21.8091C66.492 21.7078 66.7078 21.492 66.8091 21.2183L67.0621 20.5345Z" fill="#FF99C7"/>
<path d="M4.06215 5.53451C4.38431 4.66389 5.61569 4.66389 5.93785 5.53451L6.19088 6.2183C6.29217 6.49202 6.50798 6.70783 6.7817 6.80912L7.46549 7.06215C8.33611 7.38431 8.33611 8.61569 7.46549 8.93785L6.7817 9.19088C6.50798 9.29217 6.29217 9.50798 6.19088 9.7817L5.93785 10.4655C5.61569 11.3361 4.38431 11.3361 4.06215 10.4655L3.80912 9.7817C3.70783 9.50798 3.49202 9.29217 3.2183 9.19088L2.53451 8.93785C1.66389 8.61569 1.66389 7.38431 2.53451 7.06215L3.2183 6.80912C3.49202 6.70783 3.70783 6.49202 3.80912 6.2183L4.06215 5.53451Z" fill="#FF99C7"/>
<path d="M77 15.5C77 16.6046 76.1046 17.5 75 17.5C73.8954 17.5 73 16.6046 73 15.5C73 14.3954 73.8954 13.5 75 13.5C76.1046 13.5 77 14.3954 77 15.5Z" fill="#FF99C7"/>
</svg>
