<svg width="26" height="26" viewBox="0 0 26 26" fill="none" xmlns="http://www.w3.org/2000/svg">
<path d="M13 0.5C10.5277 0.5 8.11099 1.23311 6.05538 2.60663C3.99976 3.98015 2.39761 5.93238 1.45151 8.21646C0.505416 10.5005 0.257874 13.0139 0.74019 15.4386C1.2225 17.8634 2.41301 20.0907 4.16117 21.8388C5.90933 23.587 8.13661 24.7775 10.5614 25.2598C12.9861 25.7421 15.4995 25.4946 17.7836 24.5485C20.0676 23.6024 22.0199 22.0002 23.3934 19.9446C24.7669 17.889 25.5 15.4723 25.5 13C25.5 11.3585 25.1767 9.73303 24.5485 8.21646C23.9203 6.69989 22.9996 5.3219 21.8388 4.16117C20.6781 3.00043 19.3001 2.07969 17.7836 1.45151C16.267 0.823322 14.6415 0.5 13 0.5ZM18.8875 10.1375L12.6375 16.3875C12.5213 16.5047 12.3831 16.5977 12.2307 16.6611C12.0784 16.7246 11.915 16.7572 11.75 16.7572C11.585 16.7572 11.4216 16.7246 11.2693 16.6611C11.117 16.5977 10.9787 16.5047 10.8625 16.3875L8.36251 13.8875C8.12713 13.6521 7.99489 13.3329 7.99489 13C7.99489 12.6671 8.12713 12.3479 8.36251 12.1125C8.59789 11.8771 8.91713 11.7449 9.25001 11.7449C9.58288 11.7449 9.90213 11.8771 10.1375 12.1125L11.75 13.7375L17.1125 8.3625C17.3479 8.12712 17.6671 7.99489 18 7.99489C18.3329 7.99489 18.6521 8.12712 18.8875 8.3625C19.1229 8.59788 19.2551 8.91712 19.2551 9.25C19.2551 9.58288 19.1229 9.90212 18.8875 10.1375Z" fill="#E6166C"/>
</svg>
