<svg xmlns="http://www.w3.org/2000/svg" xmlns:xlink="http://www.w3.org/1999/xlink" width="30" height="30" viewBox="0 0 30 30">
  <defs>
    <linearGradient id="linear-gradient" x1="0.898" y1="0.198" x2="0.303" y2="0.873" gradientUnits="objectBoundingBox">
      <stop offset="0" stop-color="#f0a"/>
      <stop offset="1" stop-color="#ef0"/>
    </linearGradient>
  </defs>
  <g id="Group_11" data-name="Group 11" transform="translate(582 -268)">
    <g id="Group_10" data-name="Group 10" transform="translate(-582 268)">
      <path id="Path_25" data-name="Path 25" d="M15,30A15,15,0,1,1,30,15,15,15,0,0,1,15,30Z" fill="url(#linear-gradient)"/>
      <path id="Path_26" data-name="Path 26" d="M15,6.606c2.733,0,3.057.009,4.137.06a5.618,5.618,0,0,1,1.9.354A3.386,3.386,0,0,1,22.98,8.961a5.7,5.7,0,0,1,.354,1.9c.048,1.08.06,1.4.06,4.137s-.009,3.057-.06,4.137a5.618,5.618,0,0,1-.354,1.9,3.386,3.386,0,0,1-1.941,1.941,5.7,5.7,0,0,1-1.9.354c-1.08.048-1.4.06-4.137.06s-3.057-.009-4.137-.06a5.618,5.618,0,0,1-1.9-.354,3.386,3.386,0,0,1-1.941-1.941,5.7,5.7,0,0,1-.354-1.9c-.048-1.08-.06-1.4-.06-4.137s.009-3.057.06-4.137a5.618,5.618,0,0,1,.354-1.9A3.386,3.386,0,0,1,8.962,7.02a5.7,5.7,0,0,1,1.9-.354C11.943,6.615,12.267,6.606,15,6.606Zm0-1.845c-2.781,0-3.129.012-4.221.063A7.526,7.526,0,0,0,8.293,5.3,4.943,4.943,0,0,0,6.481,6.48,5.04,5.04,0,0,0,5.3,8.295a7.571,7.571,0,0,0-.477,2.487c-.051,1.092-.063,1.44-.063,4.221s.012,3.129.063,4.221A7.526,7.526,0,0,0,5.3,21.711a5.253,5.253,0,0,0,3,2.991,7.571,7.571,0,0,0,2.487.477c1.092.051,1.44.063,4.221.063s3.129-.012,4.221-.063a7.526,7.526,0,0,0,2.487-.477,5.253,5.253,0,0,0,2.991-3,7.571,7.571,0,0,0,.477-2.487c.051-1.092.063-1.44.063-4.221s-.012-3.129-.063-4.221A7.526,7.526,0,0,0,24.7,8.289a5.253,5.253,0,0,0-3-2.991,7.571,7.571,0,0,0-2.487-.477C18.129,4.773,17.781,4.761,15,4.761Z" fill="#fff"/>
      <path id="Path_27" data-name="Path 27" d="M15,9.741A5.259,5.259,0,1,0,20.26,15,5.26,5.26,0,0,0,15,9.741Zm0,8.673A3.414,3.414,0,1,1,18.415,15,3.414,3.414,0,0,1,15,18.414Z" fill="#fff"/>
      <path id="Path_28" data-name="Path 28" d="M20.467,10.764a1.23,1.23,0,1,0-1.23-1.23A1.23,1.23,0,0,0,20.467,10.764Z" fill="#fff"/>
    </g>
  </g>
</svg>
