<svg width="30" height="30" viewBox="0 0 30 30" fill="none" xmlns="http://www.w3.org/2000/svg">
    <path d="M14.9996 0.416016C6.94504 0.416016 0.415527 6.94553 0.415527 15.0001C0.415527 23.0547 6.94504 29.5842 14.9996 29.5842C15.104 29.5842 15.2079 29.5825 15.3117 29.5803V19.9651H12.0818V15.9277H15.3117V13.5052C15.3117 10.1792 17.1891 7.85285 20.1566 7.85285C21.5778 7.85285 22.5791 7.85285 23.3866 7.85285V11.8903H21.7716C20.1582 11.8903 19.3492 12.6977 19.3492 14.3127V15.9277H23.3866L22.5791 19.9651H19.3492V28.9245C25.2793 27.074 29.5837 21.5398 29.5837 15.0001C29.5837 6.94553 23.0542 0.416016 14.9996 0.416016Z" fill="url(#paint0_linear_603_889)"/>
    <defs>
    <linearGradient id="paint0_linear_603_889" x1="24.5965" y1="27.1203" x2="4.20691" y2="1.36966" gradientUnits="userSpaceOnUse">
    <stop stop-color="#3B5998"/>
    <stop offset="1" stop-color="#336699"/>
    </linearGradient>
    </defs>
    </svg>
    