<svg width="30" height="30" viewBox="0 0 30 30" fill="none" xmlns="http://www.w3.org/2000/svg">
<path d="M15 30C6.717 30 0 23.283 0 15C0 6.717 6.717 0 15 0C23.283 0 30 6.717 30 15C30 23.283 23.283 30 15 30Z" fill="url(#paint0_linear_603_883)"/>
<path d="M15.0008 6.60574C17.7338 6.60574 18.0578 6.61474 19.1378 6.66574C20.1368 6.71074 20.6798 6.87874 21.0398 7.01974C21.5168 7.20574 21.8588 7.42774 22.2158 7.78474C22.5728 8.14174 22.7948 8.48374 22.9808 8.96074C23.1218 9.32074 23.2868 9.86374 23.3348 10.8627C23.3828 11.9427 23.3948 12.2667 23.3948 14.9997C23.3948 17.7327 23.3858 18.0567 23.3348 19.1367C23.2898 20.1357 23.1218 20.6787 22.9808 21.0387C22.7948 21.5157 22.5728 21.8577 22.2158 22.2147C21.8588 22.5717 21.5168 22.7937 21.0398 22.9797C20.6798 23.1207 20.1368 23.2857 19.1378 23.3337C18.0578 23.3817 17.7338 23.3937 15.0008 23.3937C12.2678 23.3937 11.9438 23.3847 10.8638 23.3337C9.86479 23.2887 9.32179 23.1207 8.96179 22.9797C8.48479 22.7937 8.14279 22.5717 7.78579 22.2147C7.42879 21.8577 7.20679 21.5157 7.02079 21.0387C6.87979 20.6787 6.71479 20.1357 6.66679 19.1367C6.61879 18.0567 6.60679 17.7327 6.60679 14.9997C6.60679 12.2667 6.61579 11.9427 6.66679 10.8627C6.71179 9.86374 6.87979 9.32074 7.02079 8.96074C7.20679 8.48374 7.42879 8.14174 7.78579 7.78474C8.14279 7.42774 8.48479 7.20574 8.96179 7.01974C9.32179 6.87874 9.86479 6.71374 10.8638 6.66574C11.9438 6.61474 12.2678 6.60574 15.0008 6.60574ZM15.0008 4.76074C12.2198 4.76074 11.8718 4.77274 10.7798 4.82374C9.69079 4.87474 8.94679 5.04574 8.29279 5.30074C7.62079 5.55874 7.04779 5.90974 6.48079 6.47974C5.91079 7.04974 5.56279 7.61974 5.29879 8.29474C5.04679 8.94574 4.87279 9.68974 4.82179 10.7817C4.77079 11.8737 4.75879 12.2217 4.75879 15.0027C4.75879 17.7837 4.77079 18.1317 4.82179 19.2237C4.87279 20.3127 5.04379 21.0567 5.29879 21.7107C5.55979 22.3797 5.91079 22.9527 6.48079 23.5197C7.05079 24.0897 7.62079 24.4377 8.29579 24.7017C8.94679 24.9537 9.69079 25.1277 10.7828 25.1787C11.8748 25.2297 12.2228 25.2417 15.0038 25.2417C17.7848 25.2417 18.1328 25.2297 19.2248 25.1787C20.3138 25.1277 21.0578 24.9567 21.7118 24.7017C22.3808 24.4407 22.9538 24.0897 23.5208 23.5197C24.0908 22.9497 24.4388 22.3797 24.7028 21.7047C24.9548 21.0537 25.1288 20.3097 25.1798 19.2177C25.2308 18.1257 25.2428 17.7777 25.2428 14.9967C25.2428 12.2157 25.2308 11.8677 25.1798 10.7757C25.1288 9.68674 24.9578 8.94274 24.7028 8.28874C24.4418 7.61974 24.0908 7.04674 23.5208 6.47974C22.9508 5.90974 22.3808 5.56174 21.7058 5.29774C21.0548 5.04574 20.3108 4.87174 19.2188 4.82074C18.1298 4.77274 17.7818 4.76074 15.0008 4.76074Z" fill="white"/>
<path d="M15.0017 9.74121C12.0977 9.74121 9.74268 12.0962 9.74268 15.0002C9.74268 17.9042 12.0977 20.2592 15.0017 20.2592C17.9057 20.2592 20.2607 17.9042 20.2607 15.0002C20.2607 12.0962 17.9057 9.74121 15.0017 9.74121ZM15.0017 18.4142C13.1177 18.4142 11.5877 16.8872 11.5877 15.0002C11.5877 13.1132 13.1177 11.5862 15.0017 11.5862C16.8857 11.5862 18.4157 13.1132 18.4157 15.0002C18.4157 16.8872 16.8857 18.4142 15.0017 18.4142Z" fill="white"/>
<path d="M20.4673 10.7637C21.1466 10.7637 21.6973 10.213 21.6973 9.53371C21.6973 8.8544 21.1466 8.30371 20.4673 8.30371C19.788 8.30371 19.2373 8.8544 19.2373 9.53371C19.2373 10.213 19.788 10.7637 20.4673 10.7637Z" fill="white"/>
<defs>
<linearGradient id="paint0_linear_603_883" x1="4.39339" y1="25.6066" x2="25.6066" y2="4.39339" gradientUnits="userSpaceOnUse">
<stop stop-color="#FFD521"/>
<stop offset="0.0551048" stop-color="#FFD020"/>
<stop offset="0.1241" stop-color="#FEC01E"/>
<stop offset="0.2004" stop-color="#FCA71B"/>
<stop offset="0.2821" stop-color="#FA8316"/>
<stop offset="0.3681" stop-color="#F85510"/>
<stop offset="0.4563" stop-color="#F51E09"/>
<stop offset="0.5" stop-color="#F30005"/>
<stop offset="0.5035" stop-color="#F20007"/>
<stop offset="0.5966" stop-color="#E1003B"/>
<stop offset="0.6879" stop-color="#D30067"/>
<stop offset="0.7757" stop-color="#C70088"/>
<stop offset="0.8589" stop-color="#BF00A0"/>
<stop offset="0.9357" stop-color="#BB00AF"/>
<stop offset="1" stop-color="#B900B4"/>
</linearGradient>
</defs>
</svg>
