<svg width="29" height="22" viewBox="0 0 29 22" fill="none" xmlns="http://www.w3.org/2000/svg">
<path d="M26.5759 1H2.4241C1.63759 1 1 1.67528 1 2.50828V19.4917C1 20.3247 1.63759 21 2.4241 21H26.5759C27.3624 21 28 20.3247 28 19.4917V2.50828C28 1.67528 27.3624 1 26.5759 1Z" fill="#EC008C" stroke="#EC008C" stroke-width="1.5" stroke-miterlimit="10"/>
<path d="M10.7487 4.6665C9.83404 4.6665 9.09305 5.42677 9.09305 6.34646C9.09305 7.26614 9.83404 8.02641 10.7487 8.02641C11.6634 8.02641 12.4044 7.26614 12.4044 6.34646C12.4044 5.42677 11.6634 4.6665 10.7487 4.6665Z" fill="white"/>
<path d="M18.2513 11.2393L11.3045 17.3705H25.1981L18.2513 11.2393Z" fill="white" stroke="white" stroke-width="1.5" stroke-linecap="round" stroke-linejoin="round"/>
<path d="M11.4202 12.4655L4.5892 17.3704H18.2513L11.4202 12.4655Z" fill="white" stroke="white" stroke-width="1.5" stroke-linecap="round" stroke-linejoin="round"/>
</svg>
