<svg width="220" height="220" viewBox="0 0 220 220" fill="none" xmlns="http://www.w3.org/2000/svg"  className="w-25">
    <g filter="url(#filter0_d_270_71)">
      <circle cx="110" cy="100" r="90" fill="white" />
    </g>
    <path d="M139.125 95.5625H114.438V70.875C114.438 68.1495 112.225 65.9375 109.5 65.9375C106.775 65.9375 104.562 68.1495 104.562 70.875V95.5625H79.875C77.1495 95.5625 74.9375 97.7745 74.9375 100.5C74.9375 103.225 77.1495 105.438 79.875 105.438H104.562V130.125C104.562 132.85 106.775 135.062 109.5 135.062C112.225 135.062 114.438 132.85 114.438 130.125V105.438H139.125C141.85 105.438 144.062 103.225 144.062 100.5C144.062 97.7745 141.85 95.5625 139.125 95.5625Z" fill="#FF007C" />
    <defs>
      <filter id="filter0_d_270_71" x="0" y="0" width="220" height="220" filterUnits="userSpaceOnUse" color-interpolation-filters="sRGB">
        <feFlood flood-opacity="0" result="BackgroundImageFix" />
        <feColorMatrix in="SourceAlpha" type="matrix" values="0 0 0 0 0 0 0 0 0 0 0 0 0 0 0 0 0 0 127 0" result="hardAlpha" />
        <feOffset dy="10" />
        <feGaussianBlur stdDeviation="10" />
        <feComposite in2="hardAlpha" operator="out" />
        <feColorMatrix type="matrix" values="0 0 0 0 0.388235 0 0 0 0 0.298039 0 0 0 0 0.980392 0 0 0 0.1 0" />
        <feBlend mode="normal" in2="BackgroundImageFix" result="effect1_dropShadow_270_71" />
        <feBlend mode="normal" in="SourceGraphic" in2="effect1_dropShadow_270_71" result="shape" />
      </filter>
    </defs>
  </svg>
