<svg width="27" height="27" viewBox="0 0 27 27" fill="none" xmlns="http://www.w3.org/2000/svg">
<path d="M4.725 27L22.275 27C24.8845 27 27 24.8845 27 22.275L27 4.725C27 2.11546 24.8845 0 22.275 0L4.725 0C2.11546 0 0 2.11546 0 4.725L0 22.275C0 24.8845 2.11546 27 4.725 27Z" fill="url(#paint0_radial_1_2417)"/>
<path d="M18.5625 23.625H8.4375C7.09484 23.625 5.80717 23.0916 4.85777 22.1422C3.90837 21.1928 3.375 19.9052 3.375 18.5625V8.4375C3.375 7.09484 3.90837 5.80717 4.85777 4.85777C5.80717 3.90837 7.09484 3.375 8.4375 3.375H18.5625C19.9052 3.375 21.1928 3.90837 22.1422 4.85777C23.0916 5.80717 23.625 7.09484 23.625 8.4375V18.5625C23.625 19.9052 23.0916 21.1928 22.1422 22.1422C21.1928 23.0916 19.9052 23.625 18.5625 23.625V23.625ZM8.4375 5.4C7.63225 5.40112 6.8603 5.7215 6.2909 6.2909C5.7215 6.8603 5.40112 7.63225 5.4 8.4375V18.5625C5.40112 19.3678 5.7215 20.1397 6.2909 20.7091C6.8603 21.2785 7.63225 21.5989 8.4375 21.6H18.5625C19.3678 21.5989 20.1397 21.2785 20.7091 20.7091C21.2785 20.1397 21.5989 19.3678 21.6 18.5625V8.4375C21.5989 7.63225 21.2785 6.8603 20.7091 6.2909C20.1397 5.7215 19.3678 5.40112 18.5625 5.4H8.4375Z" fill="white"/>
<path d="M13.5 19.2375C12.3652 19.2375 11.256 18.901 10.3124 18.2705C9.3689 17.6401 8.63351 16.744 8.19926 15.6956C7.765 14.6472 7.65138 13.4936 7.87276 12.3806C8.09414 11.2677 8.64059 10.2453 9.44299 9.44293C10.2454 8.64053 11.2677 8.09408 12.3807 7.8727C13.4936 7.65132 14.6473 7.76494 15.6957 8.19919C16.7441 8.63345 17.6401 9.36884 18.2706 10.3124C18.901 11.2559 19.2375 12.3652 19.2375 13.5C19.2364 15.0213 18.6316 16.48 17.5558 17.5557C16.4801 18.6315 15.0214 19.2363 13.5 19.2375V19.2375ZM13.5 9.78745C12.7658 9.78745 12.048 10.0052 11.4375 10.4131C10.8269 10.8211 10.3511 11.4009 10.0701 12.0792C9.78912 12.7576 9.7156 13.5041 9.85885 14.2242C10.0021 14.9444 10.3557 15.6059 10.8749 16.1251C11.3941 16.6443 12.0556 16.9979 12.7757 17.1411C13.4959 17.2844 14.2424 17.2108 14.9207 16.9299C15.5991 16.6489 16.1789 16.173 16.5868 15.5625C16.9948 14.952 17.2125 14.2342 17.2125 13.5C17.2114 12.5157 16.8199 11.572 16.1239 10.8761C15.4279 10.1801 14.4843 9.78857 13.5 9.78745V9.78745Z" fill="white"/>
<path d="M19.2375 9.11252C19.7967 9.11252 20.25 8.65921 20.25 8.10003C20.25 7.54084 19.7967 7.08752 19.2375 7.08752C18.6783 7.08752 18.225 7.54084 18.225 8.10003C18.225 8.65921 18.6783 9.11252 19.2375 9.11252Z" fill="white"/>
<defs>
<radialGradient id="paint0_radial_1_2417" cx="0" cy="0" r="1" gradientUnits="userSpaceOnUse" gradientTransform="translate(-0.543163 26.4516) rotate(180) scale(62.351)">
<stop stop-color="#F9ED32"/>
<stop offset="0.36" stop-color="#EE2A7B"/>
<stop offset="0.44" stop-color="#D22A8A"/>
<stop offset="0.6" stop-color="#8B2AB2"/>
<stop offset="0.83" stop-color="#1B2AF0"/>
<stop offset="0.88" stop-color="#002AFF"/>
</radialGradient>
</defs>
</svg>
